<?xml version="1.0" encoding="UTF-8"?>
<svg viewBox="0 0 16 16" version="1.1" xmlns="http://www.w3.org/2000/svg" xmlns:xlink="http://www.w3.org/1999/xlink">
    <!-- Generator: Sketch 52.6 (67491) - http://www.bohemiancoding.com/sketch -->
    <title>rectangles-rounded rectangle</title>
    <desc>Created with Sketch.</desc>
    <g id="rectangles-rounded-rectangle" stroke="none" stroke-width="1" fill="none" fill-rule="evenodd">
        <g id="2.2" transform="translate(0.000000, 2.000000)" fill="#707070" fill-rule="nonzero">
            <path d="M3,0 L13,0 C14.6568542,-3.04359188e-16 16,1.34314575 16,3 L16,9 C16,10.6568542 14.6568542,12 13,12 L3,12 C1.34314575,12 2.02906125e-16,10.6568542 0,9 L0,3 C-2.02906125e-16,1.34314575 1.34314575,3.04359188e-16 3,0 Z M3,1 C1.8954305,1 1,1.8954305 1,3 L1,9 C1,10.1045695 1.8954305,11 3,11 L13,11 C14.1045695,11 15,10.1045695 15,9 L15,3 C15,1.8954305 14.1045695,1 13,1 L3,1 Z"></path>
        </g>
    </g>
</svg>