<?xml version="1.0" encoding="UTF-8"?>
<svg viewBox="0 0 16 16" version="1.1" xmlns="http://www.w3.org/2000/svg" xmlns:xlink="http://www.w3.org/1999/xlink">
    <!-- Generator: Sketch 52.6 (67491) - http://www.bohemiancoding.com/sketch -->
    <title>basic shapes-action button help</title>
    <desc>Created with Sketch.</desc>
    <g id="basic-shapes-action-button-help" stroke="none" stroke-width="1" fill="none" fill-rule="evenodd">
        <g id="3.43" fill="#767676" fill-rule="nonzero">
            <path d="M0,0 L16,0 L16,16 L0,16 L0,0 Z M1,1 L1,15 L15,15 L15,1 L1,1 Z M10.7422958,6.5529661 C10.5689522,6.84216102 10.2245763,7.18432203 9.73690293,7.63135593 C9.22033898,8.07944915 8.90485362,8.42161017 8.81818182,8.6059322 C8.73266564,8.78919492 8.67488444,9.1059322 8.67488444,9.6059322 L8.81818182,10 L7.18181818,10 L7.15292758,9.57944915 C7.18181818,9.07944915 7.26848998,8.63135593 7.41178737,8.28919492 C7.58397535,7.92161017 7.92835131,7.5 8.44491525,7 C8.9325886,6.5529661 9.21918336,6.21080508 9.33474576,6.0529661 C9.42141757,5.8940678 9.47804314,5.71080508 9.47804314,5.4470339 C9.47804314,5.07838983 9.36363636,4.78919492 9.10477658,4.57838983 C8.84707242,4.36758475 8.50269646,4.23622881 8.04275809,4.23622881 C7.0674114,4.23622881 6.72187982,4.86864407 6.63636364,6 L5,6 L5,5.84110169 C5.0288906,5.31567797 5.08551618,4.92055085 5.22881356,4.60487288 C5.37326656,4.28919492 5.57434515,4 5.88983051,3.73622881 C6.20531587,3.47351695 6.54969183,3.28919492 6.9229584,3.18326271 C7.29622496,3.07838983 7.66949153,3 8.07164869,3 C8.903698,3 9.62249615,3.23622881 10.1679507,3.68432203 C10.7134052,4.13135593 11,4.76271186 11,5.52648305 C11,5.92055085 10.9144838,6.26271186 10.7422958,6.5529661 Z M8,13 C7.44771525,13 7,12.5522847 7,12 C7,11.4477153 7.44771525,11 8,11 C8.55228475,11 9,11.4477153 9,12 C9,12.5522847 8.55228475,13 8,13 Z" id="合并形状"></path>
        </g>
    </g>
</svg>