<?xml version="1.0" encoding="UTF-8"?>
<svg viewBox="0 0 16 16" version="1.1" xmlns="http://www.w3.org/2000/svg" xmlns:xlink="http://www.w3.org/1999/xlink">
    <!-- Generator: Sketch 52.6 (67491) - http://www.bohemiancoding.com/sketch -->
    <title>basic shapes-action button home</title>
    <desc>Created with Sketch.</desc>
    <g id="basic-shapes-action-button-home" stroke="none" stroke-width="1" fill="none" fill-rule="evenodd">
        <g id="3.42" fill="#767676" fill-rule="nonzero">
            <path d="M0,0 L16,0 L16,16 L0,16 L0,0 Z M1,1 L1,15 L15,15 L15,1 L1,1 Z M13,13.998125 L9,13.998125 L9,13 L12,13 L12,7.9990625 L4,7.9990625 L4,13 L9,13 L9,13.998125 L3,13.998125 L3,7.9990625 L2,7.9990625 L8,2.5 L10,4.52783203 L10,3 L12,3 L12,6 L14,7.99813477 L13,7.99813477 L13,13.998125 Z M7,14 L7,10 L9,10 L9,14 L7,14 Z" id="合并形状"></path>
        </g>
    </g>
</svg>