<?xml version="1.0" encoding="UTF-8"?>
<svg viewBox="0 0 16 16" version="1.1" xmlns="http://www.w3.org/2000/svg" xmlns:xlink="http://www.w3.org/1999/xlink">
    <!-- Generator: Sketch 52.6 (67491) - http://www.bohemiancoding.com/sketch -->
    <title>basic shapes-action button end</title>
    <desc>Created with Sketch.</desc>
    <g id="basic-shapes-action-button-end" stroke="none" stroke-width="1" fill="none" fill-rule="evenodd">
        <g id="3.48" fill="#767676" fill-rule="nonzero">
            <path d="M0,0 L16,0 L16,16 L0,16 L0,0 Z M1,1 L1,15 L15,15 L15,1 L1,1 Z M8.88699446,8.22076456 L3.37007812,11.9599101 C3.25730232,12.0364981 3.10825741,12.0000788 3.03717567,11.8785652 C3.01278967,11.836877 2.99989743,11.7885818 3.00000061,11.7393041 L3.00000061,4.2610131 C3.00000061,4.05591852 3.20952468,3.93131632 3.37035901,4.04040717 L8.88715231,7.77955269 C9.0376159,7.88186324 9.0376159,8.11845401 8.88715231,8.22076455 L8.88697653,8.22076455 L8.88699446,8.22076456 Z M10,4 L12,4 L12,12 L10,12 L10,4 Z" id="合并形状"></path>
        </g>
    </g>
</svg>