<?xml version="1.0" encoding="UTF-8"?>
<svg viewBox="0 0 16 16" version="1.1" xmlns="http://www.w3.org/2000/svg" xmlns:xlink="http://www.w3.org/1999/xlink">
    <!-- Generator: Sketch 52.6 (67491) - http://www.bohemiancoding.com/sketch -->
    <title>basic shapes-action button return</title>
    <desc>Created with Sketch.</desc>
    <g id="basic-shapes-action-button-return" stroke="none" stroke-width="1" fill="none" fill-rule="evenodd">
        <g id="3.49" fill="#767676" fill-rule="nonzero">
            <path d="M0,0 L16,0 L16,16 L0,16 L0,0 Z M1,1 L1,15 L15,15 L15,1 L1,1 Z M10,6 L8,6 L11,3 L14,6 L12,6 L12,8.5 C12,10.9852814 9.98528137,13 7.5,13 C5.01471863,13 3,10.9852814 3,8.5 L3,6 L5,6 L5,8.5 C5,9.88071187 6.11928813,11 7.5,11 C8.88071187,11 10,9.88071187 10,8.5 L10,6 Z" id="合并形状"></path>
        </g>
    </g>
</svg>