<?xml version="1.0" encoding="UTF-8"?>
<svg viewBox="0 0 16 16" version="1.1" xmlns="http://www.w3.org/2000/svg" xmlns:xlink="http://www.w3.org/1999/xlink">
    <!-- Generator: Sketch 52.6 (67491) - http://www.bohemiancoding.com/sketch -->
    <title>basic shapes-decagon</title>
    <desc>Created with Sketch.</desc>
    <g id="basic-shapes-decagon" stroke="none" stroke-width="1" fill="none" fill-rule="evenodd">
        <g id="3.10" fill="#767676" fill-rule="nonzero">
            <path d="M5.41446146,1 L1,5.41819908 L1,9.58578644 L5.41421356,14 L9.58578644,14 L14,9.58578644 L14,5.41421356 L9.58578644,1 L5.41446146,1 Z M5,0 L10,0 L15,5 L15,10 L10,15 L5,15 L0,10 L0,5.00423337 L5,0 Z" id="矩形"></path>
            <path d="M5,7 L4,7 L4,6 L5,6 L5,5 L6,5 L6,10 L5,10 L5,7 Z M7,5 L10,5 L10,10 L7,10 L7,5 Z M8,6 L8,9 L9,9 L9,6 L8,6 Z" id="Combined-Shape"></path>
        </g>
    </g>
</svg>