<?xml version="1.0" encoding="UTF-8"?>
<svg viewBox="0 0 16 16" version="1.1" xmlns="http://www.w3.org/2000/svg" xmlns:xlink="http://www.w3.org/1999/xlink">
    <!-- Generator: Sketch 52.6 (67491) - http://www.bohemiancoding.com/sketch -->
    <title>basic shapes-funnel</title>
    <desc>Created with Sketch.</desc>
    <g id="basic-shapes-funnel" stroke="none" stroke-width="1" fill="none" fill-rule="evenodd">
        <g id="3.64" fill="#767676">
            <path d="M15.0334222,4.44337521 C15.0858667,4.30722583 15.1116444,4.1779329 15.1116444,4.04766048 C15.1116444,2.76648509 12.4058667,0.979891889 8.00053333,0.979891889 C3.5952,0.979891889 0.889422222,2.76648509 0.889422222,4.04766048 C0.889422222,4.1789124 0.914311111,4.30918482 0.957866667,4.42182639 L0.997866667,4.51977557 C1.03964444,4.60890934 1.08942222,4.69706361 1.19253333,4.85182332 L6.72853333,14.548793 C6.80586667,14.6712295 7.20675556,15.0209081 8.00053333,15.0209081 C8.72408889,15.0209081 9.12675556,14.7838711 9.24942222,14.5850342 L9.58364444,14.007134 L14.8494222,4.78717686 C14.9080889,4.70000208 14.9605333,4.60988883 14.9854222,4.55699627 L15.0334222,4.44337521 Z M7.99964444,0.0004 C12.4183111,0.0004 15.9996444,1.8114805 15.9996444,4.04766048 C15.9996444,4.31506177 15.9480889,4.5765861 15.8503111,4.82929501 L15.7934222,4.96446489 C15.7294222,5.10453223 15.6512,5.23970211 15.5605333,5.37291301 L10.3365333,14.5282237 L9.99964444,15.1120009 C9.6992,15.6007673 9.05742222,16.0004 7.99964444,16.0004 C6.94186667,16.0004 6.25653333,15.514572 6.00053333,15.1120009 L5.74275556,14.6673115 L0.438755556,5.37291301 C0.348088889,5.23970211 0.270755556,5.10453223 0.205866667,4.96446489 L0.149866667,4.82929501 C0.0520888889,4.5765861 -0.000355555556,4.31506177 -0.000355555556,4.04766048 C-0.000355555556,1.8114805 3.58186667,0.0004 7.99964444,0.0004 Z M7.99964444,5.95667654 C10.3098667,5.95667654 11.5552,4.92348931 11.5552,4.49977819 C11.5552,4.07711069 10.3098667,3.04392346 7.99964444,3.04392346 C5.68942222,3.04392346 4.44408889,4.07711069 4.44408889,4.49977819 C4.44408889,4.92348931 5.68942222,5.95667654 7.99964444,5.95667654 Z M7.99964444,2.0003 C10.4547556,2.0003 12.4440889,3.11906435 12.4440889,4.49977819 C12.4440889,5.88153565 10.4547556,7.0003 7.99964444,7.0003 C5.54542222,7.0003 3.5552,5.88153565 3.5552,4.49977819 C3.5552,3.11906435 5.54542222,2.0003 7.99964444,2.0003 Z" id="合并形状"></path>
        </g>
    </g>
</svg>