<?xml version="1.0" encoding="UTF-8"?>
<svg viewBox="0 0 16 16" version="1.1" xmlns="http://www.w3.org/2000/svg" xmlns:xlink="http://www.w3.org/1999/xlink">
    <!-- Generator: Sketch 52.6 (67491) - http://www.bohemiancoding.com/sketch -->
    <title>basic shapes-gear 9</title>
    <desc>Created with Sketch.</desc>
    <g id="basic-shapes-gear-9" stroke="none" stroke-width="1" fill="none" fill-rule="evenodd">
        <g id="3.63" fill="#767676">
            <path d="M14.2179235,11.6248643 L14.0452488,11.9300418 L12.2170334,11.1838513 L11.800478,11.6565593 C11.4764905,12.0242211 11.1035488,12.3438877 10.6905537,12.6055977 L10.1636289,12.9415645 L10.5632729,14.8749586 L10.2366151,14.9953995 L9.32161731,13.253081 L8.70657503,13.3409213 C8.47070498,13.3744275 8.22949448,13.3925389 7.98472368,13.3925389 C7.74084295,13.3925389 7.49963244,13.3744275 7.26465247,13.3409213 L6.64872012,13.253081 L5.73372234,14.9963051 L5.40795465,14.8758642 L5.80670854,12.940659 L5.27889368,12.6055977 C4.86945888,12.3456988 4.49829733,12.028749 4.17608994,11.6628983 L3.75953453,11.1920014 L1.95624126,11.9282306 L1.7826765,11.6230532 L3.3109364,10.4023435 L3.11689991,9.8001388 C2.96825728,9.33739203 2.88548024,8.85200599 2.8685688,8.35937537 L2.84898714,7.72547568 L1.0003,7.10968742 L1.06082514,6.76285373 L3.00208015,6.82714927 L3.2343899,6.2394337 C3.41418518,5.78483707 3.65717583,5.35831314 3.95535118,4.97163433 L4.33897379,4.47266472 L3.31360663,2.79373612 L3.57973925,2.56734337 L5.02522212,3.88676029 L5.57528887,3.58792187 C6.00163511,3.3560957 6.4555737,3.18765949 6.92820387,3.08623554 L7.53701562,2.95583332 L7.812049,0.9998 L8.15828843,0.9998 L8.43332181,2.95583332 L9.04302363,3.08623554 C9.5049729,3.18584835 9.9509008,3.3497567 10.3701264,3.57343273 L10.917523,3.8677433 L12.4217508,2.49489769 L12.6878834,2.72219601 L11.623353,4.46451458 L12.0096458,4.96438976 C12.3104914,5.35287971 12.5552622,5.78302593 12.7368376,6.24215042 L12.9691474,6.82986598 L14.9406649,6.76466487 L15.0003,7.11149856 L13.1222404,7.73724811 L13.1008785,8.37024222 C13.0848572,8.85110042 13.0029702,9.32743075 12.8578879,9.78564967 L12.6674117,10.3860432 L14.2179235,11.6248643 Z M16.0003,7.62358476 L15.6723,5.73165621 L13.5549667,5.80219656 C13.3398556,5.25957843 13.0518556,4.75584793 12.7025222,4.30366615 L13.8438556,2.43525105 L12.3976333,1.2007948 L10.7807444,2.67490739 C10.2971889,2.41535505 9.77452222,2.22091689 9.2243,2.10334963 L8.92918889,-0.0002 L7.04118889,-0.0002 L6.74607778,2.10334963 C6.1843,2.22362998 5.65096667,2.42349433 5.15852222,2.69118594 L3.60385556,1.27223952 L2.15763333,2.50760014 L3.26074444,4.31270979 C2.91407778,4.76127411 2.62874444,5.26138716 2.41541111,5.79948347 L0.3283,5.72984748 L0.0003,7.62177603 L1.98696667,8.28377016 C2.00563333,8.87160647 2.10696667,9.43954678 2.27852222,9.97312128 L0.634966667,11.2862572 L1.57896667,12.9493817 L3.51941111,12.1571593 C3.89541111,12.5840189 4.33096667,12.9566166 4.81185556,13.2622915 L4.38163333,15.3432321 L6.15585556,15.9998 L7.14163333,14.12415 C7.41718889,14.163942 7.69896667,14.1847423 7.9843,14.1847423 C8.27052222,14.1847423 8.55318889,14.163942 8.82785556,14.12415 L9.81363333,15.9988956 L11.5878556,15.3423277 L11.1576333,13.2622915 C11.6411889,12.9548079 12.0794111,12.579497 12.4571889,12.1499243 L14.4207444,12.9511905 L15.3647444,11.2880659 L13.6971889,9.95593837 C13.8634111,9.42959878 13.9629667,8.87341519 13.9816333,8.29552688 L16.0003,7.62358476 Z" id="Fill-1"></path>
        </g>
    </g>
</svg>