<?xml version="1.0" encoding="UTF-8"?>
<svg viewBox="0 0 16 16" version="1.1" xmlns="http://www.w3.org/2000/svg" xmlns:xlink="http://www.w3.org/1999/xlink">
    <!-- Generator: Sketch 52.6 (67491) - http://www.bohemiancoding.com/sketch -->
    <title>basic shapes-gear 6</title>
    <desc>Created with Sketch.</desc>
    <g id="basic-shapes-gear-6" stroke="none" stroke-width="1" fill="none" fill-rule="evenodd">
        <g id="3.62" fill="#767676">
            <path d="M14.6171,11.0838 L14.0961,11.9428 L11.6981,11.0278 L11.2471,11.4148 C10.7421,11.8468 10.1631,12.1688 9.5231,12.3728 L8.9301,12.5618 L8.5641,14.9998 L7.4351,14.9998 L7.0721,12.5848 L6.4631,12.4038 C5.7901,12.2038 5.1811,11.8748 4.6561,11.4268 L4.2051,11.0428 L1.8471,11.9428 L1.3261,11.0838 L3.2921,9.6168 L3.1461,8.9818 C3.0731,8.6618 3.0361,8.3308 3.0361,7.9998 C3.0361,7.6688 3.0731,7.3388 3.1461,7.0188 L3.2921,6.3838 L1.3261,4.9168 L1.8471,4.0578 L4.2051,4.9568 L4.6551,4.5728 C5.1691,4.1368 5.7611,3.8128 6.4141,3.6118 L7.0141,3.4258 L7.3791,0.9998 L8.5081,0.9998 L8.8731,3.4258 L9.4731,3.6118 C10.1401,3.8178 10.7421,4.1488 11.2621,4.5978 L11.7141,4.9888 L14.1521,4.0578 L14.6741,4.9168 L12.6181,6.4498 L12.7541,7.0778 C12.8181,7.3778 12.8511,7.6878 12.8511,7.9998 C12.8511,8.3188 12.8161,8.6388 12.7461,8.9518 L12.6061,9.5838 L14.6171,11.0838 Z M13.8511,7.9998 C13.8511,7.6118 13.8101,7.2328 13.7311,6.8668 L16.0001,5.1738 L14.5741,2.8258 L11.9151,3.8408 C11.3031,3.3128 10.5731,2.9048 9.7681,2.6558 L9.3691,-0.0002 L6.5171,-0.0002 L6.1191,2.6558 C5.3291,2.8998 4.6121,3.2968 4.0081,3.8118 L1.4261,2.8258 L0.0001,5.1738 L2.1731,6.7948 C2.0831,7.1838 2.0361,7.5858 2.0361,7.9998 C2.0361,8.4138 2.0831,8.8168 2.1731,9.2048 L0.0001,10.8258 L1.4261,13.1738 L4.0081,12.1888 C4.6271,12.7158 5.3641,13.1198 6.1781,13.3618 L6.5741,15.9998 L9.4251,15.9998 L9.8271,13.3258 C10.6011,13.0778 11.3041,12.6828 11.8971,12.1738 L14.5171,13.1738 L15.9431,10.8258 L13.7221,9.1688 C13.8061,8.7918 13.8511,8.4008 13.8511,7.9998 Z" id="Fill-1"></path>
        </g>
    </g>
</svg>