<?xml version="1.0" encoding="UTF-8"?>
<svg viewBox="0 0 16 16" version="1.1" xmlns="http://www.w3.org/2000/svg" xmlns:xlink="http://www.w3.org/1999/xlink">
    <!-- Generator: Sketch 52.6 (67491) - http://www.bohemiancoding.com/sketch -->
    <title>basic shapes-heart</title>
    <desc>Created with Sketch.</desc>
    <g id="basic-shapes-heart" stroke="none" stroke-width="1" fill="none" fill-rule="evenodd">
        <g id="3.29" transform="translate(0.000000, 1.000000)" fill="#767676" fill-rule="nonzero">
            <path d="M11.4992261,0 C10.1225352,0 8.84248639,0.649984005 8.0000054,1.7215503 C7.15798233,0.649666899 5.87811927,0 4.50069828,0 C2.01898223,0 0,2.07730871 0,4.63106921 C0,6.1544811 0.723120154,7.2231467 1.30448258,8.08191453 C2.99392004,10.5761363 7.24165803,13.6798725 7.42152008,13.8107804 C7.59497323,13.9369118 7.79762334,14 7.99972892,14 C8.20239502,14 8.40467664,13.9369118 8.57777793,13.8107804 C8.757986,13.6798737 13.0060735,10.5761363 14.6949882,8.08191453 C15.2765429,7.22315889 16,6.15448314 16,4.63106921 C16,2.07730871 13.980832,1.15547375e-15 11.4992153,1.15547375e-15 L11.4992261,0 Z M13.8732021,7.49246321 C12.2651118,9.86730274 7.9997462,12.9691688 7.9997462,12.9691688 C7.9997462,12.9691688 3.734832,9.86730274 2.12631194,7.49246321 C1.53300911,6.61582565 1.00168492,5.78246695 1.00168492,4.63106921 C1.00168492,2.64282461 2.56814142,1.03051327 4.50071124,1.03051327 C5.92894591,1.03051327 7.15507499,1.91236276 7.69893789,3.17480046 L7.69893789,3.16853381 L7.70034652,3.16853381 C7.74090847,3.30008829 7.8590731,3.39610617 7.99974436,3.39610617 C8.14086295,3.39610617 8.25901181,3.30008789 8.29925235,3.16853381 L8.30346223,3.16853381 C8.84861681,1.90979568 10.0729207,1.03050743 11.4992265,1.03050743 C13.4313816,1.03050743 14.998188,2.64284317 14.998188,4.63106338 C14.9983001,5.78246925 14.466961,6.6157385 13.873224,7.49245738 L13.8732021,7.49246321 Z" id="Shape"></path>
        </g>
    </g>
</svg>