<?xml version="1.0" encoding="UTF-8"?>
<svg viewBox="0 0 16 16" version="1.1" xmlns="http://www.w3.org/2000/svg" xmlns:xlink="http://www.w3.org/1999/xlink">
    <!-- Generator: Sketch 52.6 (67491) - http://www.bohemiancoding.com/sketch -->
    <title>basic shapes-heptagon</title>
    <desc>Created with Sketch.</desc>
    <g id="basic-shapes-heptagon" stroke="none" stroke-width="1" fill="none" fill-rule="evenodd">
        <g id="3.8" fill="#767676" fill-rule="nonzero">
            <path d="M5.41446146,1 L1,5.41819908 L1,9.58578644 L5.41421356,14 L9.58578644,14 L14,9.58578644 L14,5.41421356 L9.58578644,1 L5.41446146,1 Z M5,0 L10,0 L15,5 L15,10 L10,15 L5,15 L0,10 L0,5.00423337 L5,0 Z" id="矩形"></path>
            <path d="M9,6 L9,7 L8,7 L8,6 L6,6 L6,5 L9,5 L9,6 Z M7,7 L8,7 L8,10 L7,10 L7,7 Z" id="Combined-Shape"></path>
        </g>
    </g>
</svg>