<?xml version="1.0" encoding="UTF-8"?>
<svg viewBox="0 0 16 16" version="1.1" xmlns="http://www.w3.org/2000/svg" xmlns:xlink="http://www.w3.org/1999/xlink">
    <!-- Generator: Sketch 52.6 (67491) - http://www.bohemiancoding.com/sketch -->
    <title>basic shapes-left right circular arrow</title>
    <desc>Created with Sketch.</desc>
    <g id="basic-shapes-left-right-circular-arrow" stroke="none" stroke-width="1" fill="none" fill-rule="evenodd">
        <g id="3.59" transform="translate(0.000000, 4.000000)" fill="#767676" fill-rule="nonzero">
            <path d="M14.4186493,6.59317069 C13.7864092,3.241281 11.0687845,0.79984 8,0.79984 C4.93290556,0.79984 2.23347727,3.2384414 1.6,6.59317069 L1.32890625,7.32524207 L1.796521,7.85248308 L2.67441406,7.25736153 L2.11552734,7.25728543 L2.4849631,5.97501322 C3.95631702,2.55816509 5.2349752,1.7322001 7.99993775,1.7322001 C10.6546874,1.7322001 12.1017434,2.69555563 13.5149246,5.97475257 L13.8964844,7.25728543 L13.600128,7.32524207 L14.2034477,7.85245575 L14.5439303,7.25736153 L14.4186493,6.59317069 Z M3.2,6.30002 L3.69364859,6.30002 L4.8,6.30002 L1.6,8.99984 L-8e-05,6.30002 L0.8,6.30002 C1.5224,2.60642 4.5968,-0.00016 8,-0.00016 C11.4024,-0.00016 14.4784,2.60642 15.2,6.30002 L15.99992,6.30002 L14.4,8.99984 L11.2,6.30002 L12.8,6.30002 C12.7258931,6.1339949 12.6511176,5.970511 12.5751681,5.8100679 L12.3746885,5.40002 C11.4364621,3.54670125 10.263197,2.70002 7.99592,2.70002 C5.59091767,2.70002 4.52574301,3.54670125 3.61754323,5.40002 C3.38880484,5.88875877 3.24962376,6.18875877 3.2,6.30002 Z" id="Fill-1"></path>
        </g>
    </g>
</svg>