<?xml version="1.0" encoding="UTF-8"?>
<svg viewBox="0 0 16 16" version="1.1" xmlns="http://www.w3.org/2000/svg" xmlns:xlink="http://www.w3.org/1999/xlink">
    <!-- Generator: Sketch 52.6 (67491) - http://www.bohemiancoding.com/sketch -->
    <title>basic shapes-left right ribbon</title>
    <desc>Created with Sketch.</desc>
    <g id="basic-shapes-left-right-ribbon" stroke="none" stroke-width="1" fill="none" fill-rule="evenodd">
        <g id="3.54" transform="translate(0.000000, 1.000000)" fill="#767676" fill-rule="nonzero">
            <path d="M8.01515851,4.70328331 L7.34732278,4.70328331 C7.3388605,4.18857828 7.3255596,3.57057886 7.3074201,2.84928506 C7.60890314,2.86079617 7.82570124,2.91009688 7.95781441,2.99718717 C8.3256891,3.2396938 8.61059044,3.73290255 8.94432753,4.73446269 C9.03037851,4.99270556 9.10423836,5.3237477 9.14030728,5.63027053 L10.7804176,5.63027053 L10.7804176,2.79374848 L16,7.94773859 L10.7804176,13 L10.7804176,10.293496 L8.7407373,10.293496 C8.40922104,10.293496 7.80121454,10.1128325 7.58184713,9.88352599 C7.33230605,9.62267869 7.32011825,8.98018871 7.32011825,8.42062428 L7.32007551,8.4112322 L7.3074201,8.4112322 L7.3074201,7.48424498 L5.58760736,7.48424498 L5.58760736,10.262604 L8.8817842e-16,5.16677692 L5.58760736,0 L5.58760736,2.84930887 L6.57533481,2.84930887 C6.79645236,2.84930887 6.83812862,2.84930887 7.3074201,2.84930887 C7.60059256,2.84930887 8.01515851,3.18728901 8.01515851,3.87724424 C8.01515851,4.16202537 8.01515851,4.46619744 8.01515851,4.70328429 Z M7.3074201,6.55725776 L7.3074201,4.70328331 L7.3074201,4.18083281 C7.3074201,3.82841014 7.11284344,3.77629609 6.95835409,3.77629609 C6.54494964,3.77629609 6.25672659,3.77629609 5.84010122,3.77629609 L4.72833065,3.77629609 L4.72833065,1.93035584 L1.23266539,5.10705568 L4.72833065,8.41270325 L4.72833065,6.55725776 L7.3074201,6.55725776 Z M8.16711658,6.55725776 L8.16711658,7.8933048 C8.17598739,8.80616895 8.17598739,9.28780716 8.16711658,9.33821942 L11.6059025,9.33821942 L11.6059025,10.7287003 L14.7923757,7.94773859 L11.6059025,5.16677692 L11.6059025,6.55725776 L8.16711658,6.55725776 Z" id="合并形状"></path>
        </g>
    </g>
</svg>