<?xml version="1.0" encoding="UTF-8"?>
<svg viewBox="0 0 16 16" version="1.1" xmlns="http://www.w3.org/2000/svg" xmlns:xlink="http://www.w3.org/1999/xlink">
    <!-- Generator: Sketch 52.6 (67491) - http://www.bohemiancoding.com/sketch -->
    <title>basic shapes-no symbol</title>
    <desc>Created with Sketch.</desc>
    <g id="basic-shapes-no-symbol" stroke="none" stroke-width="1" fill="none" fill-rule="evenodd">
        <g id="3.25" fill="#767676" fill-rule="nonzero">
            <path d="M8,16 C3.581722,16 0,12.418278 0,8 C0,3.581722 3.581722,0 8,0 C12.418278,0 16,3.581722 16,8 C16,12.418278 12.418278,16 8,16 Z M8,15 C11.8659932,15 15,11.8659932 15,8 C15,4.13400675 11.8659932,1 8,1 C4.13400675,1 1,4.13400675 1,8 C1,11.8659932 4.13400675,15 8,15 Z" id="Combined-Shape"></path>
            <path d="M8,3 C10.7614237,3 13,5.23857625 13,8 C13,8.83445195 12.795587,9.6211607 12.4341038,10.3127835 L5.68721651,3.56589617 C6.3788393,3.20441297 7.16554805,3 8,3 Z M11.9760118,8.51062513 C12.1269798,7.10420134 11.6971077,5.95629517 10.6863955,5.06690662 C9.67568323,4.17751808 8.61355141,3.84418474 7.5,4.06690662 L11.9760118,8.51062513 Z M10.3127835,12.4341038 C9.6211607,12.795587 8.83445195,13 8,13 C5.23857625,13 3,10.7614237 3,8 C3,7.16554805 3.20441297,6.3788393 3.56589617,5.68721651 L10.3127835,12.4341038 Z M4,7.55628149 C3.84903202,8.96270528 4.27890414,10.1106115 5.28961636,11 C6.30032859,11.8893885 7.36246041,12.2227219 8.47601182,12 L4,7.55628149 Z" id="形状"></path>
        </g>
    </g>
</svg>