<?xml version="1.0" encoding="UTF-8"?>
<svg viewBox="0 0 16 16" version="1.1" xmlns="http://www.w3.org/2000/svg" xmlns:xlink="http://www.w3.org/1999/xlink">
    <!-- Generator: Sketch 52.6 (67491) - http://www.bohemiancoding.com/sketch -->
    <title>basic shapes-plaque tabs</title>
    <desc>Created with Sketch.</desc>
    <g id="basic-shapes-plaque-tabs" stroke="none" stroke-width="1" fill="none" fill-rule="evenodd">
        <g id="3.69" fill="#767676" fill-rule="nonzero">
            <path d="M15,4 C13.3431458,4 12,2.65685425 12,1 L12,-1.18793864e-12 L16,-1.18793864e-12 L16,1 L16,4 L15,4 Z M15,3 L15,1 L13,1 C13,2.1045695 13.8954305,3 15,3 Z M1,4 L4.4408921e-15,4 L4.4408921e-15,1 L4.4408921e-15,-1.18793864e-12 L4,-1.18793864e-12 L4,1 C4,2.65685425 2.65685425,4 1,4 Z M1,3 C2.1045695,3 3,2.1045695 3,1 L1,1 L1,3 Z M15,12 L16,12 L16,15 L16,16 L12,16 L12,15 C12,13.3431458 13.3431458,12 15,12 Z M15,13 C13.8954305,13 13,13.8954305 13,15 L15,15 L15,13 Z M1,12 C2.65685425,12 4,13.3431458 4,15 L4,16 L4.4408921e-15,16 L4.4408921e-15,15 L4.4408921e-15,12 L1,12 Z M1,13 L1,15 L3,15 C3,13.8954305 2.1045695,13 1,13 Z" id="合并形状"></path>
        </g>
    </g>
</svg>