<?xml version="1.0" encoding="UTF-8"?>
<svg viewBox="0 0 16 16" version="1.1" xmlns="http://www.w3.org/2000/svg" xmlns:xlink="http://www.w3.org/1999/xlink">
    <!-- Generator: Sketch 52.6 (67491) - http://www.bohemiancoding.com/sketch -->
    <title>basic shapes-swoosh arrow</title>
    <desc>Created with Sketch.</desc>
    <g id="basic-shapes-swoosh-arrow" stroke="none" stroke-width="1" fill="none" fill-rule="evenodd">
        <g id="3.60" fill="#767676" fill-rule="nonzero">
            <path d="M3.37943358,9.98474965 C4.5440487,8.72153322 5.94274072,7.72575379 7.75048762,6.94579031 C7.98955536,6.84275296 8.23845641,6.74613427 8.49620092,6.65567023 C9.32373148,6.36522078 10.2064282,6.14894342 11.0885637,5.99512024 C11.3969931,5.9413376 11.6836214,5.89914433 11.9413676,5.86720529 C12.0973985,5.84787047 12.210178,5.83617153 12.2725881,5.83079975 L12.6677382,5.79678832 L12.8665816,7.48712909 L14.8016234,3.80571159 L12.0948993,1.76079658 L12.2550564,3.42901003 L11.8764403,3.48806236 C11.8186233,3.49708001 11.6925099,3.52348457 11.5017694,3.57416224 C11.1750195,3.66097612 10.791016,3.78584152 10.3534144,3.95566585 C9.09156058,4.44536583 7.65955744,5.19784077 6.08670946,6.26863211 C4.91432259,7.06695331 3.34053682,8.90800612 2.39564601,10.5306007 C2.14140836,10.9671257 1.92071671,11.3977298 1.73108328,11.8174184 C2.21577237,11.2631415 2.76467839,10.6516576 3.37943358,9.98474965 Z M0,13.6798081 C0.0108778348,13.6246826 0.0334759749,13.5268585 0.0700232262,13.3904751 C0.12969496,13.1677981 0.207768703,12.9149148 0.306487759,12.6359708 C0.586973554,11.8434203 0.976926684,10.9969353 1.49445069,10.1299396 C2.52020183,8.41128878 4.21145062,6.4808974 5.52750489,5.60652236 C7.19222857,4.50072004 8.71657108,3.71918604 10.0694191,3.20692978 C10.6321131,2.99386555 11.08563,2.85507243 11.4200153,2.77281815 L11.1471811,0 L16,3.5771949 L12.4357501,10.1934175 L12.0118501,6.67745843 C11.7862055,6.70616584 11.5389043,6.74256331 11.2749335,6.78747503 C10.4134724,6.93404309 9.55258658,7.13985113 8.75286505,7.41371993 C8.50663187,7.49804376 8.26967168,7.58779223 8.04324674,7.68300935 C6.29914471,8.41722864 4.96207264,9.34600918 3.84714123,10.5259514 C2.91308692,11.5146252 2.1296339,12.3793272 1.49121271,13.1140845 C1.26830856,13.3706244 1.0795743,13.5924379 0.924313816,13.7787784 C0.831864558,13.8897342 0.771497076,13.9637236 0.742515268,14 L0.247154104,14 L0,13.6798081 Z" id="Fill-1"></path>
        </g>
    </g>
</svg>