<?xml version="1.0" encoding="UTF-8"?>
<svg viewBox="0 0 16 16" version="1.1" xmlns="http://www.w3.org/2000/svg" xmlns:xlink="http://www.w3.org/1999/xlink">
    <!-- Generator: Sketch 52.6 (67491) - http://www.bohemiancoding.com/sketch -->
    <title>tab strip</title>
    <desc>Created with Sketch.</desc>
    <g id="tab-strip" stroke="none" stroke-width="1" fill="none" fill-rule="evenodd">
        <g id="TabStrip" transform="translate(0.000000, 2.000000)">
            <path d="M15,4.27172425 C14.6821953,3.96939569 14.1816979,3.92962404 13.8162081,4.17648993 L13.4761848,4.40918891 L13.403786,4.02359791 C13.3177371,3.57676275 12.9211533,3.25 12.47,3.25 L11.498,3.25 C11.0462479,3.25 10.6508164,3.57735008 10.5655341,4.02016212 L10.4942069,4.40090291 L10.1875681,4.19105729 C9.81386218,3.93536377 9.29972101,3.98295216 8.97966991,4.30300325 L8.29166991,4.99100325 C7.97268791,5.31329367 7.92525738,5.82479944 8.17888014,6.19699908 L8.39320025,6.51035595 L8.02441946,6.5795183 C7.58016532,6.66178561 7.25,7.06022874 7.25,7.51266667 L7.25,8 L0,8 L4.8985872e-16,-8.8817842e-16 L8,0 L15,0 L15,4.27172425 Z" id="合并形状" fill="#FFFFFF"></path>
            <path d="M15,4.27172425 C14.7328562,4.01758949 14.3366227,3.9489758 14,4.08018604 L14,1 L8,1 L8,6.58438191 C7.56812021,6.67647498 7.25,7.06855835 7.25,7.51266667 L7.25,8 L0,8 L4.8985872e-16,-8.8817842e-16 L8,0 L15,0 L15,4.27172425 Z M7,7 L7,1 L1,1 L1,7 L7,7 Z" id="合并形状" fill="#666666" fill-rule="nonzero"></path>
            <path d="M10,4.09196784 L10,3 L10.9110505,3.45552523 C10.7364321,3.59344233 10.6095932,3.79139365 10.5655341,4.02016212 L10.4942069,4.40090291 L10.1875681,4.19105729 C10.1281476,4.15040119 10.0651767,4.11741266 10,4.09196784 Z M3,4 L5,3 L5,5 L3,4 Z" id="合并形状" fill="#367FC9"></path>
            <path d="M12,9.66866667 C11.0786667,9.66866667 10.3313333,8.92133333 10.3313333,7.99933333 C10.3313333,7.07866667 11.0786667,6.33133333 12,6.33133333 C12.922,6.33133333 13.6686667,7.07866667 13.6686667,7.99933333 C13.6686667,8.92133333 12.9213333,9.66866667 12,9.66866667 M15.8373333,7.31666667 L14.874,7.13533333 C14.8153333,6.94066667 14.738,6.754 14.6433333,6.578 L15.2006667,5.76266667 C15.2526667,5.68733333 15.2413333,5.574 15.1773333,5.50933333 L14.4893333,4.82133333 C14.4253333,4.75666667 14.312,4.74666667 14.236,4.798 L13.4206667,5.356 C13.2393333,5.258 13.0466667,5.18 12.8466667,5.12066667 L12.6666667,4.162 C12.6493333,4.072 12.562,4 12.47,4 L11.498,4 C11.406,4 11.3193333,4.072 11.302,4.162 L11.1206667,5.13 C10.928,5.18933333 10.7426667,5.266 10.5686667,5.36066667 L9.764,4.81 C9.688,4.758 9.57466667,4.76866667 9.51,4.83333333 L8.822,5.52133333 C8.758,5.586 8.74733333,5.69933333 8.79866667,5.77466667 L9.35266667,6.58466667 C9.26,6.75933333 9.184,6.94333333 9.126,7.136 L8.16266667,7.31666667 C8.07266667,7.33333333 8,7.42133333 8,7.51266667 L8,8.48533333 C8,8.576 8.07266667,8.664 8.16266667,8.68133333 L9.12533333,8.86133333 C9.184,9.058 9.262,9.24666667 9.35733333,9.424 L8.80933333,10.2253333 C8.758,10.3006667 8.768,10.414 8.83333333,10.4786667 L9.52066667,11.166 C9.58533333,11.2313333 9.69866667,11.2413333 9.774,11.19 L10.5746667,10.642 C10.7466667,10.7353333 10.93,10.8106667 11.1206667,10.8693333 L11.302,11.8373333 C11.3193333,11.9273333 11.4066667,12 11.498,12 L12.4706667,12 C12.5626667,12 12.65,11.9273333 12.6666667,11.8373333 L12.8466667,10.878 C13.0446667,10.82 13.236,10.7426667 13.4153333,10.6466667 L14.2266667,11.202 C14.302,11.2533333 14.4153333,11.2426667 14.48,11.178 L15.1673333,10.4906667 C15.2326667,10.426 15.2426667,10.3126667 15.1906667,10.2373333 L14.6393333,9.43133333 C14.7366667,9.25133333 14.8153333,9.06066667 14.8746667,8.86133333 L15.8373333,8.68133333 C15.9273333,8.664 16,8.576 16,8.48533333 L16,7.51266667 C16,7.42133333 15.9273333,7.33333333 15.8373333,7.31666667" id="Fill-1" fill="#367FC9"></path>
        </g>
    </g>
</svg>