<svg viewBox="0 0 1100 1100" version="1.1"
    xmlns="http://www.w3.org/2000/svg" p-id="4830" width="180" height="180">
    <path transform="translate(160,160)" d="M505.357576 545.636364a24.242424 24.242424 0 0 1-7.2 17.333333l-0.860606 0.8a28.09697 28.09697 0 0 1-37.721212 0.763636l-39.89091-37.890909v187.878788h-54.751515V527.078788l-39.030303 37.115151a28.133333 28.133333 0 0 1-37.684848 0.763637l-0.89697-0.763637a24.472727 24.472727 0 0 1-0.909091-35.454545l106.157576-100.836364 104.763636 99.624243a24.145455 24.145455 0 0 1 8.060606 18.181818m0-285.090909a24.242424 24.242424 0 0 1-7.2 17.369697l-106.169697 100.739394-104.763636-99.527273a24.472727 24.472727 0 0 1-0.909091-35.454545l0.909091-0.763637a27.878788 27.878788 0 0 1 37.418182-0.8l39.890909 37.927273V92.581818h55.115151v187.381818l39.078788-37.078788a27.709091 27.709091 0 0 1 37.333334-0.8l0.896969 0.8h0.412122a23.030303 23.030303 0 0 1 7.951515 17.733334m300.060606 484.254545c-2.969697 34.654545-32.727273 61.248485-70.012121 61.248485H70.363636C31.078788 806.121212 0 776.654545 0 739.139394V515.042424c0-37.575758 30.921212-66.993939 70.412121-66.993939h70.472727v52.387879H70.412121a16.254545 16.254545 0 0 0-11.030303 4.024242 15.6 15.6 0 0 0-4.727273 10.472727v224.242425a15.006061 15.006061 0 0 0 4.630303 10.424242 14.278788 14.278788 0 0 0 10.678788 4.024242h664.424243c9.769697 0 15.260606-5.236364 15.260606-14.448484V515.042424a15.115152 15.115152 0 0 0-4.630303-10.436363 14.339394 14.339394 0 0 0-10.581818-4.024243h-70.351516v-52.036363h70.303031c39.478788 0 70.412121 29.466667 70.412121 66.993939v229.393939l0.606061-0.109091z m0.4-453.636363c0 37.478788-30.921212 66.945455-70.412121 66.945454h-70.424243v-52.375757h70.424243c9.69697 0 15.260606-5.248485 15.260606-14.460606V66.690909a16.690909 16.690909 0 0 0-15.260606-14.460606H70.812121c-9.69697 0-15.260606 5.236364-15.260606 14.460606v224.545455a16.666667 16.666667 0 0 0 15.260606 14.460606h72.59394v52.387878H70.872727c-39.515152 0-70.424242-29.418182-70.424242-66.993939V66.993939C0.448485 29.418182 31.369697 0 70.872727 0h664.581818c39.490909 0 70.412121 29.466667 70.412122 66.993939v224.242425z m0 0" fill="#3D84CB" p-id="4831"></path>
</svg>