<?xml version="1.0" encoding="UTF-8"?>
<svg viewBox="0 0 16 16" version="1.1" xmlns="http://www.w3.org/2000/svg" xmlns:xlink="http://www.w3.org/1999/xlink">
    <!-- Generator: Sketch 52.6 (67491) - http://www.bohemiancoding.com/sketch -->
    <title>equation shapes-divide</title>
    <desc>Created with Sketch.</desc>
    <g id="equation-shapes-divide" stroke="none" stroke-width="1" fill="none" fill-rule="evenodd">
        <g id="5.4" transform="translate(1.000000, 2.000000)" fill="#767676" fill-rule="nonzero">
            <path d="M1,5 L1,7 L12,7 L12,5 L1,5 Z M0,4 L13,4 L13,8 L0,8 L0,4 Z" id="Rectangle-106"></path>
            <path d="M6.5,3 C5.67157288,3 5,2.32842712 5,1.5 C5,0.671572875 5.67157288,0 6.5,0 C7.32842712,0 8,0.671572875 8,1.5 C8,2.32842712 7.32842712,3 6.5,3 Z M6.5,2 C6.77614237,2 7,1.77614237 7,1.5 C7,1.22385763 6.77614237,1 6.5,1 C6.22385763,1 6,1.22385763 6,1.5 C6,1.77614237 6.22385763,2 6.5,2 Z" id="椭圆形"></path>
            <path d="M6.5,12 C5.67157288,12 5,11.3284271 5,10.5 C5,9.67157288 5.67157288,9 6.5,9 C7.32842712,9 8,9.67157288 8,10.5 C8,11.3284271 7.32842712,12 6.5,12 Z M6.5,11 C6.77614237,11 7,10.7761424 7,10.5 C7,10.2238576 6.77614237,10 6.5,10 C6.22385763,10 6,10.2238576 6,10.5 C6,10.7761424 6.22385763,11 6.5,11 Z" id="椭圆形-copy"></path>
        </g>
    </g>
</svg>