<?xml version="1.0" encoding="UTF-8"?>
<svg viewBox="0 0 16 16" version="1.1" xmlns="http://www.w3.org/2000/svg" xmlns:xlink="http://www.w3.org/1999/xlink">
    <!-- Generator: Sketch 52.6 (67491) - http://www.bohemiancoding.com/sketch -->
    <title>equation shapes-not equal</title>
    <desc>Created with Sketch.</desc>
    <g id="equation-shapes-not-equal" stroke="none" stroke-width="1" fill="none" fill-rule="evenodd">
        <g id="5.6" transform="translate(1.000000, 1.000000)" fill="#767676">
            <g id="Group-18">
                <path d="M4,9 L1,9 L1,11 L2.66666667,11 L4,9 Z M4.66666667,8 L5.33333333,7 L0,7 L0,6 L0,4 L0,3 L8,3 L10,0 L14,0 L12,3 L14,3 L14,4 L14,6 L14,7 L9.33333333,7 L8.66666667,8 L14,8 L14,9 L14,11 L14,12 L6,12 L4,15 L0,15 L2,12 L0,12 L0,11 L1.11022302e-16,9 L0,8 L4.66666667,8 Z M6.66666667,11 L13,11 L13,9 L8,9 L6.66666667,11 Z M10,6 L13,6 L13,4 L11.3333333,4 L10,6 Z M7.33333333,4 L1,4 L1,6 L6,6 L7.33333333,4 Z M10.5351838,1 L1.86851709,14 L3.46481624,14 L12.1314829,1 L10.5351838,1 Z" id="合并形状"></path>
            </g>
        </g>
    </g>
</svg>