<?xml version="1.0" encoding="UTF-8"?>
<svg viewBox="0 0 16 16" version="1.1" xmlns="http://www.w3.org/2000/svg" xmlns:xlink="http://www.w3.org/1999/xlink">
    <!-- Generator: Sketch 52.6 (67491) - http://www.bohemiancoding.com/sketch -->
    <title>scroll bars</title>
    <desc>Created with Sketch.</desc>
    <g id="scroll-bars" stroke="none" stroke-width="1" fill="none" fill-rule="evenodd">
        <g id="ScrollBars" transform="translate(2.000000, 0.000000)">
            <path d="M4.29410744,15 L0,15 L0,8 L0,0 L8,0 L8,7.25 L7.498,7.25 C7.04624786,7.25 6.65081642,7.57735008 6.5655341,8.02016212 L6.4942069,8.40090291 L6.18756808,8.19105729 C5.81386218,7.93536377 5.29972101,7.98295216 4.97966991,8.30300325 L4.29166991,8.99100325 C3.97268791,9.31329367 3.92525738,9.82479944 4.17888014,10.1969991 L4.39320025,10.510356 L4.02441946,10.5795183 C3.58016532,10.6617856 3.25,11.0602287 3.25,11.5126667 L3.25,12.4853333 C3.25,12.9362104 3.57846666,13.3326036 4.02082879,13.4177992 L4.40397434,13.4894445 L4.19025184,13.8019681 C3.93799716,14.1721582 3.98156805,14.6794907 4.29410744,15 Z" id="合并形状" fill="#FFFFFF"></path>
            <path d="M4.29410744,15 L0,15 L0,8 L0,0 L8,0 L8,7.25 L7.498,7.25 C7.05313186,7.25 6.66288103,7.56744948 6.56964798,8 L1,8 L1,14 L4.08751679,14 C3.96042923,14.3384241 4.03442773,14.7336983 4.29410744,15 Z M1,7 L7,7 L7,1 L1,1 L1,7 Z" id="合并形状" fill="#666666" fill-rule="nonzero"></path>
            <path d="M3.46009299,10.920186 L3,10 L4.07671509,10 C4.10243326,10.0685406 4.13644221,10.13472 4.17888014,10.1969991 L4.39320025,10.510356 L4.02441946,10.5795183 C3.79659112,10.6217077 3.59876792,10.7470508 3.46009299,10.920186 Z M4,3 L5,5 L3,5 L4,3 Z" id="合并形状" fill="#367FC9"></path>
            <path d="M8,13.6686667 C7.07866667,13.6686667 6.33133333,12.9213333 6.33133333,11.9993333 C6.33133333,11.0786667 7.07866667,10.3313333 8,10.3313333 C8.922,10.3313333 9.66866667,11.0786667 9.66866667,11.9993333 C9.66866667,12.9213333 8.92133333,13.6686667 8,13.6686667 M11.8373333,11.3166667 L10.874,11.1353333 C10.8153333,10.9406667 10.738,10.754 10.6433333,10.578 L11.2006667,9.76266667 C11.2526667,9.68733333 11.2413333,9.574 11.1773333,9.50933333 L10.4893333,8.82133333 C10.4253333,8.75666667 10.312,8.74666667 10.236,8.798 L9.42066667,9.356 C9.23933333,9.258 9.04666667,9.18 8.84666667,9.12066667 L8.66666667,8.162 C8.64933333,8.072 8.562,8 8.47,8 L7.498,8 C7.406,8 7.31933333,8.072 7.302,8.162 L7.12066667,9.13 C6.928,9.18933333 6.74266667,9.266 6.56866667,9.36066667 L5.764,8.81 C5.688,8.758 5.57466667,8.76866667 5.51,8.83333333 L4.822,9.52133333 C4.758,9.586 4.74733333,9.69933333 4.79866667,9.77466667 L5.35266667,10.5846667 C5.26,10.7593333 5.184,10.9433333 5.126,11.136 L4.16266667,11.3166667 C4.07266667,11.3333333 4,11.4213333 4,11.5126667 L4,12.4853333 C4,12.576 4.07266667,12.664 4.16266667,12.6813333 L5.12533333,12.8613333 C5.184,13.058 5.262,13.2466667 5.35733333,13.424 L4.80933333,14.2253333 C4.758,14.3006667 4.768,14.414 4.83333333,14.4786667 L5.52066667,15.166 C5.58533333,15.2313333 5.69866667,15.2413333 5.774,15.19 L6.57466667,14.642 C6.74666667,14.7353333 6.93,14.8106667 7.12066667,14.8693333 L7.302,15.8373333 C7.31933333,15.9273333 7.40666667,16 7.498,16 L8.47066667,16 C8.56266667,16 8.65,15.9273333 8.66666667,15.8373333 L8.84666667,14.878 C9.04466667,14.82 9.236,14.7426667 9.41533333,14.6466667 L10.2266667,15.202 C10.302,15.2533333 10.4153333,15.2426667 10.48,15.178 L11.1673333,14.4906667 C11.2326667,14.426 11.2426667,14.3126667 11.1906667,14.2373333 L10.6393333,13.4313333 C10.7366667,13.2513333 10.8153333,13.0606667 10.8746667,12.8613333 L11.8373333,12.6813333 C11.9273333,12.664 12,12.576 12,12.4853333 L12,11.5126667 C12,11.4213333 11.9273333,11.3333333 11.8373333,11.3166667" id="Fill-1" fill="#367FC9"></path>
        </g>
    </g>
</svg>