<?xml version="1.0" encoding="UTF-8"?>
<svg viewBox="0 0 16 16" version="1.1" xmlns="http://www.w3.org/2000/svg" xmlns:xlink="http://www.w3.org/1999/xlink">
    <!-- Generator: Sketch 52.6 (67491) - http://www.bohemiancoding.com/sketch -->
    <title>headers</title>
    <desc>Created with Sketch.</desc>
    <g id="headers" stroke="none" stroke-width="1" fill="none" fill-rule="evenodd">
        <g id="Headers" transform="translate(1.000000, 1.000000)">
            <g id="分组-3">
                <path d="M14,7.51336186 L12.6317707,6.5433288 L11.9653959,6.9399287 L11.7429842,6 L9.33674878,6 L9.07541656,6.98881957 L8.32293674,6.53624025 L7.78674554,6.9277883 C7.71267182,6.98187987 7.60305332,7.06255547 7.49247679,7.14520276 L7.48172991,7.15323974 C7.39844465,7.21555962 7.32864262,7.2686097 7.27441951,7.31109259 C7.22850391,7.34727967 7.22850391,7.34727967 7.17985711,7.38781237 C7.14463783,7.34662977 7.14463783,7.34662977 6.80582524,8.17171045 C6.85952681,8.52418499 6.85952681,8.52418499 6.8719553,8.53601932 C6.89095307,8.59244462 6.89095307,8.59244462 6.91519527,8.66270677 C6.94598759,8.75165864 6.98752734,8.87006595 7.03736961,9.01118453 L7.04011606,9.01895976 C7.04151241,9.02291242 7.04290871,9.02686439 7.04430476,9.03081511 L6.1559394,9.27524725 L5.97237297,11 L5.66666667,11 L5,13 L1,13 L1,11 L0,11 L0,0 L14,0 L14,7.51336186 Z M14,9.0508166 L14,9.07359954 L13.9880617,9.07092351 L14,9.0508166 Z" id="合并形状" fill="#FFFFFF"></path>
                <path d="M6.07880355,10 L5.97237297,11 L5.66666667,11 L5,13 L1,13 L1,11 L0,11 L0,0 L14,0 L14,7.51336186 L13,6.8043922 L13,1 L1,1 L1,10 L2,10 L2,12 L4.27924078,12 L4.94590745,10 L6.07880355,10 Z M14,9.0508166 L14,9.07359954 L13.9880617,9.07092351 L14,9.0508166 Z" id="合并形状" fill="#666666" fill-rule="nonzero"></path>
                <path d="M7.03341989,9 L5,9 L5,10 L4,10 L4,9 L1,9 L1,8 L4,8 L4,6 L1,6 L1,5 L4,5 L4,3 L1,3 L1,2 L4,2 L4,1 L5,1 L5,2 L9,2 L9,1 L10,1 L10,2 L13,2 L13,3 L10,3 L10,5 L13,5 L13,6 L10,6 L9.33674878,6 L9.07541656,6.98881957 L9,6.94346025 L9,6 L5,6 L5,8 L6.87635858,8 C6.85464061,8.05283465 6.83118176,8.10996194 6.80582524,8.17171045 C6.85952681,8.52418499 6.85952681,8.52418499 6.8719553,8.53601932 C6.89095307,8.59244462 6.89095307,8.59244462 6.91519527,8.66270677 C6.9451706,8.74929854 6.98533061,8.86380344 7.03341989,9 Z M9,5 L9,3 L5,3 L5,5 L9,5 Z" id="合并形状" fill="#BBBBBB"></path>
                <rect id="矩形" fill="#FFCA00" x="1" y="1" width="12" height="2"></rect>
            </g>
            <path d="M14,10.8675705 L13.0167206,11.1709841 L12.7610572,11.7865271 L13.2529666,12.7000363 L12.781014,13.2763588 L11.9444444,12.7599564 L11.1877023,13.0780777 L10.9126214,13.9910422 C10.9126214,13.9910422 10.2049622,14.0111972 10.1461704,13.9910422 C10.0868393,13.971432 9.89050701,13.2164387 9.89050701,13.2164387 L9.10194175,12.8394867 L8.23840345,13.2164387 C8.23840345,13.2164387 7.68824164,12.7801114 7.66828479,12.6804261 C7.64886731,12.5807408 8.14023732,11.8262922 8.21898598,11.8262922 C8.29773463,11.8262922 7.92394822,11.1911391 7.92394822,11.1911391 L7,10.7934875 L7.07820928,10.0586491 L7.9433657,9.82060283 L8.16019417,9.18490498 C8.16019417,9.18490498 7.80582524,8.19186539 7.80582524,8.17171045 C7.80582524,8.15210023 8.37648328,7.73538313 8.37648328,7.73538313 L9.10194175,8.17171045 L9.87055016,7.89389904 L10.1067961,7 L10.9519957,7 L11.1682848,7.91405399 L11.8171521,8.19186539 L12.5841424,7.73538313 L13.3117584,8.25124077 L12.781014,9.14513981 L13.1154261,9.90013316 L14,10.0984142 L14,10.8675705 Z M10.5231931,11.9341484 C11.3079827,11.9341484 11.9444444,11.2913691 11.9444444,10.4987895 C11.9444444,9.7062099 11.3079827,9.06343058 10.5231931,9.06343058 C9.73840345,9.06343058 9.10194175,9.7062099 9.10194175,10.4987895 C9.10194175,11.2913691 9.73840345,11.9341484 10.5231931,11.9341484 Z" id="Combined-Shape" fill="#367FC9" fill-rule="nonzero"></path>
        </g>
    </g>
</svg>