<?xml version="1.0" encoding="UTF-8"?>
<svg viewBox="0 0 16 16" version="1.1" xmlns="http://www.w3.org/2000/svg" xmlns:xlink="http://www.w3.org/1999/xlink">
    <!-- Generator: Sketch 52.6 (67491) - http://www.bohemiancoding.com/sketch -->
    <title>flowchart-stored data</title>
    <desc>Created with Sketch.</desc>
    <g id="flowchart-stored-data" stroke="none" stroke-width="1" fill="none" fill-rule="evenodd">
        <g id="6.20" transform="translate(0.000000, 2.000000)" fill="#767676" fill-rule="nonzero">
            <path d="M3.00101537,1 C1.65532964,2.70589851 1,4.36822001 1,6 C1,7.63178 1.65532964,9.2941015 3.001016,11 L14.027989,11 C12.997781,9.35737938 12.4736842,7.68848161 12.4736842,6 C12.4736842,4.31151839 12.997781,2.6426206 14.027989,0.999999937 L3.00101537,1 Z M2.52631579,0 L16,0 C14.3157895,2 13.4736842,4 13.4736842,6 C13.4736842,8 14.3157895,10 16,12 L2.52631579,12 C0.842105263,10 1.37504202e-16,8 0,6 C0,4 0.842105263,2 2.52631579,0 Z" id="Rectangle-99"></path>
        </g>
    </g>
</svg>