<?xml version="1.0" encoding="UTF-8"?>
<svg viewBox="0 0 16 16" version="1.1" xmlns="http://www.w3.org/2000/svg" xmlns:xlink="http://www.w3.org/1999/xlink">
    <!-- Generator: Sketch 52.6 (67491) - http://www.bohemiancoding.com/sketch -->
    <title>flowchart-sequential access storage</title>
    <desc>Created with Sketch.</desc>
    <g id="flowchart-sequential-access-storage" stroke="none" stroke-width="1" fill="none" fill-rule="evenodd">
        <g id="6.22" fill="#767676" fill-rule="nonzero">
            <path d="M15,14 L15,13 L11.4987423,13 L12.7009829,11.3994223 C13.5397768,10.2827117 14,8.92754403 14,7.5 C14,3.91014913 11.0898509,1 7.5,1 C3.91014913,1 1,3.91014913 1,7.5 C1,10.6051589 3.19437821,13.2600673 6.19893219,13.8699596 L6.83955925,14 L15,14 Z M13.7919844,11.5833968 C13.699461,11.7256717 13.6022427,11.8646126 13.5005493,12 L14.0000979,12 L14.7123705,12 L16,12 L16,15 L7.1833559,15 L6,14.8499728 C2.57663952,14.1550673 0,11.1284369 0,7.5 C0,3.35786438 3.35786438,0 7.5,0 C11.6421356,0 15,3.35786438 15,7.5 C15,8.76409171 14.6872685,9.95514106 14.1349534,11 C13.9320374,11.3788147 13.8845078,11.441122 13.7919844,11.5833968 Z" id="Combined-Shape"></path>
        </g>
    </g>
</svg>