<?xml version="1.0" encoding="UTF-8"?>
<svg viewBox="0 0 16 16" version="1.1" xmlns="http://www.w3.org/2000/svg" xmlns:xlink="http://www.w3.org/1999/xlink">
    <!-- Generator: Sketch 52.6 (67491) - http://www.bohemiancoding.com/sketch -->
    <title>flowchart-document</title>
    <desc>Created with Sketch.</desc>
    <g id="flowchart-document" stroke="none" stroke-width="1" fill="none" fill-rule="evenodd">
        <g id="6.7" transform="translate(0.000000, 1.000000)" fill="#767676" fill-rule="nonzero">
            <path d="M1,1 L1,11.1425262 C1.69343219,11.4758073 2.21285747,11.7337145 2.56154727,11.9180522 C4.25056882,12.810967 4.69654047,13 5.24852546,13 C6.77533182,13 7.6188227,12.7555072 9.0579505,12.0491109 C9.20268151,11.977895 9.20268151,11.977895 9.35092961,11.9048359 C9.76888703,11.6992003 10.1432654,11.4891051 10.7681937,11.1185529 C10.9544014,11.0079773 10.9544014,11.0079773 11.1438509,10.8955704 C11.8669914,10.4673119 12.3405871,10.2049735 12.8913663,9.942491 C13.5795071,9.61454666 14.2824427,9.32770294 15,9.08203797 L15,1 L1,1 Z M0,0 L16,0 L16,9.8108634 C15.0827287,10.0866111 14.1899207,10.4313966 13.321576,10.84522 C12.019059,11.465955 11.0176178,12.1993031 9.79239227,12.8021155 C8.56716674,13.4049279 7.43371411,14 5.24852546,14 C4.29380298,14 3.30034325,13.4397633 2.09418012,12.8021155 C1.67131499,12.5785645 0.973254954,12.235538 0,11.7730361 L0,0 Z" id="Rectangle-91"></path>
        </g>
    </g>
</svg>