<?xml version="1.0" encoding="UTF-8"?>
<svg viewBox="0 0 16 16" version="1.1" xmlns="http://www.w3.org/2000/svg" xmlns:xlink="http://www.w3.org/1999/xlink">
    <!-- Generator: Sketch 52.6 (67491) - http://www.bohemiancoding.com/sketch -->
    <title>flowchart-multidocument</title>
    <desc>Created with Sketch.</desc>
    <g id="flowchart-multidocument" stroke="none" stroke-width="1" fill="none" fill-rule="evenodd">
        <g id="6.8" transform="translate(0.000000, 2.000000)" fill="#767676">
            <path d="M2,4 L2,2 L3,2 L4,2 L4,0 L5,0 L16,0 L16,1 L16,9 L15,9 L14,9 L14,10 L13,10 L12,10 L12,10.9719271 C11.0746538,10.8733984 10.2863515,10.9571487 9.63509297,11.223178 C8.65820521,11.622222 8.26321335,11.8424091 7.3442942,12.2299314 C6.42537506,12.6174537 5.57528558,13 3.93639409,13 C3.22035223,13 2.47525743,12.6398478 1.57063509,12.2299314 C1.25348625,12.08622 0.729941216,11.865703 0,11.5683803 L0,4 L2,4 Z M3,4 L12,4 L12,9 L13,9 L13,3 L3,3 L3,4 Z M5,2 L14,2 L14,3 L14,8 L15,8 L15,1 L5,1 L5,2 Z M11,5 L1,5 L1,10.8980252 C1.42612571,11.0747677 1.75323136,11.2147962 1.98337336,11.3190817 C3.22633569,11.882312 3.55026369,12 3.93639409,12 C5.06153114,12 5.67538116,11.847489 6.73613241,11.4012004 C6.84434587,11.3555599 6.84434587,11.3555599 6.9557186,11.3085145 C7.30189833,11.1625252 7.49437611,11.0764532 7.99935889,10.8455506 L8.01870295,10.8367067 C8.51442504,10.6100962 8.81483626,10.4780276 9.25694073,10.2974346 C9.78263967,10.0826945 10.3643265,9.96425075 11,9.93772921 L11,5 Z" id="合并形状"></path>
        </g>
    </g>
</svg>