<?xml version="1.0" encoding="UTF-8"?>
<svg viewBox="0 0 16 16" version="1.1" xmlns="http://www.w3.org/2000/svg" xmlns:xlink="http://www.w3.org/1999/xlink">
    <!-- Generator: Sketch 52.6 (67491) - http://www.bohemiancoding.com/sketch -->
    <title>flowchart-alternate process</title>
    <desc>Created with Sketch.</desc>
    <g id="flowchart-alternate-process" stroke="none" stroke-width="1" fill="none" fill-rule="evenodd">
        <g id="6.2" transform="translate(0.000000, 2.000000)" fill="#767676" fill-rule="nonzero">
            <path d="M5,1 C2.790861,1 1,2.790861 1,5 L1,7 C1,9.209139 2.790861,11 5,11 L11,11 C13.209139,11 15,9.209139 15,7 L15,5 C15,2.790861 13.209139,1 11,1 L5,1 Z M5,0 L11,0 C13.7614237,-5.07265313e-16 16,2.23857625 16,5 L16,7 C16,9.76142375 13.7614237,12 11,12 L5,12 C2.23857625,12 3.38176876e-16,9.76142375 0,7 L0,5 C-3.38176876e-16,2.23857625 2.23857625,5.07265313e-16 5,0 Z" id="Rectangle-86-Copy"></path>
        </g>
    </g>
</svg>