<?xml version="1.0" encoding="UTF-8"?>
<svg viewBox="0 0 16 16" version="1.1" xmlns="http://www.w3.org/2000/svg" xmlns:xlink="http://www.w3.org/1999/xlink">
    <!-- Generator: Sketch 52.6 (67491) - http://www.bohemiancoding.com/sketch -->
    <title>flowchart-extract</title>
    <desc>Created with Sketch.</desc>
    <g id="flowchart-extract" stroke="none" stroke-width="1" fill="none" fill-rule="evenodd">
        <g id="6.18" transform="translate(8.000000, 8.000000) rotate(-180.000000) translate(-8.000000, -8.000000) translate(1.000000, 1.000000)" fill="#767676" fill-rule="nonzero">
            <path d="M7.95657335,1.59178833 C7.85306183,1.38476531 7.68519635,1.21689983 7.47817333,1.11338831 C6.94974725,0.849175279 6.3071863,1.06336226 6.04297327,1.59178833 L1.11293493,11.451865 C1.03866567,11.6004035 1,11.7641939 1,11.930265 C1,12.5210633 1.47893666,13 2.06973497,13 L11.9298116,13 C12.0958828,13 12.2596732,12.9613343 12.4082117,12.8870651 C12.9366377,12.622852 13.1508247,11.9802911 12.8866117,11.451865 L7.95657335,1.59178833 Z M8.85100054,1.14457474 L13.7810389,11.0046514 C14.2922412,12.027056 13.8778298,13.27029 12.8554253,13.7814923 C12.5680313,13.9251892 12.2511278,14 11.9298116,14 L2.06973497,14 C0.926651908,14 -1.32452549e-15,13.0733481 -1.55431223e-15,11.930265 C-1.55431223e-15,11.6089488 0.0748107602,11.2920454 0.218507734,11.0046514 L5.14854607,1.14457474 C5.65974836,0.122170171 6.90298235,-0.292241161 7.92538692,0.218961123 C8.32593735,0.419236339 8.65072532,0.744024307 8.85100054,1.14457474 Z" id="Triangle-6-Copy-2" transform="translate(7.000000, 7.000000) rotate(-180.000000) translate(-7.000000, -7.000000) "></path>
        </g>
    </g>
</svg>