<svg width="16" height="16" viewBox="0 0 16 16" fill="none" xmlns="http://www.w3.org/2000/svg">
<rect width="16" height="16" fill="rgb(0,0,0,0)"/>
<path fill-rule="evenodd" clip-rule="evenodd" d="M1 15H5V9H7V7H12V3.75L8.25 0H1V15Z" fill="#F1F1F1"/>
<path fill-rule="evenodd" clip-rule="evenodd" d="M7 1V5H11V7H12V3.75L8.25 0H1V15H5V14H2V1H7ZM8 1.5L10.5 4H8V1.5Z" fill="#666666"/>
<path fill-rule="evenodd" clip-rule="evenodd" d="M3 12V3V2H4H7V3L4 3L4 12H5V13H4H3V12ZM10 7V5H9V7H10Z" fill="#367FC9"/>
<path d="M8 8H13V11H8V8Z" fill="white"/>
<path fill-rule="evenodd" clip-rule="evenodd" d="M12 9H9V10H12V9ZM8 8V11H13V8H8Z" fill="#666666"/>
<path d="M6 10H15V14H6V10Z" fill="white"/>
<path fill-rule="evenodd" clip-rule="evenodd" d="M14 11H7V13H14V11ZM6 10V14H15V10H6Z" fill="#666666"/>
<path d="M8 12H13V16H8V12Z" fill="white"/>
<path fill-rule="evenodd" clip-rule="evenodd" d="M12 13H9V15H12V13ZM8 12V16H13V12H8Z" fill="#666666"/>
</svg>
