<?xml version="1.0" encoding="UTF-8"?>
<svg width="18px" height="18px" viewBox="0 0 18 18" version="1.1" xmlns="http://www.w3.org/2000/svg" xmlns:xlink="http://www.w3.org/1999/xlink">
    <title>Group Box Form Control</title>
    <g id="Group-Box-Form-Control" stroke="none" stroke-width="1" fill="none" fill-rule="evenodd">
        <rect id="矩形备份-15" fill="#666666" x="0" y="3" width="18" height="15"></rect>
        <rect id="矩形备份-16" fill="#FFFFFF" x="1" y="4" width="16" height="13"></rect>
        <rect id="矩形备份-17" fill="#FFFFFF" x="2" y="3" width="14" height="12"></rect>
        <path d="M3,0 L4,2 L5,0 L6,0 L4.5,3 L6,6 L5,6 L4,4 L3,6 L2,6 L3.5,3 L2,0 L3,0 Z" id="形状结合" fill="#666666"></path>
        <path d="M15,0 L12.5,5 L15,5 L15,6 L11,6 L13.5,1 L11,1 L11,0 L15,0 Z" id="形状结合" fill="#666666"></path>
        <path d="M6,0 L7,0 L8.5,2.25 L10,0 L11,0 L9,3 L9,6 L8,6 L8,3 L6,0 Z" id="形状结合" fill="#666666"></path>
    </g>
</svg>