<?xml version="1.0" encoding="UTF-8"?>
<svg width="28px" height="28px" viewBox="0 0 28 28" version="1.1" xmlns="http://www.w3.org/2000/svg" xmlns:xlink="http://www.w3.org/1999/xlink">
    <title>General</title>
    <g id="General" stroke="none" stroke-width="1" fill="none" fill-rule="evenodd">
        <path d="M24.2578125,15.1 C24.8649309,15.1 25.4240649,15.2444933 25.935091,15.5339412 C26.4441807,15.8222924 26.8337682,16.2154557 27.1034582,16.7138152 C27.3740186,17.2137828 27.509375,17.7446344 27.509375,18.3064085 C27.509375,18.837393 27.3814087,19.320996 27.1247585,19.7570171 C26.8683881,20.1925629 26.4882649,20.5380236 25.9857485,20.7947967 C26.6585094,21.1478712 27.1656483,21.4941508 27.5269092,22.0208488 C27.8915744,22.5525102 28.071875,23.2182599 28.071875,24.0166889 C28.071875,25.1003165 27.7168565,26.0192142 27.0054102,26.7728072 C26.295415,27.5248631 25.3975148,27.9 24.3125,27.9 C23.3360355,27.9 22.5246633,27.5778841 21.8793719,26.9313595 C21.3032868,26.3541735 20.9481911,25.6248416 20.812218,24.7443283 L20.812218,24.7443283 L22.0045415,24.3383066 C22.2233253,25.3071528 22.4857916,25.8438033 22.8314064,26.1916448 C23.2388389,26.6017023 23.7350818,26.8069426 24.3203125,26.8069426 C25.0109908,26.8069426 25.5946114,26.5417135 26.0706035,26.0099532 C26.542399,25.4828813 26.7796875,24.8304048 26.7796875,24.0514019 C26.7796875,23.3063234 26.5588232,22.6929176 26.1209891,22.2095673 C25.6796861,21.7223876 25.1187325,21.4781041 24.4375,21.4781041 C24.2469075,21.4781041 24.0237649,21.5065691 23.7681445,21.5642145 L23.7681445,21.5642145 L23.707398,20.4816936 C24.5003297,20.4825521 25.0302125,20.3013699 25.5039797,19.958152 C26.0073163,19.5935128 26.2640625,19.0333121 26.2640625,18.2716956 C26.2640625,17.6710899 26.0795635,17.1744742 25.7139274,16.7804444 C25.3460432,16.3839918 24.8715092,16.1843792 24.2890625,16.1843792 C23.7130698,16.1843792 23.233419,16.3860431 22.8495487,16.7880856 C22.5283569,17.1244824 22.302344,17.6029726 22.1761254,18.2262045 L22.1761254,18.2262045 L20.9353331,18.2002753 C21.1744497,17.1044437 21.529669,16.4305948 22.0530459,15.9361779 C22.6440143,15.3779096 23.3792758,15.1 24.2578125,15.1 Z M7.8609375,15.1226597 L7.8609375,27.6743658 L6.6546875,27.6743658 L6.6546875,17.5799329 C6.08670237,18.1542921 5.67230814,18.4835741 5.16799264,18.8127917 C4.76232941,19.077609 4.38755317,19.2931476 4.04356357,19.4592214 L4.04356357,19.4592214 L3.85177425,18.2463597 C4.80640673,17.7019874 5.37585155,17.267622 5.87514409,16.7718984 C6.38359897,16.2670781 6.76529457,15.7746505 7.02127676,15.2953497 L7.02127676,15.2953497 L7.8609375,15.1226597 Z M15.46875,15.1 C16.5361733,15.1 17.3827012,15.42603 18.0054949,16.0840914 C18.6286226,16.7425059 18.9390625,17.5588005 18.9390625,18.5320427 C18.9390625,19.0290983 18.8474246,19.5176544 18.6643739,19.9977517 C18.480061,20.4811595 18.1735728,20.989799 17.7461197,21.524328 C17.3132049,22.0656871 16.5935949,22.8083858 15.5880494,23.7526331 C14.7400921,24.5433834 14.1959742,25.0799776 13.9552002,25.3619685 C13.7308251,25.6247532 13.5423928,25.8888301 13.38974,26.1540803 L13.38974,26.1540803 L18.9546875,26.3692391 L18.9546875,27.6743658 L11.5877616,27.6743658 C11.6054439,27.2324829 11.6563049,26.9733345 11.7432167,26.7214749 C11.932669,26.1583888 12.236393,25.6040382 12.6536714,25.0580528 C13.0752821,24.5063987 13.6846758,23.8687925 14.4814054,23.1446862 C15.7346027,22.0030726 16.5805227,21.0981402 17.0209441,20.4312779 C17.4712768,19.7494086 17.69375,19.1043053 17.69375,18.4973298 C17.69375,17.8510044 17.4848955,17.3063288 17.0690662,16.8625338 C16.6519741,16.4173909 16.1086567,16.1930574 15.4375,16.1930574 C14.7287742,16.1930574 14.1630096,16.4311462 13.7381795,16.9030536 C13.3749566,17.3065268 13.16376,17.8429358 13.1093539,18.5145024 L13.1093539,18.5145024 L11.8638684,18.5740175 C12.0249548,17.3374378 12.3715824,16.5627513 12.9368858,16.0132976 C13.5654166,15.4023891 14.4102935,15.1 15.46875,15.1 Z" id="形状结合" fill="#666666" fill-rule="nonzero"></path>
        <path d="M9,0 C13.9705627,0 18,4.02943725 18,9 C18,10.67612 17.5418122,12.2452245 16.7438553,13.588895 C16.353493,13.4434653 15.9382419,13.3229808 15.498477,13.2259105 C16.2895228,12.0109589 16.75,10.5592546 16.75,9 C16.75,4.71979319 13.2802068,1.25 9,1.25 C4.71979319,1.25 1.25,4.71979319 1.25,9 C1.25,11.6474032 2.57743807,13.9847667 4.60303071,15.3828068 C4.29948077,15.6199397 3.94103321,15.8738014 3.52874174,16.1444902 C1.38277596,14.5006049 0,11.9117848 0,9 C0,4.02943725 4.02943725,0 9,0 Z" id="形状结合" fill="#367FC9" fill-rule="nonzero"></path>
        <path d="M9,4 L9,9 L13,9 L13,10 L8,10 L8,4 L9,4 Z" id="形状结合" fill="#666666"></path>
    </g>
</svg>