<?xml version="1.0" encoding="UTF-8"?>
<svg width="20px" height="20px" viewBox="0 0 20 20" version="1.1" xmlns="http://www.w3.org/2000/svg" xmlns:xlink="http://www.w3.org/1999/xlink">
    <title>Number</title>
    <g id="Number" stroke="none" stroke-width="1" fill="none" fill-rule="evenodd">
        <path d="M6.01542776,1 L6.01542776,19 L4.50240128,19 L4.50240128,4.39270347 C3.6444646,5.2035238 2.9380217,5.71868553 2.06128478,6.23392429 C1.30736953,6.67698349 0.620366695,7.02413171 0,7.27476438 L0,5.52371189 C1.45786252,4.78447769 2.40566644,4.13901281 3.23340505,3.39917564 C4.15374462,2.57657125 4.81577777,1.77592408 5.22340989,1 L6.01542776,1 Z M15.2695672,1 C16.7203178,1 17.871748,1.46430052 18.7184894,2.40683981 C19.5589854,3.34242713 19.9786251,4.50212152 19.9786251,5.8853055 C19.9786251,6.59198381 19.8547673,7.2865107 19.6077423,7.96904618 C19.3575509,8.66033045 18.9411023,9.38725076 18.3609189,10.1515697 C17.769647,10.9304963 16.7867254,11.9989389 15.4134798,13.3574361 C14.7598693,13.9995482 14.2380214,14.525622 13.8477881,14.9354842 L13.6071294,15.1915071 C13.4228265,15.3905093 13.2791352,15.5536317 13.1760303,15.6808447 C12.8258978,16.1128452 12.5393195,16.5473742 12.3157678,16.9839658 L12.1891957,17.2461646 L20,17.2461646 L20,19 L10,19 C10.0221582,18.4383677 10.0903256,18.0708209 10.2074302,17.7133114 C10.4645495,16.9082371 10.877076,16.1159618 11.4433565,15.3353895 C12.0187309,14.542282 12.8504713,13.625803 13.9377986,12.5847373 C15.6563623,10.9354674 16.8160413,9.62755349 17.4199907,8.6641801 C18.0452785,7.66676918 18.3516545,6.72248644 18.3516545,5.83527882 C18.3516545,4.88465054 18.0610143,4.08300305 17.4802781,3.43006379 C16.9042054,2.78236798 16.1542594,2.45367529 15.2268175,2.45367529 C14.247511,2.45367529 13.4667141,2.80264207 12.880013,3.48921211 C12.3771253,4.07770197 12.0827748,4.85891333 12.0051103,5.83735902 L11.9893076,6.10910135 L10.3797016,5.91565106 C10.586737,4.21003098 11.055799,3.0948709 11.8259553,2.30627439 C12.6808259,1.43093517 13.8303361,1 15.2695672,1 Z" id="å½¢çŠ¶ç»“åˆ" fill="#666666" fill-rule="nonzero"></path>
    </g>
</svg>