<?xml version="1.0" encoding="UTF-8"?>
<svg width="24px" height="24px" viewBox="0 0 24 24" version="1.1" xmlns="http://www.w3.org/2000/svg" xmlns:xlink="http://www.w3.org/1999/xlink">
    <title>Percentage</title>
    <g id="Percentage" stroke="none" stroke-width="1" fill="none" fill-rule="evenodd">
        <path d="M19,13 C21.7614237,13 24,15.4624339 24,18.5 C24,21.5375661 21.7614237,24 19,24 C16.2385763,24 14,21.5375661 14,18.5 C14,15.4624339 16.2385763,13 19,13 Z M20.2,0 L5.6,23.9952525 L4.39585161,24 L19,0 L20.2,0 Z M19,14.2 C16.9225887,14.2 15.2,16.1059285 15.2,18.5 C15.2,20.8940715 16.9225887,22.8 19,22.8 C21.0774113,22.8 22.8,20.8940715 22.8,18.5 C22.8,16.1059285 21.0774113,14.2 19,14.2 Z M5,0 C7.76142375,0 10,2.46243388 10,5.5 C10,8.53756612 7.76142375,11 5,11 C2.23857625,11 0,8.53756612 0,5.5 C0,2.46243388 2.23857625,0 5,0 Z M5,1.2 C2.92258869,1.2 1.2,3.10592854 1.2,5.5 C1.2,7.89407146 2.92258869,9.8 5,9.8 C7.07741131,9.8 8.8,7.89407146 8.8,5.5 C8.8,3.10592854 7.07741131,1.2 5,1.2 Z" id="形状结合" fill="#666666" fill-rule="nonzero"></path>
    </g>
</svg>