<?xml version="1.0" encoding="UTF-8"?>
<svg width="28px" height="28px" viewBox="0 0 28 28" version="1.1" xmlns="http://www.w3.org/2000/svg" xmlns:xlink="http://www.w3.org/1999/xlink">
    <title>Scientific</title>
    <g id="Scientific" stroke="none" stroke-width="1" fill="none" fill-rule="evenodd">
        <path d="M15.0320313,7.05 C15.8996973,7.05 16.6617345,7.22182044 17.3165589,7.57130534 C17.9676449,7.91879509 18.5045148,8.42068106 18.928711,9.07525967 C19.3660571,9.75013004 19.707521,10.5726735 19.9563038,11.5414183 C20.2093784,12.5268756 20.3335938,13.8557615 20.3335938,15.5273438 C20.3335938,17.5032328 20.1339765,19.0989209 19.7279849,20.3130656 C19.3342262,21.4906268 18.7493437,22.4041096 17.9648674,23.0473058 C17.1908481,23.6819282 16.2116006,23.9929688 15.0320313,23.9929688 C13.4774391,23.9929688 12.2528548,23.4409519 11.3648231,22.3254092 C10.2622286,20.9338589 9.73046875,18.6618413 9.73046875,15.5273438 C9.73046875,13.5362993 9.93187421,11.9330471 10.3416662,10.7189905 C10.7391259,9.54146973 11.3257935,8.62980848 12.1102541,7.99034302 C12.8842591,7.35940055 13.8597576,7.05 15.0320313,7.05 Z M5.728125,7.05 L5.728125,23.7 L4.21875,23.7 L4.21875,9.86785531 C3.33719898,10.7239604 2.64439296,11.2384527 1.76870424,11.7530755 C1.23397676,12.0673229 0.73550509,12.3297781 0.273109594,12.5400478 L0,12.6599443 L0,11.2464286 C1.36950176,10.5435141 2.23486117,9.94878069 2.99367271,9.2705509 C3.84457516,8.51000977 4.46196567,7.76858088 4.85111908,7.05 L5.728125,7.05 Z M15.0085938,8.19609375 C13.93843,8.19609375 13.082285,8.64673463 12.4430615,9.55374097 C11.6938355,10.6332573 11.2984375,12.6174782 11.2984375,15.5273438 C11.2984375,18.4421559 11.6632609,20.369098 12.3437236,21.3314092 C13.0700609,22.3585963 13.9703741,22.8585937 15.0320313,22.8585937 C16.0937282,22.8585937 16.9942499,22.3566832 17.7206791,21.3250677 C18.4011064,20.3587804 18.765625,18.4338193 18.765625,15.5273438 C18.765625,12.6041912 18.4004942,10.6752697 17.7199958,9.71693476 C16.9943791,8.69506035 16.086833,8.19609375 15.0085938,8.19609375 Z M24.9101562,2.0875 C25.8266717,2.0875 26.5548117,2.33692839 27.0899773,2.8459884 C27.6197929,3.34995935 27.8841797,3.97468941 27.8841797,4.71972656 C27.8841797,5.10096947 27.8059103,5.47563648 27.6499633,5.84384475 C27.4913038,6.21845739 27.2269448,6.61219873 26.8590471,7.02635902 C26.4816505,7.45121262 25.8541807,8.03388306 24.9777732,8.77476477 C24.2328697,9.40011586 23.7550193,9.82465039 23.5435098,10.047655 C23.312487,10.2912334 23.1243866,10.5363094 22.9787257,10.7825189 L22.8774298,10.9673828 L27.8978516,10.9673828 L27.8978516,11.85 L21.5806215,11.85 C21.5983243,11.5581624 21.6397141,11.3758848 21.7078904,11.1980208 C21.8709384,10.7617573 22.1327107,10.3325439 22.4917911,9.90957809 C22.8586616,9.47743609 23.3890945,8.97817571 24.0824224,8.41090728 C25.1850626,7.50665008 25.9287731,6.78926751 26.3162565,6.26109073 C26.7220192,5.7079974 26.9195313,5.18413167 26.9195313,4.69238281 C26.9195313,4.16193917 26.7297008,3.71465487 26.3505059,3.35033039 C25.9753061,2.98984428 25.4871094,2.80605469 24.8828125,2.80605469 C24.24491,2.80605469 23.7368567,3.00120654 23.3548715,3.3831918 C23.0444318,3.69363145 22.8552643,4.10025921 22.7933329,4.60589751 L22.7760844,4.80015851 L21.8271815,4.70270362 C21.9719376,3.77988791 22.262591,3.20331274 22.7325648,2.79208572 C23.273148,2.31907536 24.0004163,2.0875 24.9101562,2.0875 Z" id="形状结合" fill="#666666" fill-rule="nonzero"></path>
    </g>
</svg>