<?xml version="1.0" encoding="UTF-8"?>
<svg width="28px" height="28px" viewBox="0 0 28 28" version="1.1" xmlns="http://www.w3.org/2000/svg" xmlns:xlink="http://www.w3.org/1999/xlink">
    <title>Short Data</title>
    <g id="Short-Data" stroke="none" stroke-width="1" fill="none" fill-rule="evenodd">
        <g id="编组" fill="#666666" fill-rule="nonzero">
            <path d="M6,0 L6,2 L22,2 L22,0 L23,0 L23,2 L28,2 L28,28 L0,28 L0,2 L5,2 L5,0 L6,0 Z M27,8 L1,8 L1,27 L27,27 L27,8 Z M11,16 L11,18 L9,18 L9,16 L11,16 Z M5,3 L1,3 L1,7 L27,7 L27,3 L23,3 L23,5 L22,5 L22,3 L6,3 L6,5 L5,5 L5,3 Z" id="形状结合"></path>
        </g>
    </g>
</svg>