<?xml version="1.0" encoding="UTF-8"?>
<svg width="28px" height="28px" viewBox="0 0 28 28" version="1.1" xmlns="http://www.w3.org/2000/svg" xmlns:xlink="http://www.w3.org/1999/xlink">
    <title>Time</title>
    <g id="Time" stroke="none" stroke-width="1" fill="none" fill-rule="evenodd">
        <g id="编组" fill="#666666" fill-rule="nonzero">
            <path d="M14,0 C21.7319865,0 28,6.2680135 28,14 C28,21.7319865 21.7319865,28 14,28 C6.2680135,28 0,21.7319865 0,14 C0,6.2680135 6.2680135,0 14,0 Z M14,1 C6.82029825,1 1,6.82029825 1,14 C1,21.1797017 6.82029825,27 14,27 C21.1797017,27 27,21.1797017 27,14 C27,6.82029825 21.1797017,1 14,1 Z M14,5 L14,15 L22,15 L22,16 L13,16 L13,5 L14,5 Z" id="形状结合"></path>
        </g>
    </g>
</svg>