<?xml version="1.0" encoding="UTF-8"?>
<svg viewBox="0 0 16 16" version="1.1" xmlns="http://www.w3.org/2000/svg" xmlns:xlink="http://www.w3.org/1999/xlink">
    <!-- Generator: Sketch 52.6 (67491) - http://www.bohemiancoding.com/sketch -->
    <title>stars and banners-curved up ribbon</title>
    <desc>Created with Sketch.</desc>
    <g id="stars-and-banners-curved-up-ribbon" stroke="none" stroke-width="1" fill="none" fill-rule="evenodd">
        <g id="7.15" transform="translate(8.000000, 8.000000) rotate(-360.000000) translate(-8.000000, -8.000000) translate(0.000000, 2.000000)" fill="#767676" fill-rule="nonzero">
            <path d="M12,11 L14.9802343,11 L14.9901425,10.5573619 L12.4708901,8.2352978 C12.1155449,7.90776644 12.0452696,7.37298209 12.3039311,6.96476495 L14.1825154,4 L15.3663632,4 L13.1486342,7.5 L16,10.1281821 L15.9581003,12 L9,12 L9,9.01549596 C8.33333333,8.9279845 7.66666667,8.9279845 7,9.01549596 L7,12 L0.0418996821,12 L3.86357613e-14,10.1281821 L2.85136577,7.5 L0.633636837,4 L1.81748465,4 L3.69606894,6.96476495 C3.95473035,7.37298209 3.88445506,7.90776644 3.52910993,8.2352978 L1.00985747,10.5573619 L1.0197657,11 L4,11 L4,10 L4,4 L0.633636837,4 L1.33226763e-14,3 L4,3 L4,1.61815029 C6,-0.477312138 9.88235294,-0.600574634 12,1.61815029 L12,3 L16,3 L15.3000458,4 L12,4 L12,10 L12,11 Z M11,11 L11,9.54056478 C10.6666667,9.40929758 10.3333333,9.29990824 10,9.21239677 L10,11 L11,11 Z M5,11 L6,11 L6,9.21239677 C5.66666667,9.29990824 5.33333333,9.40929758 5,9.54056478 L5,11 Z M11,4 L11,3 L11,2.0463964 C9.35965873,0.639171297 6.61700708,0.663210479 5,2.0467808 L5,8.47388475 C6.99431397,7.77518824 9.00568603,7.77518824 11,8.47388475 L11,4 Z" id="合并形状"></path>
        </g>
    </g>
</svg>