<?xml version="1.0" encoding="UTF-8"?>
<svg viewBox="0 0 16 16" version="1.1" xmlns="http://www.w3.org/2000/svg" xmlns:xlink="http://www.w3.org/1999/xlink">
    <!-- Generator: Sketch 52.6 (67491) - http://www.bohemiancoding.com/sketch -->
    <title>stars and banners-double wave</title>
    <desc>Created with Sketch.</desc>
    <g id="stars-and-banners-double-wave" stroke="none" stroke-width="1" fill="none" fill-rule="evenodd">
        <g id="7.20" transform="translate(0.000000, 1.000000)" fill="#767676" fill-rule="nonzero">
            <path d="M11.5355161,1.73378567 L11.4975965,1.71062599 C10.1549224,0.890512964 9.71378461,0.821398325 8.70978761,1.55330465 C6.95452705,2.83287652 5.73932656,2.68060081 3.77176356,1.60493315 L3.72806021,1.58104331 C2.44740149,0.881210636 1.92659873,0.789835551 1,1.51960132 L1,11.7158662 C2.05798033,11.3624987 3.04706447,11.6250726 4.25428274,12.3323295 C4.33824238,12.3816515 4.33824238,12.3816515 4.41983337,12.4297892 C5.76707505,13.2241947 6.25790019,13.261017 7.5151406,12.2565594 C9.63531424,10.5626713 11.037966,10.7838337 13.0111408,12.26374 C13.0715429,12.309058 13.0715429,12.309058 13.1306162,12.3532935 C14.0074432,13.0090136 14.4106236,13.1824852 15,12.9022466 L15,2.56413317 C13.9016023,2.89040382 12.8775322,2.55324856 11.5355161,1.73378567 Z M-3.55271368e-15,1.05516107 C3.5541972,-2.10626134 4.69845438,3.24002703 8.12070732,0.745230148 C11.5429603,-1.74956673 12.5743069,3.56066409 16,0.875753905 L16,13.4686532 C12.6254204,15.777042 12.0300608,9.92937827 8.13932977,13.0378326 C4.24859871,16.1462869 3.54371353,10.5048139 -3.55271368e-15,13.4686532 L-3.55271368e-15,1.05516107 Z" id="Rectangle-85-Copy"></path>
        </g>
    </g>
</svg>