<?xml version="1.0" encoding="UTF-8"?>
<svg viewBox="0 0 16 16" version="1.1" xmlns="http://www.w3.org/2000/svg" xmlns:xlink="http://www.w3.org/1999/xlink">
    <!-- Generator: Sketch 52.6 (67491) - http://www.bohemiancoding.com/sketch -->
    <title>stars and banners-explosion2</title>
    <desc>Created with Sketch.</desc>
    <g id="stars-and-banners-explosion2" stroke="none" stroke-width="1" fill="none" fill-rule="evenodd">
        <g id="7.2" fill="#767676" fill-rule="nonzero">
            <path d="M9.25800823,3.03009947 C8.56728713,3.54818481 7.7609565,3.718215 6.8740657,3.53550959 C6.67472752,4.89903568 5.78835603,5.5796112 4.32698399,5.44610369 C4.15145263,6.80062361 3.46369211,7.53448288 1.8627802,7.88530418 C1.99698884,8.05039248 2.13257578,8.21745103 2.1881511,8.28752986 C2.73065497,8.97161108 2.99638681,9.42108776 3.08970863,9.98280335 C3.2068428,10.6878484 3.00352504,11.3008381 2.44491539,11.9715413 C3.58111994,12.4021646 4.27218376,13.067423 4.60246553,14.0750553 C6.32815727,12.8419432 7.86164205,12.498263 9.45274089,13.2301588 C9.98795407,12.2321343 10.9496952,11.6488298 12.0867211,11.6548057 C12.012797,11.3502965 12.0441725,11.1454131 12.1142671,10.8113943 C12.2502929,10.1631962 12.624733,9.77387764 13.2401765,9.57702922 C12.7993023,8.74336109 12.8817157,7.91757477 13.5203436,7.20338373 C12.9175296,6.98925462 12.5488015,6.75234689 12.235334,6.36091003 C11.7988777,5.81589316 11.7319442,5.22341792 11.9781976,4.59661096 C10.9539277,4.33963936 10.2714527,3.70083668 9.76178091,2.5686111 C9.60729567,2.73988302 9.4403967,2.89329636 9.25800823,3.03009947 Z M10.0220139,0 C10.6668201,2.98660017 11.3232298,3.92164613 13.8938768,3.69871632 C11.258761,6.1372296 14.2520022,6.31124323 16,6.85444445 C13.2266877,7.84503556 13.5303097,9.12763335 15.4729857,10.46767 C12.1904655,10.1515879 12.9351128,11.3080337 13.8938768,13.287649 C11.7579059,11.8565412 10.2160269,13.0253486 10.0220139,14.753649 C7.76637498,13.0011008 5.85803314,14.1394797 3.8354785,16 C3.89238569,13.7020683 3.07398999,12.900623 0.413023652,12.5009305 C3.38542643,10.1392263 1.96253473,9.88319511 0,7.11237159 C3.38656603,6.90998961 3.44517143,6.00659593 3.36449544,4.21800471 C5.48896549,4.90899126 6.18574958,4.21800471 5.84354394,2.04711671 C8.38582906,3.56125723 9.41358558,1.70336846 10.0220139,0 Z" id="Path-12"></path>
        </g>
    </g>
</svg>