<?xml version="1.0" encoding="UTF-8"?>
<svg viewBox="0 0 16 16" version="1.1" xmlns="http://www.w3.org/2000/svg" xmlns:xlink="http://www.w3.org/1999/xlink">
    <!-- Generator: Sketch 52.6 (67491) - http://www.bohemiancoding.com/sketch -->
    <title>stars and banners-7 point star</title>
    <desc>Created with Sketch.</desc>
    <g id="stars-and-banners-7-point-star" stroke="none" stroke-width="1" fill="none" fill-rule="evenodd">
        <g id="7.5" transform="translate(0.000000, 0.000000)" fill="#767676" fill-rule="nonzero">
            <path d="M5.12645027,14.5665885 L8,13.2013717 L10.8735497,14.5665885 L11.6246389,11.4106941 L14.4860503,9.94251577 L12.5289627,7.34616237 L13.1910064,4.15023144 L10.0063534,4.10111898 L8,1.59865141 L5.99364655,4.10111898 L2.80899364,4.15023144 L3.47103733,7.34616237 L1.5139497,9.94251577 L4.37536114,11.4106941 L5.12645027,14.5665885 Z M8,14.3084931 L4.43966506,16 L3.50914868,12.0901958 L0,10.2896661 L2.4,7.10572686 L1.58449811,3.16899623 L5.50776554,3.10849314 L8,0 L10.4922345,3.10849314 L14.4155019,3.16899623 L13.6,7.10572686 L16,10.2896661 L12.4908513,12.0901958 L11.5603349,16 L8,14.3084931 Z" id="Star-Copy-2"></path>
        </g>
    </g>
</svg>