<?xml version="1.0" encoding="UTF-8"?>
<svg viewBox="0 0 16 16" version="1.1" xmlns="http://www.w3.org/2000/svg" xmlns:xlink="http://www.w3.org/1999/xlink">
    <!-- Generator: Sketch 52.6 (67491) - http://www.bohemiancoding.com/sketch -->
    <title>stars and banners-12 point star</title>
    <desc>Created with Sketch.</desc>
    <g id="stars-and-banners-12-point-star" stroke="none" stroke-width="1" fill="none" fill-rule="evenodd">
        <g id="7.9" transform="translate(0.000000, 0.000000)" fill="#727272" fill-rule="nonzero">
            <path d="M4.95224976,13 L5.96764681,12.9641016 L5.98567493,11.9594504 L6.98328742,11.9641016 L6.96538108,12.9641016 L7.96299357,13 L7.98089991,11.9641016 L8.97851239,11.9641016 L8.97851239,12.9641016 L9.97612488,12.9641016 L9.97612488,10.9641016 L10.9737374,10.9641016 L10.9737374,11.9641016 L11.9713499,11.9594504 L11.9713499,10.9641016 L10.9737374,10.9641016 L10.9737374,9.96410162 L12.9689623,9.96410162 L12.9868687,9.01794919 L11.9713499,8.98205081 L11.9713499,8.01794919 L12.9689623,7.98205081 L12.9689623,7.01794919 L11.9713499,6.98205081 L11.9713499,6.01794919 L12.9689623,5.98205081 L12.9689623,4.96410162 L10.9737374,4.96410162 L10.9737374,3.96410162 L11.9713499,3.96410162 L11.9713499,2.96410162 L10.9737374,2.96410162 L10.9737374,3.96410162 L9.97612488,3.96410162 L9.97612488,1.96410162 L9.03841074,2.01794919 L8.97851239,2.96410162 L7.99880624,2.96410162 L7.96299357,2.01794919 L7.00119376,1.98205081 L6.98328742,3 L5.98567493,3 L5.96764681,1.98205081 L4.99459679,1.96410162 L4.98806244,2.96410162 L4.95224976,3.96410162 L4.01327949,3.98205081 L4.01327949,2.98205081 L3.01538391,2.98205081 L3.01538391,3.98205081 L4.01327949,3.98205081 L4.00835629,4.98205081 L3.0107438,4.98205081 L2.01313131,5.01794919 L2.01313131,5.98205081 L3.01538391,5.98205081 L3.0107438,6.98205081 L1.99522498,7.01794919 L1.99522498,7.98205081 L3.01538391,7.98205081 L3.01538391,8.98205081 L2.01313131,9.01794919 L1.99522498,9.96410162 L3.99044995,9.96410162 L3.99537316,10.9641016 L2.99747758,10.9641016 L2.99747758,11.9594504 L3.99537316,12 L3.99537316,10.9641016 L4.98806244,10.9641016 L4.95224976,13 Z M6.51729788,13.299421 L6.00358127,13.9820508 L5.00596878,13.9820508 L5.00596878,14.9820508 L3.99993279,15.0179492 L4.01327949,12.9820508 L2.01313131,12.9820508 L2.01313131,11.0179492 L0.0179063385,11.0179492 L0.0179063385,10.0179492 L1.01551883,10.0179492 L1.01551883,9.01794919 L1.99522498,8.53405231 L1.01551883,8.01794919 L0.0179063385,8.01794919 L0.0179063385,7.01794919 L1.01551883,7.01794919 L1.99522498,6.50964841 L1.01551883,6.01794919 L1.0513315,5 L0.0179063385,5.01794919 L0.0179063385,4.01794919 L2.01313131,4.01794919 L2.01313131,2.01794919 L4.01327949,2.01794919 L3.97254361,0.0179491924 L4.98806244,-4.43947101e-11 L4.9701561,1.01794919 L5.96764681,1.01794919 L6.51729788,1.609627 L6.96538108,1.01794919 L6.98328742,-4.43947101e-11 L7.98089991,-4.43947101e-11 L7.96299357,1.01794919 L8.38995028,1.609627 L9.03841074,1.01794919 L9.95821854,1.01794919 L9.99403122,-0.0179491924 L10.9916437,-0.0179491924 L10.9916437,1.98205081 L12.9868687,1.98205081 L12.9868687,3.98205081 L14.9820937,3.98205081 L14.9820937,4.98205081 L13.9844812,4.98205081 L13.9486685,6.01794919 L13.3584033,6.50964841 L13.9486685,7.01794919 L14.946281,7.01794919 L14.946281,8.01794919 L13.9486685,8.01794919 L13.3584033,8.53405231 L13.9486685,9.01794919 L13.9844812,9.96410162 L14.946281,10.0179492 L14.946281,11.0179492 L12.9868687,10.9820508 L12.9868687,12.9820508 L10.9916437,12.9820508 L10.9916437,14.9820508 L9.99403122,14.9820508 L9.99403122,13.9820508 L8.99641873,13.9820508 L8.38995028,13.299421 L7.99880624,13.9820508 L7.99880624,14.9820508 L7.00119376,14.9820508 L7.00119376,13.9820508 L6.51729788,13.299421 Z M4.98205081,7.00119376 L3.98205081,7.00119376 L3.98205081,6.00358127 L4.98205081,6.00358127 L4.98205081,5.00596878 L5.98205081,5.00596878 L5.98205081,9.99403122 L4.98205081,9.99403122 L4.98205081,7.00119376 Z M8.98205081,6.00358127 L6.98205081,6.00358127 L6.98205081,5.00596878 L9.98205081,5.00596878 L9.98205081,6.00358127 L9.98205081,7.00119376 L8.98205081,7.00119376 L8.98205081,6.00358127 Z M7.98205081,8.99641873 L9.98205081,8.99641873 L9.98205081,9.99403122 L6.98205081,9.99403122 L6.98205081,8.99641873 L6.98205081,7.99880624 L7.98205081,7.99880624 L7.98205081,8.99641873 Z M7.98205081,7.00119376 L8.98205081,7.00119376 L8.98205081,7.99880624 L7.98205081,7.99880624 L7.98205081,7.00119376 Z" id="合并形状"></path>
        </g>
    </g>
</svg>