<?xml version="1.0" encoding="UTF-8"?>
<svg viewBox="0 0 16 16" version="1.1" xmlns="http://www.w3.org/2000/svg" xmlns:xlink="http://www.w3.org/1999/xlink">
    <!-- Generator: Sketch 52.6 (67491) - http://www.bohemiancoding.com/sketch -->
    <title>stars and banners-up ribbon</title>
    <desc>Created with Sketch.</desc>
    <g id="stars-and-banners-up-ribbon" stroke="none" stroke-width="1" fill="none" fill-rule="evenodd">
        <g id="7.13" transform="translate(8.000000, 8.000000) rotate(-180.000000) translate(-8.000000, -8.000000) translate(0.000000, 3.000000)" fill="#767676" fill-rule="nonzero">
            <path d="M12,8 C12,9.1045695 11.1045695,10 10,10 L6,10 C4.8954305,10 4,9.1045695 4,8 L1,8 L-6.31088724e-30,8 L0.64229682,7 L0.712841442,7 L2.85136577,4 L-6.31088724e-30,1.66383816 L1.20856635,-5.68434189e-14 L7,-5.68434189e-14 L7,2 L9,2 L9,6.31088724e-30 L14.7914337,6.31088724e-30 L16,1.66383816 L13.1486342,4 L15.2871586,7 L15.288559,7 L16,8 L12,8 Z M12,7 L14.0590939,7 L12.3343449,4.58045919 C12.0288763,4.15193664 12.1078005,3.55999119 12.5148723,3.22647182 L14.636468,1.48822033 L14.2818381,1 L10,1 L10,2 L12,2 L12,7 Z M6,2 L6,1 L1.71816188,1 L1.36353203,1.48822033 L3.48512768,3.22647182 C3.89219952,3.55999119 3.97112374,4.15193664 3.66565511,4.58045919 L1.94090615,7 L4,7 L4,2 L6,2 Z M5,7 L5,8 C5,8.55228475 5.44771525,9 6,9 L10,9 C10.5522847,9 11,8.55228475 11,8 L11,3 L5,3 L5,7 Z M4,1 L5,1 L5,2 L4,2 L4,1 Z M11,1 L12,1 L12,2 L11,2 L11,1 Z" id="合并形状"></path>
        </g>
    </g>
</svg>