<?xml version="1.0" encoding="UTF-8"?>
<svg viewBox="0 0 16 16" version="1.1" xmlns="http://www.w3.org/2000/svg" xmlns:xlink="http://www.w3.org/1999/xlink">
    <!-- Generator: Sketch 52.6 (67491) - http://www.bohemiancoding.com/sketch -->
    <title>stars and banners-wave</title>
    <desc>Created with Sketch.</desc>
    <g id="stars-and-banners-wave" stroke="none" stroke-width="1" fill="none" fill-rule="evenodd">
        <g id="7.19" transform="translate(0.000000, 0.000000)" fill="#767676" fill-rule="nonzero">
            <path d="M7.67026031,2.33026041 C7.60744905,2.29470371 7.60744905,2.29470371 7.54495514,2.25934707 C4.69376941,0.646823883 3.3236494,0.46134401 1,2.20471994 L1,11.0492316 C3.55571708,9.65783614 5.60525736,10.0505835 8.71772504,11.6834858 C8.7673309,11.7095161 8.7673309,11.7095161 8.81676071,11.7354631 C11.5989472,13.195847 12.933144,13.4619655 15,12.3241012 L15,3.32341306 C12.5915416,4.50028656 10.6549927,4.0197758 7.67026031,2.33026041 Z M-3.55271368e-15,1.71533037 C6.9971787,-3.89120116 9.03795645,6.46900051 16,1.55371968 L16,12.8974535 C9.19855382,17.0884841 7.03335723,7.59851321 -3.55271368e-15,12.8974535 L-3.55271368e-15,1.71533037 Z" id="Rectangle-85"></path>
        </g>
    </g>
</svg>