<?xml version="1.0" encoding="UTF-8"?>
<svg width="10px" height="10px" viewBox="0 0 10 10" version="1.1" xmlns="http://www.w3.org/2000/svg" xmlns:xlink="http://www.w3.org/1999/xlink">
    <g id="setting-color" stroke="none" stroke-width="1" fill="none" fill-rule="evenodd">
        <g id="config" transform="translate(0.000000, -0.000000)" fill-rule="nonzero">
            <path d="M9.6425,5.48723639 L8.33814978,5.88972386 L7.99900441,6.70626038 L8.65153727,7.91805838 L8.02547779,8.68256779 L6.91574263,7.99754423 L5.91190096,8.41954187 L5.54699772,9.63061727 C5.54699772,9.63061727 4.60826624,9.65735342 4.53027712,9.63061727 C4.4515725,9.60460371 4.19113175,8.60308193 4.19113175,8.60308193 L3.14507579,8.10304364 L1.9995658,8.60308193 C1.9995658,8.60308193 1.26975932,8.02428038 1.24328595,7.89204482 C1.21752807,7.75980926 1.86934543,6.75901008 1.97380793,6.75901008 C2.07827042,6.75901008 1.58243131,5.91646001 1.58243131,5.91646001 L0.356785714,5.38896297 L0.460532715,4.41417734 L1.60818919,4.09840172 L1.8958188,3.25512905 C1.8958188,3.25512905 1.42573757,1.93783164 1.42573757,1.91109549 C1.42573757,1.88508194 2.18273292,1.33229394 2.18273292,1.33229394 L3.14507579,1.91109549 L4.16465838,1.54257016 L4.47804587,0.356785714 L5.59922897,0.356785714 L5.88614309,1.56930631 L6.74688544,1.93783164 L7.76432154,1.33229394 L8.7295264,2.0165949 L8.02547779,3.20237934 L8.46908565,4.20390113 L9.6425,4.46692705 L9.6425,5.48723639 Z M5.03040921,6.90208462 C6.0714567,6.90208462 6.91574263,6.04941817 6.91574263,4.99803708 C6.91574263,3.94665599 6.0714567,3.09398954 5.03040921,3.09398954 C3.98936172,3.09398954 3.14507579,3.94665599 3.14507579,4.99803708 C3.14507579,6.04941817 3.98936172,6.90208462 5.03040921,6.90208462 Z" id="Combined-Shape" fill="#81BEFC"></path>
            <path d="M5,6.42857143 C4.2122449,6.42857143 3.57142857,5.7877551 3.57142857,5 C3.57142857,4.2122449 4.2122449,3.57142857 5,3.57142857 C5.7877551,3.57142857 6.42857143,4.2122449 6.42857143,5 C6.42857143,5.7877551 5.7877551,6.42857143 5,6.42857143 Z M4.99964286,2.85714286 C3.81802182,2.85714286 2.85678571,3.81812748 2.85678571,5 C2.85678571,6.18105744 3.81802182,7.14285714 4.99964286,7.14285714 C6.18126389,7.14285714 7.1425,6.18105744 7.1425,5 C7.1425,3.81812748 6.18126389,2.85714286 4.99964286,2.85714286 Z M9.28081912,5.28720688 C9.23886059,5.31519293 9.19270621,5.33478317 9.14375459,5.34597759 L8.00947563,5.62933638 L7.90388,5.95047635 C7.85702631,6.09600382 7.79478782,6.24293061 7.72136039,6.38775843 L7.56751244,6.69000781 L8.16682013,7.69050923 C8.20528211,7.7513789 8.22276483,7.8059517 8.2283593,7.83883531 L7.82555741,8.24113483 C7.78919335,8.23064006 7.7542279,8.21664704 7.7220597,8.19775645 L6.71435565,7.55547652 L6.40176459,7.71779563 C6.25351111,7.79405763 6.09966317,7.8591252 5.94161937,7.91019975 L5.60804904,8.01794606 L5.35629786,9.15767809 C5.34440961,9.21854776 5.31154209,9.268223 5.28916421,9.28571429 L4.73880814,9.28571429 C4.71083579,9.24373521 4.69125514,9.19755822 4.6800662,9.14858262 L4.39894404,8.02144431 L4.07236681,7.91789592 C3.90033683,7.86332311 3.73320202,7.79335798 3.5737596,7.70870016 L3.25907062,7.5428828 L2.25206587,8.18516273 C2.21500251,8.21174948 2.17164536,8.22644216 2.12688959,8.22854111 L1.72548631,7.83813566 C1.73527663,7.78916007 1.75415797,7.74228343 1.78073171,7.70030435 L2.40661313,6.6571242 L2.25766035,6.35697377 C2.19192531,6.22613897 2.13667991,6.09110627 2.09052553,5.951176 L1.98492989,5.62933638 L0.861839882,5.34877619 C0.809391718,5.33758177 0.759041481,5.31659223 0.714285714,5.28720688 L0.714285714,4.71839034 L0.714985023,4.71839034 C0.726173965,4.71839034 0.775824893,4.68270812 0.817783424,4.67501195 L1.97164303,4.41893956 L2.07793797,4.08170762 C2.12059581,3.9438763 2.17933775,3.80114743 2.25766035,3.64372588 L2.40661313,3.34357545 L1.7877248,2.31089007 C1.75765452,2.26541274 1.73667525,2.21573749 1.72618562,2.16256399 L2.12828821,1.76026447 C2.1674495,1.77285819 2.21150596,1.78895017 2.23178592,1.8029432 L3.25837131,2.45781685 L3.57236098,2.29129984 C3.73110409,2.20734167 3.8975396,2.13737654 4.06887027,2.08280374 L4.39404888,1.97925534 L4.67307311,0.862611798 C4.68915722,0.791947013 4.71503164,0.740872465 4.73461229,0.714285714 L5.30315039,0.714285714 C5.29895453,0.720582576 5.33811583,0.773756078 5.34650754,0.817834113 L5.60315388,1.97925534 L5.9367242,2.08700164 C6.09267008,2.13807619 6.24931526,2.20314377 6.4024639,2.28290402 L6.71505495,2.44592278 L7.70177974,1.81693623 C7.7381438,1.79034948 7.78150095,1.77495715 7.82695603,1.77285819 L8.2283593,2.16396329 C8.21856898,2.21293889 8.19968764,2.25911587 8.17311391,2.30179461 L7.56751244,3.30999219 L7.7220597,3.61294122 C7.80527745,3.77595998 7.86821525,3.92918362 7.91646756,4.08100796 L8.02206319,4.41893956 L9.1528456,4.67011439 C9.22137787,4.68270812 9.27452534,4.72258824 9.28571429,4.74427744 L9.28081912,5.28720688 Z M9.37928571,4.05285714 L8.57714286,3.875 C8.515,3.675 8.43285714,3.48357143 8.33928571,3.3 L8.77285714,2.57714286 C8.935,2.31785714 9.01714286,1.93714286 8.77285714,1.69285714 L8.33071429,1.25071429 C8.08714286,1.00714286 7.675,1.05071429 7.42571429,1.22357143 L6.72285714,1.67142857 C6.53928571,1.57642857 6.34857143,1.49571429 6.15142857,1.43142857 L5.97142857,0.62 C5.91785714,0.322142857 5.65714286,0 5.31214286,0 L4.68714286,0 C4.34214286,0 4.13071429,0.327142857 4.06214286,0.625 L3.86142857,1.42714286 C3.65142857,1.49428571 3.44785714,1.57928571 3.25285714,1.68285714 L2.53142857,1.22357143 C2.28357143,1.05071429 1.87142857,1.00714286 1.62714286,1.25071429 L1.185,1.69285714 C0.941428571,1.93714286 1.02285714,2.31785714 1.185,2.57642857 L1.64142857,3.33785714 C1.55428571,3.51071429 1.48071429,3.69071429 1.42142857,3.875 L0.62,4.05285714 C0.322142857,4.10642857 0,4.36714286 0,4.71214286 L0,5.33714286 C0,5.68285714 0.327142857,5.89428571 0.625,5.96214286 L1.43642857,6.165 C1.49214286,6.33714286 1.56285714,6.50285714 1.64214286,6.66285714 L1.185,7.425 C1.02357143,7.68357143 0.941428571,8.06428571 1.185,8.30857143 L1.62714286,8.75071429 C1.87142857,8.995 2.28285714,8.95 2.53142857,8.77857143 L3.25428571,8.31785714 C3.45071429,8.42142857 3.65571429,8.50785714 3.86714286,8.575 L4.06714286,9.37428571 C4.13571429,9.67214286 4.34642857,9.99928571 4.69214286,9.99928571 L5.31642857,9.99928571 C5.66214286,9.99928571 5.92214286,9.67714286 5.97571429,9.37928571 L6.15642857,8.565 C6.35285714,8.50142857 6.54071429,8.42142857 6.72142857,8.32785714 L7.42571429,8.77785714 C7.675,8.95 8.08642857,8.99428571 8.33071429,8.75 L8.77285714,8.30785714 C9.01714286,8.06357143 8.935,7.68285714 8.77285714,7.42428571 L8.33928571,6.7 C8.42642857,6.52857143 8.50142857,6.35 8.56214286,6.16428571 L9.375,5.96214286 C9.67214286,5.89285714 10,5.68214286 10,5.33642857 L10,4.71142857 C10,4.36642857 9.67785714,4.10571429 9.37928571,4.05214286 L9.37928571,4.05285714 Z" id="Fill-3" fill="#367FC9"></path>
        </g>
    </g>
</svg>