<svg width="16" height="16" viewBox="0 0 16 16" fill="none" xmlns="http://www.w3.org/2000/svg">
<g clip-path="url(#clip0_15_428)">
<rect width="16" height="16" fill="rgb(0,0,0,0)"/>
<path d="M14 16H4V2H10L14 6V16Z" fill="white"/>
<path fill-rule="evenodd" clip-rule="evenodd" d="M3 0H9V1H3L3 14H2V1V0H3ZM9 3.00001V7H13V15H5V3.00001H9ZM14 16V6L10 2L4 2.00001V16H14ZM10 3.5L12.5 6H10V3.5Z" fill="#666666"/>
<path fill-rule="evenodd" clip-rule="evenodd" d="M8 8V9H10V8H11V9H12V10H11L11 12H12V13H11V14H10V13H8V14H7L7 13H6V12H7L7 10H6V9H7L7 8H8ZM10 12L10 10H8V12H10Z" fill="#367FC9"/>
</g>
<defs>
<clipPath id="clip0_15_428">
<rect width="16" height="16" fill="white"/>
</clipPath>
</defs>
</svg>
