<svg width="16" height="16" viewBox="0 0 16 16" fill="none" xmlns="http://www.w3.org/2000/svg">
<g clip-path="url(#clip0_15_467)">
<rect width="16" height="16" fill="rgb(0,0,0,0)"/>
<path d="M16 16H4V0H12L16 4V16Z" fill="white"/>
<path fill-rule="evenodd" clip-rule="evenodd" d="M11 5V1.00001H5V15H15V5H11ZM16 4V16H4V1.45435e-05L12 0L16 4ZM14.5 4L12 1.5V4H14.5Z" fill="#666666"/>
<rect x="10" y="6" width="4" height="1" fill="#33C481"/>
<rect x="10" y="8" width="4" height="1" fill="#107C41"/>
<rect x="10" y="10" width="4" height="1" fill="#134A2C"/>
<rect y="4" width="9" height="9" rx="1" fill="#107C41"/>
<path d="M7 6L5.12373 8.51808L6.97464 11H5.81846L4.74848 9.40868C4.69101 9.32429 4.60987 9.1947 4.50507 9.01989H4.48479C4.48141 9.03797 4.39689 9.16757 4.23124 9.40868L3.14097 11H2L3.90669 8.54521L2.08621 6H3.24239L4.29209 7.67269C4.35632 7.77517 4.43408 7.90778 4.52535 8.07052H4.54564L5.90974 6H7Z" fill="white"/>
</g>
<defs>
<clipPath id="clip0_15_467">
<rect width="16" height="16" fill="white"/>
</clipPath>
</defs>
</svg>
