<?xml version="1.0" encoding="UTF-8"?>
<svg viewBox="0 0 16 16" version="1.1" xmlns="http://www.w3.org/2000/svg" xmlns:xlink="http://www.w3.org/1999/xlink">
    <!-- Generator: Sketch 52.6 (67491) - http://www.bohemiancoding.com/sketch -->
    <title>block arrows-circular arrow</title>
    <desc>Created with Sketch.</desc>
    <g id="block-arrows-circular-arrow" stroke="none" stroke-width="1" fill="none" fill-rule="evenodd">
        <g id="4.28" transform="translate(1.000000, 2.000000)" fill="#767676" fill-rule="nonzero">
            <path d="M0,10 L0,4 C1.11224764,1.33333333 3.172748,0 6.18150111,0 C9.19025421,0 11.2507546,1.33333333 12.3630022,4 L12.3630022,8 L15,8 L10.9516903,12 L9.76473942,12 L5.62713797,8 L8.24200148,8 L8.24200148,5 C7.91702998,4.33333333 7.23019653,4 6.18150111,4 C5.13280569,4 4.44597223,4.33333333 4.12100074,5 L4.12100074,10 L0,10 Z M1.03025018,9 L3.09075055,9 L3.09075055,5.21052632 C3.62654868,3.7369449 4.7058584,3.00015419 6.3286797,3.00015419 C7.95150101,3.00015419 8.93269166,3.7369449 9.27225166,5.21052632 L9.27225166,9 L8.24200148,9 L10.3477765,11.2751465 L12.3630022,9 L11.332752,9 L11.332752,4.15789474 C10.477516,2.05263158 8.76043234,1 6.18150111,1 C3.60256988,1 1.88548624,2.05263158 1.03025018,4.15789474 L1.03025018,9 Z" id="5.27"></path>
        </g>
    </g>
</svg>