<?xml version="1.0" encoding="UTF-8"?>
<svg viewBox="0 0 16 16" version="1.1" xmlns="http://www.w3.org/2000/svg" xmlns:xlink="http://www.w3.org/1999/xlink">
    <!-- Generator: Sketch 52.6 (67491) - http://www.bohemiancoding.com/sketch -->
    <title>block arrows-curved up arrow</title>
    <desc>Created with Sketch.</desc>
    <g id="block-arrows-curved-up-arrow" stroke="none" stroke-width="1" fill="none" fill-rule="evenodd">
        <g id="4.16" transform="translate(0.000000, 3.000000)" fill="#767676" fill-rule="nonzero">
            <path d="M0,9.00350761 L0,5.45107061 C0.494791667,2.58988533 2.40885417,0.784553812 5.7421875,0.0350760523 C6.09319243,-0.0438450654 7.63353114,0.0350760523 8,0.0350760523 C10.2947591,0.0350760523 12.2947591,1.56136051 14,4.61392941 L14,6.01403042 L16,6.01403042 L16,7.01052282 L13,10 L11,10 L8,7.01052282 L8,6.01403042 L10,6.01403042 L10,5 C8.87923177,3.02762765 7.76350911,2.04144148 6.65283203,2.04144148 C5.54215495,2.04144148 4.65820312,3.17798452 4.00097656,5.45107061 L4.00097656,9.00350761 L0,9.00350761 Z M1,8.00701521 L3.00097656,8.00701521 L3.00097656,5.45107061 C3.66764323,2.58988533 4.88492839,1.15929269 6.65283203,1.15929269 C8.42073568,1.15929269 9.86979167,2.31083827 11,4.61392941 L11,7.43009856 L10,7.43009856 L12.003418,9.00350761 L14,7.43009856 L13,7.43009856 L13,5.45107061 C12.1417643,2.58988533 10.0260417,1.15929269 6.65283203,1.15929269 C3.2796224,1.15929269 1.39534505,2.7775386 1,6.01403042 L1,8.00701521 Z" transform="translate(8.000000, 5.000000) scale(1, -1) translate(-8.000000, -5.000000) "></path>
        </g>
    </g>
</svg>