<?xml version="1.0" encoding="UTF-8"?>
<svg viewBox="0 0 16 16" version="1.1" xmlns="http://www.w3.org/2000/svg" xmlns:xlink="http://www.w3.org/1999/xlink">
    <!-- Generator: Sketch 52.6 (67491) - http://www.bohemiancoding.com/sketch -->
    <title>block arrows-left right up arrow</title>
    <desc>Created with Sketch.</desc>
    <g id="block-arrows-left-right-up-arrow" stroke="none" stroke-width="1" fill="none" fill-rule="evenodd">
        <g id="4.9" fill="#767676" fill-rule="nonzero">
            <path d="M3,12.5857864 L3,12 L13,12 L13,12.5857864 L14.5857864,11 L13,9.41421356 L13,10 L9,10 L9,3 L9.58578644,3 L8,1.41421356 L6.41421356,3 L7,3 L7,10 L3,10 L3,9.41421356 L1.41421356,11 L3,12.5857864 Z M12,13 L4,13 L4,15 L0,11 L4,7 L4,9 L6,9 L6,4 L4,4 L8,0 L12,4 L10,4 L10,9 L12,9 L12,7 L16,11 L12,15 L12,13 Z" id="Combined-Shape"></path>
        </g>
    </g>
</svg>