<?xml version="1.0" encoding="UTF-8"?>
<svg viewBox="0 0 16 16" version="1.1" xmlns="http://www.w3.org/2000/svg" xmlns:xlink="http://www.w3.org/1999/xlink">
    <!-- Generator: Sketch 52.6 (67491) - http://www.bohemiancoding.com/sketch -->
    <title>block arrows-left right arrow callout</title>
    <desc>Created with Sketch.</desc>
    <g id="block-arrows-left-right-arrow-callout" stroke="none" stroke-width="1" fill="none" fill-rule="evenodd">
        <g id="4.26" transform="translate(8.000000, 8.000000) rotate(-270.000000) translate(-8.000000, -8.000000) " fill="#767676" fill-rule="nonzero">
            <path d="M5,1 L5,6.99951172 L3,7 L2,7 L1.29972985,8 L2,9 L3,9 L5,9 L5,15 L11,15 L11,9 L13,9 C13.3960617,9 13.729395,9 14,9 L14.7,8 L14,6.99951172 L13,7 L11,6.99951172 L11,1 L5,1 Z M4,0 L12,0 L12,6 L13,6 L13,3.5 L16,8 L13,12.5 L13,10.003175 L12,10 L12,16 L4,16 L4,10 L3,10 L3,12.5 L0,8 L3,3.5 L3,6 L4,6 L4,0 Z" id="5.25" transform="translate(8.000000, 8.000000) rotate(-90.000000) translate(-8.000000, -8.000000) "></path>
        </g>
    </g>
</svg>