<?xml version="1.0" encoding="UTF-8"?>
<svg viewBox="0 0 16 16" version="1.1" xmlns="http://www.w3.org/2000/svg" xmlns:xlink="http://www.w3.org/1999/xlink">
    <!-- Generator: Sketch 52.6 (67491) - http://www.bohemiancoding.com/sketch -->
    <title>block arrows-quad arrow callout</title>
    <desc>Created with Sketch.</desc>
    <g id="block-arrows-quad-arrow-callout" stroke="none" stroke-width="1" fill="none" fill-rule="evenodd">
        <g id="4.27" fill="#767676" fill-rule="nonzero">
            <path d="M5,5.00041965 L5,7.00009919 L3,7.00058751 L2,7.00058751 L1.29760437,8.00067144 L2,9.00075537 L3,9.00075537 L5,9.00075537 L5,11.0009232 L7,11.0009232 L7,13.0010911 L7,14.001175 L8,14.7015168 L9,14.001175 L9,13.0010911 L9,11.0009232 L11,11.0009232 L11,9.00075537 L13,9.00075537 C13.3437829,9.00075537 13.6771162,9.00075537 14,9.00075537 L14.6989584,8.00067144 L14,7.00009919 L13,7.00058751 L11,7.00009919 L11,5.00041965 L9,5.00041965 L9,2.00016786 L8,1.29794774 L7,2.01066679 L7,5.00041965 L5,5.00041965 Z M4,4.00033572 L6,4.00033572 L6,3.00025179 L3,3.00025179 L8,0 L13,3.00025179 L9.99731445,2.9725395 L9.99731445,4.00033572 L12,4.00033572 L12,6.00050358 L13,6.00050358 L13,3.50029376 L16,8.00067144 L13,12.5010491 L13,10.0040145 L12,10.0008393 L12,12.0010072 L9.99731445,12.0010072 L9.99731445,13.0010911 L13,13.0010911 L8,16 L3,13.0010911 L6,13.0010911 L6,12.0010072 L4,12.0010072 L4,10.0008393 L3,10.0008393 L3,12.5010491 L0,8 L3,3.50029376 L3,6.00050358 L4,6.00050358 L4,4.00033572 Z" id="5.26"></path>
        </g>
    </g>
</svg>