<?xml version="1.0" encoding="UTF-8"?>
<svg viewBox="0 0 16 16" version="1.1" xmlns="http://www.w3.org/2000/svg" xmlns:xlink="http://www.w3.org/1999/xlink">
    <!-- Generator: Sketch 52.6 (67491) - http://www.bohemiancoding.com/sketch -->
    <title>block arrows-u turn arrow</title>
    <desc>Created with Sketch.</desc>
    <g id="block-arrows-u-turn-arrow" stroke="none" stroke-width="1" fill="none" fill-rule="evenodd">
        <g id="4.11" transform="translate(0.000000, 1.000000)" fill="#767676">
            <path d="M12,7 L15,7 L10,12 L5,7 L7.93721456,7 L7.93721456,5.09392558 C7.93721456,4.54164083 7.48949931,4.09392558 6.93721456,4.09392558 L5.01086486,4.09392558 C4.45858011,4.09392558 4.01086486,4.54164083 4.01086486,5.09392558 L4.01086486,14 L0,14 L0,4 C-2.705415e-16,1.790861 1.790861,4.05812251e-16 4,0 L8,-2.22044605e-15 C10.209139,-2.6262583e-15 12,1.790861 12,4 L12,7 Z M10,10.5857864 L12.5857864,8 L11,8 L11,4 C11,2.34314575 9.65685425,1 8,1 L4,1 C2.34314575,1 1,2.34314575 1,4 L1,13 L3.01086486,13 L3.01086486,5.09392558 C3.01086486,3.98935608 3.90629536,3.09392558 5.01086486,3.09392558 L6.93721456,3.09392558 C8.04178406,3.09392558 8.93721456,3.98935608 8.93721456,5.09392558 L8.93721456,8 L7.41421356,8 L10,10.5857864 Z" id="Combined-Shape"></path>
        </g>
    </g>
</svg>