<?xml version="1.0" encoding="UTF-8"?>
<svg width="32px" height="32px" viewBox="0 0 32 32" version="1.1" xmlns="http://www.w3.org/2000/svg" xmlns:xlink="http://www.w3.org/1999/xlink">
    <title>Pagination Setting</title>
    <g id="Pagination-Setting" stroke="none" stroke-width="1" fill="none" fill-rule="evenodd">
        <g id="编组" transform="translate(0.000000, 1.000000)">
            <path d="M0,12 L4,12 L4,13 L0,13 L0,12 Z M5,12 L9,12 L9,13 L5,13 L5,12 Z M10,12 L14,12 L14,13 L10,13 L10,12 Z M15,12 L19,12 L19,13 L15,13 L15,12 Z M20,12 L24,12 L24,13 L20,13 L20,12 Z M25,12 L29,12 L29,13 L25,13 L25,12 Z" id="形状备份" fill="#367FC9"></path>
            <path d="M5,0 L5,9 L24,9 L24,0 L25,0 L25,10 L4,10 L4,0 L5,0 Z M23.3921982,15.0081467 C22.7438527,15.0671016 22.2526847,15.4614558 21.9581976,15.9996341 L5,16 L5,25 L4,25 L4,15 L23.5625,15.0005 L23.3921982,15.0081467 Z" id="形状" fill="#666666"></path>
            <path d="M21.9587511,15.9986233 C21.8487566,16.1994041 21.7661521,16.4202331 21.7129908,16.6511526 L21.5785,17.1855 L20.9509298,16.7864219 C20.2350054,16.3684964 19.2231766,16.3945141 18.5724293,17.0433587 L17.9523932,17.6633932 L17.8374829,17.7894582 C17.3016752,18.4341597 17.341956,19.2867547 17.7300935,19.9984117 L18.0885,20.6005 L17.5084987,20.7296541 C16.70172,20.938975 16.0005,21.6749663 16.0005,22.5975 L16.0005,23.4725 L16.0081611,23.6430201 C16.0623114,24.2381937 16.3988845,24.7011861 16.8697471,25.0007511 L5,25 L5,16 L21.9587511,15.9986233 Z" id="路径" fill="#FFFFFF"></path>
            <rect id="矩形" fill="#FFFFFF" x="5" y="0" width="19" height="9"></rect>
            <g id="分组" transform="translate(17.000500, 16.000500)" fill-rule="nonzero">
                <path d="M13.4995,7.68213095 L11.6734097,8.24561341 L11.1986062,9.38876453 L12.1121522,11.0852817 L11.2356689,12.1555949 L9.68203968,11.1965619 L8.27666135,11.7873586 L7.76579681,13.4828642 C7.76579681,13.4828642 6.45157274,13.5202948 6.34238796,13.4828642 C6.23220149,13.4464452 5.86758445,12.0443147 5.86758445,12.0443147 L4.4031061,11.3442611 L2.79939213,12.0443147 C2.79939213,12.0443147 1.77766305,11.2339925 1.74060032,11.0488628 C1.7045393,10.863733 2.6170836,9.46261412 2.7633311,9.46261412 C2.90957859,9.46261412 2.21540384,8.28304402 2.21540384,8.28304402 L0.4995,7.54454816 L0.644745801,6.17984828 L2.25146486,5.7377624 L2.65414632,4.55718067 C2.65414632,4.55718067 1.99603259,2.7129643 1.99603259,2.67553369 C1.99603259,2.63911471 3.05582609,1.86521152 3.05582609,1.86521152 L4.4031061,2.67553369 L5.83052173,2.15959822 L6.26926422,0.4995 L7.83892056,0.4995 L8.24060032,2.19702884 L9.44563962,2.7129643 L10.8700502,1.86521152 L12.221337,2.82323286 L11.2356689,4.48333108 L11.8567199,5.88546158 L13.4995,6.25369787 L13.4995,7.68213095 Z M7.04257289,9.66291847 C8.50003937,9.66291847 9.68203968,8.46918544 9.68203968,6.99725192 C9.68203968,5.52531839 8.50003937,4.33158536 7.04257289,4.33158536 C5.58510641,4.33158536 4.4031061,5.52531839 4.4031061,6.99725192 C4.4031061,8.46918544 5.58510641,9.66291847 7.04257289,9.66291847 Z" id="Combined-Shape" fill="#81BEFC"></path>
                <path d="M7,9 C5.89714286,9 5,8.10285714 5,7 C5,5.89714286 5.89714286,5 7,5 C8.10285714,5 9,5.89714286 9,7 C9,8.10285714 8.10285714,9 7,9 Z M6.9995,4 C5.34523055,4 3.9995,5.34537847 3.9995,7 C3.9995,8.65348041 5.34523055,10 6.9995,10 C8.65376945,10 9.9995,8.65348041 9.9995,7 C9.9995,5.34537847 8.65376945,4 6.9995,4 Z M12.9931468,7.40208963 C12.9344048,7.4412701 12.8697887,7.46869643 12.8012564,7.48436862 L11.2132659,7.88107093 L11.065432,8.33066688 C10.9998368,8.53440535 10.9127029,8.74010285 10.8099045,8.94286181 L10.5945174,9.36601094 L11.4335482,10.7667129 C11.487395,10.8519305 11.5118708,10.9283324 11.519703,10.9743694 L10.9557804,11.5375888 C10.9048707,11.5228961 10.8559191,11.5033059 10.8108836,11.476859 L9.4000979,10.5776671 L8.96247043,10.8049139 C8.75491556,10.9116807 8.53952843,11.0027753 8.31826711,11.0742797 L7.85126866,11.2251245 L7.498817,12.8207493 C7.48217345,12.9059669 7.43615893,12.9755122 7.40482989,13 L6.6343314,13 C6.59517011,12.9412293 6.5677572,12.8765815 6.55209268,12.8080157 L6.15852166,11.230022 L5.70131354,11.0850543 C5.46047157,11.0086524 5.22648283,10.9107012 5.00326344,10.7921802 L4.56269887,10.5600359 L3.15289222,11.4592278 C3.10100351,11.4964493 3.0403035,11.517019 2.97764543,11.5199576 L2.41568084,10.9733899 C2.42938729,10.9048241 2.45582116,10.8391968 2.49302439,10.7804261 L3.36925838,9.31997388 L3.16072448,8.89976328 C3.06869544,8.71659456 2.99135188,8.52754877 2.92673574,8.3316464 L2.77890185,7.88107093 L1.20657583,7.48828667 C1.1331484,7.47261448 1.06265807,7.44322912 1,7.40208963 L1,6.60574647 L1.00097903,6.60574647 C1.01664355,6.60574647 1.08615485,6.55579136 1.14489679,6.54501673 L2.76030024,6.18651539 L2.90911316,5.71439066 C2.96883414,5.52142682 3.05107286,5.3216064 3.16072448,5.10121623 L3.36925838,4.68100563 L2.50281472,3.2352461 C2.46071633,3.17157783 2.43134535,3.10203249 2.41665987,3.02758958 L2.97960349,2.46437026 C3.03442931,2.48200147 3.09610835,2.50453024 3.12450029,2.52412048 L4.56171983,3.4409436 L5.00130538,3.20781977 C5.22354573,3.09027834 5.45655544,2.99232716 5.69641837,2.91592523 L6.15166843,2.77095747 L6.54230236,1.20765652 C6.5648201,1.10872582 6.6010443,1.03722145 6.62845721,1 L7.42441054,1 C7.41853635,1.00881561 7.47336216,1.08325851 7.48511055,1.14496776 L7.84441544,2.77095747 L8.31141389,2.9218023 C8.52973811,2.99330667 8.74904136,3.08440127 8.96344946,3.19606563 L9.40107694,3.42429189 L10.7824916,2.54371072 C10.8334013,2.50648927 10.8941013,2.48494 10.9577384,2.48200147 L11.519703,3.02954861 C11.5059966,3.09811444 11.4795627,3.16276222 11.4423595,3.22251245 L10.5945174,4.63398906 L10.8108836,5.0581177 C10.9273884,5.28634397 11.0155013,5.50085707 11.0830546,5.71341115 L11.2308885,6.18651539 L12.8139838,6.53816015 C12.909929,6.55579136 12.9843355,6.61162354 13,6.64198841 L12.9931468,7.40208963 Z M13.131,5.674 L12.008,5.425 C11.921,5.145 11.806,4.877 11.675,4.62 L12.282,3.608 C12.509,3.245 12.624,2.712 12.282,2.37 L11.663,1.751 C11.322,1.41 10.745,1.471 10.396,1.713 L9.412,2.34 C9.155,2.207 8.888,2.094 8.612,2.004 L8.36,0.868 C8.285,0.451 7.92,0 7.437,0 L6.562,0 C6.079,0 5.783,0.458 5.687,0.875 L5.406,1.998 C5.112,2.092 4.827,2.211 4.554,2.356 L3.544,1.713 C3.197,1.471 2.62,1.41 2.278,1.751 L1.659,2.37 C1.318,2.712 1.432,3.245 1.659,3.607 L2.298,4.673 C2.176,4.915 2.073,5.167 1.99,5.425 L0.868,5.674 C0.451,5.749 0,6.114 0,6.597 L0,7.472 C0,7.956 0.458,8.252 0.875,8.347 L2.011,8.631 C2.089,8.872 2.188,9.104 2.299,9.328 L1.659,10.395 C1.433,10.757 1.318,11.29 1.659,11.632 L2.278,12.251 C2.62,12.593 3.196,12.53 3.544,12.29 L4.556,11.645 C4.831,11.79 5.118,11.911 5.414,12.005 L5.694,13.124 C5.79,13.541 6.085,13.999 6.569,13.999 L7.443,13.999 C7.927,13.999 8.291,13.548 8.366,13.131 L8.619,11.991 C8.894,11.902 9.157,11.79 9.41,11.659 L10.396,12.289 C10.745,12.53 11.321,12.592 11.663,12.25 L12.282,11.631 C12.624,11.289 12.509,10.756 12.282,10.394 L11.675,9.38 C11.797,9.14 11.902,8.89 11.987,8.63 L13.125,8.347 C13.541,8.25 14,7.955 14,7.471 L14,6.596 C14,6.113 13.549,5.748 13.131,5.673 L13.131,5.674 Z" id="Fill-3" fill="#367FC9"></path>
            </g>
        </g>
    </g>
</svg>
