<?xml version="1.0" encoding="UTF-8"?>
<svg width="32px" height="32px" viewBox="0 0 32 32" version="1.1" xmlns="http://www.w3.org/2000/svg" xmlns:xlink="http://www.w3.org/1999/xlink">
    <title>wizard icon</title>
    <g id="wizard-icon" stroke="none" stroke-width="1" fill="none" fill-rule="evenodd">
        <g id="编组" transform="translate(1.000000, 2.000000)">
            <g id="Template备份-2">
                <path d="M25,0 L25,12.919 L24,12.586 L24,1 L1,1 L1,25 L20.606,25 L21.607,26 L0,26 L0,0 L25,0 Z M25,14.563 L25,21.07 L24,20.071 L24,14.896 L25,14.563 Z" id="形状" fill="#666666" fill-rule="nonzero"></path>
                <path d="M24,6 L24,12.586 L23.4997123,12.4196644 L22.6539031,9.88859792 C22.565967,9.62545103 22.2813228,9.48340283 22.0181324,9.57132438 C21.868254,9.62139287 21.7506667,9.73904317 21.700695,9.88893191 L20.856969,12.4196644 L19.5507731,12.8542686 L13.8230227,11.7108586 L13.2423472,8.80787902 C13.1335088,8.26376134 12.6041104,7.91088323 12.0599028,8.0197037 C11.6620449,8.0992599 11.3510715,8.4102316 11.2715658,8.80803651 L10.6914044,11.7108586 L8.55820865,12.1369732 C8.0139794,12.2456853 7.6609375,12.7749259 7.76966749,13.3190652 C7.84919127,13.7170421 8.16037626,14.0281035 8.55843727,14.1075218 L10.6914044,14.5330763 L11.6279632,19.2194316 L11.4870458,19.7819243 L9.82620618,20.196811 C9.28777279,20.3313145 8.96034097,20.8767656 9.09486674,21.41511 C9.18487023,21.7752855 9.46618459,22.0564856 9.82644124,22.1463874 L11.4870458,22.56079 L11.9018425,24.2180236 C12.0365743,24.7563165 12.5822408,25.0834854 13.1206227,24.9487758 C13.4804554,24.8587413 13.7614195,24.5778361 13.8514848,24.2180668 L14.2663705,22.56079 L17.384981,21.7826209 L20.606,25 L1,25 L1,6 L24,6 Z M24,14.896 L24,20.071 L22.3702051,18.4434302 L23.4997123,15.063055 L24,14.896 Z" id="形状" fill="#FFFFFF"></path>
                <path d="M17.384981,21.7826209 L18,22.397 L18,25 L17,25 L17,21.878 L17.384981,21.7826209 Z M8,1 L8,5 L17,5 L17,1 L18,1 L18,5 L24,5 L24,6 L18,6 L18,10 L21.663,10 L21.329,11 L18,11 L18,12.544 L17,12.345 L17,11 L13.681,11 L13.481,10 L17,10 L17,6 L8,6 L8,10 L11.033,10 L10.833,11 L8,11 L7.99931178,12.4599788 C7.80065707,12.6869449 7.70600196,13.000451 7.76966749,13.3190652 C7.80485905,13.4951814 7.88541721,13.6542768 7.99879473,13.7838091 L8,15 L10.784,15 L10.984,16 L8,16 L8,20 L10.61,20 L9.82620618,20.196811 C9.4280981,20.2962605 9.14534164,20.6203693 9.07937573,21.0001558 L8,21 L8,25 L7,25 L7,21 L1,21 L1,20 L7,20 L7,16 L1,16 L1,15 L7,15 L7,11 L1,11 L1,10 L7,10 L7,6 L1,6 L1,5 L7,5 L7,1 L8,1 Z M23.688,15 L24,15 L24,16 L23.186,16 L23.4997123,15.063055 L23.688,15 Z M22.69,10 L24,10 L24,11 L23.025,11 L22.69,10 Z" id="形状" fill="#BBBBBB"></path>
                <rect id="矩形" fill="#81BEFC" x="1" y="1" width="23" height="4"></rect>
            </g>
            <path d="M16.5812755,14.3932004 C16.2417484,14.3932004 15.9169341,14.5316297 15.681996,14.7764551 L14.7846231,15.6740274 C14.3031427,16.1762769 14.3031427,16.968192 14.7846231,17.4704415 L25.944586,28.6183651 C26.1791951,28.8628158 26.503747,29.0007139 26.8427747,29.0000055 C27.1818025,28.999275 27.5057647,28.8600007 27.7393317,28.6145565 L28.6379757,27.7169842 C29.1196887,27.216698 29.12081,26.426026 28.6405178,25.9243788 L17.4805549,14.7764551 C17.2456168,14.5316297 16.9208025,14.3932004 16.5812755,14.3932004 Z M12.8131992,18.5216294 L12.3047726,20.5529103 L10.2710664,21.0607305 L12.3047726,21.5685508 L12.8131992,23.5998317 L13.3216257,21.5685508 L15.3553319,21.0607305 L13.3216257,20.5529103 L12.8131992,18.5216294 Z M16.5806399,15.6740274 L18.3791989,17.4704415 L17.4805549,18.3680137 L15.6947066,16.5855647 L16.5806399,15.6740274 Z M12.177666,9 L11.5167114,12.3059097 L9,12.8086517 L11.5167114,13.3113938 L12.177666,16.6173035 L12.8386205,13.3113938 L15.3553319,12.8086517 L12.8386205,12.3059097 L12.177666,9 Z M22.3461971,11.5391012 L21.8695471,12.9673456 L20.4395975,13.443427 L21.8695471,13.9195085 L22.3461971,15.3477529 L22.8228469,13.9195085 L24.2527966,13.443427 L22.8228469,12.9673456 L22.3461971,11.5391012 Z" id="形状" fill="#367FCA" fill-rule="nonzero"></path>
        </g>
    </g>
</svg>
