<?xml version="1.0" encoding="UTF-8"?>
<svg viewBox="0 0 64 49" version="1.1" xmlns="http://www.w3.org/2000/svg" xmlns:xlink="http://www.w3.org/1999/xlink">
    <title>Light9</title>
    <g id="Light9" stroke="none" stroke-width="1" fill="none" fill-rule="evenodd">
        <g id="编组备份-5" transform="translate(1.000000, 0.000000)">
            <rect id="矩形" fill="#FFFFFF" x="0" y="0" width="61" height="49"></rect>
            <path d="M61,24 L61,30 L0,30 L0,24 L61,24 Z M61,7 L61,12 L0,12 L0,7 L61,7 Z" id="形状结合" fill="#DDEBF7"></path>
            <path d="M61,0 L61,7 L13,7 L13,42 L61,42 L61,49 L0,49 L0,42 L12,42 L12,7 L0,7 L0,0 L61,0 Z M12,43 L1,43 L1,48 L12,48 L12,43 Z M60,48 L60,43 L13,43 L13,48 L60,48 Z M12,1 L1,1 L1,6 L12,6 L12,1 Z M60,1 L13,1 L13,6 L60,6 L60,1 Z" id="形状结合" fill="#5B9BD5"></path>
            <path d="M61,36 L61,37 L0,37 L0,36 L61,36 Z M61,18 L61,19 L0,19 L0,18 L61,18 Z" id="形状结合" fill="#DDEBF7"></path>
            <path d="M10,45 L10,46 L3,46 L3,45 L10,45 Z M22,45 L22,46 L15,46 L15,45 L22,45 Z M34,45 L34,46 L27,46 L27,45 L34,45 Z M46,45 L46,46 L39,46 L39,45 L46,45 Z M58,45 L58,46 L51,46 L51,45 L58,45 Z M10,27 L10,28 L3,28 L3,27 L10,27 Z M22,27 L22,28 L15,28 L15,27 L22,27 Z M34,27 L34,28 L27,28 L27,27 L34,27 Z M46,27 L46,28 L39,28 L39,27 L46,27 Z M58,27 L58,28 L51,28 L51,27 L58,27 Z M10,9 L10,10 L3,10 L3,9 L10,9 Z M22,9 L22,10 L15,10 L15,9 L22,9 Z M34,9 L34,10 L27,10 L27,9 L34,9 Z M46,9 L46,10 L39,10 L39,9 L46,9 Z M58,9 L58,10 L51,10 L51,9 L58,9 Z M10,3 L10,4 L3,4 L3,3 L10,3 Z M22,3 L22,4 L15,4 L15,3 L22,3 Z M34,3 L34,4 L27,4 L27,3 L34,3 Z M46,3 L46,4 L39,4 L39,3 L46,3 Z M58,3 L58,4 L51,4 L51,3 L58,3 Z" id="形状结合" fill="#000000"></path>
            <path d="M10,39 L10,40 L3,40 L3,39 L10,39 Z M22,39 L22,40 L15,40 L15,39 L22,39 Z M34,39 L34,40 L27,40 L27,39 L34,39 Z M46,39 L46,40 L39,40 L39,39 L46,39 Z M58,39 L58,40 L51,40 L51,39 L58,39 Z" id="形状结合" fill="#548235"></path>
            <path d="M10,39 L10,40 L3,40 L3,39 L10,39 Z M22,39 L22,40 L15,40 L15,39 L22,39 Z M34,39 L34,40 L27,40 L27,39 L34,39 Z M46,39 L46,40 L39,40 L39,39 L46,39 Z M58,39 L58,40 L51,40 L51,39 L58,39 Z M10,33 L10,34 L3,34 L3,33 L10,33 Z M22,33 L22,34 L15,34 L15,33 L22,33 Z M34,33 L34,34 L27,34 L27,33 L34,33 Z M46,33 L46,34 L39,34 L39,33 L46,33 Z M58,33 L58,34 L51,34 L51,33 L58,33 Z M10,21 L10,22 L3,22 L3,21 L10,21 Z M22,21 L22,22 L15,22 L15,21 L22,21 Z M34,21 L34,22 L27,22 L27,21 L34,21 Z M46,21 L46,22 L39,22 L39,21 L46,21 Z M58,21 L58,22 L51,22 L51,21 L58,21 Z M10,15 L10,16 L3,16 L3,15 L10,15 Z M22,15 L22,16 L15,16 L15,15 L22,15 Z M34,15 L34,16 L27,16 L27,15 L34,15 Z M46,15 L46,16 L39,16 L39,15 L46,15 Z M58,15 L58,16 L51,16 L51,15 L58,15 Z" id="形状结合" fill="#5B9BD5"></path>
        </g>
    </g>
</svg>