<?xml version="1.0" encoding="UTF-8"?>
<svg viewBox="0 0 16 16" version="1.1" xmlns="http://www.w3.org/2000/svg" xmlns:xlink="http://www.w3.org/1999/xlink">
    <g id="sort-a-to-z" stroke="none" stroke-width="1" fill="none" fill-rule="evenodd">
        <g id="Sort-A-to-Z" transform="translate(1.000000, 1.000000)">
            <polygon id="Shape" fill="#666666" fill-rule="nonzero" points="11 13.9939004 14 11 12 11 12 0 10 0 10 11 8 11"></polygon>
            <g id="Group">
                <polygon id="Z" fill="#FA7541" points="0.805602716 8 6.25551783 8 6.25551783 8.78151261 2.05857385 13.1596639 6.5 13.1596639 6.5 14 0.5 14 0.5 13.2268908 4.70713073 8.84033613 0.805602716 8.84033613"></polygon>
                <path d="M2.81443299,0 L4.18556701,0 L7,7 L5.71134021,7 L5.04123711,5.24509804 L1.95876289,5.24509804 L1.28865979,7 L0,7 L2.81443299,0 Z M2.31958763,4.30392157 L4.68041237,4.30392157 L3.5257732,1.23529412 L3.48453608,1.23529412 L2.31958763,4.30392157 Z" id="A" fill="#367FC9"></path>
            </g>
        </g>
    </g>
</svg>