<?xml version="1.0" encoding="UTF-8"?>
<svg viewBox="0 0 32 32" version="1.1" xmlns="http://www.w3.org/2000/svg" xmlns:xlink="http://www.w3.org/1999/xlink">
    <g id="sort" stroke="none" stroke-width="1" fill="none" fill-rule="evenodd">
        <g id="Sort" transform="translate(3.000000, 5.000000)">
            <rect id="Rectangle" fill="#FFFFFF" x="0" y="0" width="26" height="22"></rect>
            <path d="M1,1 L1,21 L25,21 L25,1 L1,1 Z M0,0 L26,0 L26,22 L0,22 L0,0 Z M12.5,5 L13.5,5 L13.5,21 L12.5,21 L12.5,5 Z" id="Combined-Shape" fill="#666666" fill-rule="nonzero"></path>
            <rect id="Rectangle" fill="#367FC9" x="0" y="0" width="26" height="5"></rect>
            <g id="Group" transform="translate(4.000000, 7.000000)">
                <polygon id="Z" fill="#FA7541" points="0.75466893 0 5.29626486 0 5.29626486 0.651260504 1.79881154 4.29971989 5.5 4.29971989 5.5 5 0.5 5 0.5 4.3557423 4.00594228 0.700280112 0.75466893 0.700280112"></polygon>
                <path d="M2.41237113,6 L3.58762887,6 L6,12 L4.89543446,12 L4.32106038,10.4957983 L1.67893962,10.4957983 L1.10456554,12 L0,12 L2.41237113,6 Z M1.98821797,9.68907563 L4.01178203,9.68907563 L3.02209131,7.05882353 L2.98674521,7.05882353 L1.98821797,9.68907563 Z" id="A" fill="#367FC9"></path>
            </g>
            <g id="Group" transform="translate(16.000000, 7.000000)">
                <polygon id="Z" fill="#FA7541" points="0.75466893 7 5.29626486 7 5.29626486 7.6512605 1.79881154 11.2997199 5.5 11.2997199 5.5 12 0.5 12 0.5 11.3557423 4.00594228 7.70028011 0.75466893 7.70028011"></polygon>
                <path d="M2.41237113,0 L3.58762887,0 L6,6 L4.89543446,6 L4.32106038,4.49579832 L1.67893962,4.49579832 L1.10456554,6 L0,6 L2.41237113,0 Z M1.98821797,3.68907563 L4.01178203,3.68907563 L3.02209131,1.05882353 L2.98674521,1.05882353 L1.98821797,3.68907563 Z" id="A" fill="#367FC9"></path>
            </g>
        </g>
    </g>
</svg>