<?xml version="1.0" encoding="UTF-8"?>
<svg width="16px" height="16px" viewBox="0 0 16 16" version="1.1" xmlns="http://www.w3.org/2000/svg" xmlns:xlink="http://www.w3.org/1999/xlink">
    <title>Calculate Sheet</title>
    <g id="Calculate-Sheet" stroke="none" stroke-width="1" fill="none" fill-rule="evenodd">
        <path d="M16,5 L8,5 L8,12.1428571 L0,12.1428571 L0,0.142857143 L16,0.142857143 L16,5 Z" id="形状结合" fill="#FFFFFF" fill-rule="nonzero"></path>
        <path d="M16,5 L15,5 L15,1 L1,1 L1,11 L8,11 L8,12 L0,12 L0,0 L16,0 L16,5 Z" id="形状结合" fill="#666666" fill-rule="nonzero"></path>
        <path d="M6,1 L6,3 L10,3 L10,1 L11,1 L11,3 L15,3 L15,4 L11,4 L11,5 L10,5 L10,4 L6,4 L6,8 L8,8 L8,9 L6,9 L6,11 L5,11 L5,9 L1,9 L1,8 L5,8 L5,4 L1,4 L1,3 L5,3 L5,1 L6,1 Z" id="形状结合" fill="#BBBBBB" fill-rule="nonzero"></path>
        <polygon id="矩形" fill="#666666" points="-3.55271368e-15 11 7.37556076 11 4.37556076 14 -3.55271368e-15 14"></polygon>
        <polygon id="矩形备份-24" fill="#FFFFFF" points="1 12 5 12 4 13 1 13"></polygon>
        <rect id="矩形" fill="#666666" x="9" y="6" width="7" height="9"></rect>
        <rect id="矩形备份-25" fill="#FFFFFF" x="10" y="7" width="5" height="7"></rect>
        <rect id="矩形备份-26" fill="#367FC9" x="11" y="8" width="3" height="1"></rect>
        <rect id="矩形备份-27" fill="#666666" x="11" y="10" width="1" height="1"></rect>
        <rect id="矩形备份-29" fill="#666666" x="11" y="12" width="1" height="1"></rect>
        <rect id="矩形备份-28" fill="#666666" x="13" y="10" width="1" height="1"></rect>
        <rect id="矩形备份-30" fill="#666666" x="13" y="12" width="1" height="1"></rect>
    </g>
</svg>