<?xml version="1.0" encoding="UTF-8"?>
<svg viewBox="0 0 16 16" version="1.1" xmlns="http://www.w3.org/2000/svg" xmlns:xlink="http://www.w3.org/1999/xlink">
    <!-- Generator: Sketch 55.2 (78181) - https://sketchapp.com -->
    <title>engineering</title>
    <desc>Created with Sketch.</desc>
    <g id="engineering" stroke="none" stroke-width="1" fill="none" fill-rule="evenodd">
        <g id="engineering备份-2">
            <path d="M7.07165027,16 L1.71428548,16 C1.2499043,16 0.848381136,15.8022219 0.50895261,15.406222 C0.169904442,15.0106658 0,14.5422222 0,14 L0,2.5 C0,1.81244652 0.209523186,1.22400289 0.629332951,0.734221732 C1.04914272,0.244889015 1.55352301,0 2.14285953,0 L11.3573315,0 C11.5356172,0 11.6876167,0.072888892 11.8125694,0.218667145 C11.9375218,0.364444929 12,0.541778019 12,0.749777979 L12,5.15943913 C11.7977135,5.06123033 11.5713565,5.00440736 11.331736,5.00015726 C10.4496947,4.98500945 9.72272401,5.68699269 9.70733601,6.56857044 L9.70489263,6.70855158 C8.92567901,7.21461368 8.41974669,8.08337657 8.40237914,9.05376637 C8.39118857,9.65918083 8.57169065,10.2383482 8.90263264,10.7202324 L7.11056701,15.0037046 C6.97270956,15.3334273 6.96793092,15.6854148 7.07165027,16 Z" id="形状结合" fill="#FFFFFF"></path>
            <path d="M7.07165027,16 L1.71428548,16 C1.2499043,16 0.848381136,15.8022219 0.50895261,15.406222 C0.169904442,15.0106658 0,14.5422222 0,14 L0,2.5 C0,1.81244652 0.209523186,1.22400289 0.629332951,0.734221732 C1.04914272,0.244889015 1.55352301,0 2.14285953,0 L11.3573315,0 C11.5356172,0 11.6876167,0.072888892 11.8125694,0.218667145 C11.9375218,0.364444929 12,0.541778019 12,0.749777979 L12,5.15943913 C11.7977135,5.06123033 11.5713565,5.00440736 11.331736,5.00015726 C11.2678937,4.99906086 11.2048638,5.00172143 11.1428573,5.00793514 L11.1428573,0.999993555 L2.14285846,0.999993555 C1.78590673,0.999993555 1.48228668,1.14577134 1.23238269,1.43732628 C0.982097011,1.72932622 0.857144254,2.08310428 0.857144254,2.49999355 L0.857144254,12.2813195 C1.11511208,12.0970086 1.41178793,11.9996321 1.714287,11.9999936 L8.36722214,11.9999936 L7.94885561,12.9999912 L1.70172574,12.9999912 C1.47275012,12.9999912 1.27493037,13.0991023 1.10789038,13.2968802 C0.940850396,13.4946583 0.85714301,13.7293239 0.85714301,13.9999912 C0.85714301,14.2711019 0.940850528,14.5053237 1.10789038,14.7031018 C1.27493037,14.9008799 1.47312491,14.9999912 1.70172574,14.9999912 L7.11212059,14.9999912 L7.11056701,15.0037046 C6.97270956,15.3334273 6.96793092,15.6854148 7.07165027,16 Z" id="形状结合" fill="#666666" fill-rule="nonzero"></path>
            <path d="M13.433217,12.9284861 C13.433217,12.9284861 13.5418293,13.1934396 13.7590539,13.7233465 L14.451509,15.4122525 C14.5411011,15.6300747 14.436861,15.8789085 14.2189311,15.9680257 C14.1638467,15.9907354 14.1063764,16.0009165 14.0501727,16 C13.8852047,15.9970559 13.7297541,15.8980549 13.6630976,15.7356083 L12.9792699,14.0676865 C12.4063453,14.2655398 11.795975,14.3634879 11.1689276,14.3525427 L11.1640634,14.3524578 C10.5961912,14.3421884 10.0433843,14.2415788 9.51527693,14.0549233 L8.81898928,15.7186535 C8.74992641,15.8843464 8.58794423,15.983203 8.41872178,15.9802493 C8.36629832,15.9793342 8.31321792,15.9685263 8.26175059,15.9472082 C8.04481852,15.8563001 7.94228905,15.6068213 8.0330859,15.3896566 L10.066892,10.5283658 C9.65194096,10.1799359 9.39144789,9.65438958 9.40221902,9.071661 C9.41680466,8.25670694 9.95760722,7.57249528 10.6940884,7.33625419 L10.7071837,6.58602285 C10.7129341,6.25658131 10.9845717,5.99434256 11.314002,6 C11.6433286,6.0058412 11.9056262,6.27739983 11.8998758,6.60684136 L11.8867755,7.35736107 C12.6160899,7.61955391 13.1322078,8.32328459 13.1172496,9.13928566 C13.1071357,9.6988879 12.8487961,10.1967347 12.4496316,10.5305046 L13.433217,12.9284861 Z M11.2780606,8.09980753 C10.7230672,8.09012008 10.2641165,8.53302794 10.2540973,9.08718624 C10.2491668,9.35579868 10.349257,9.61027369 10.5356192,9.80373908 C10.7221106,9.99710272 10.97268,10.106239 11.2414188,10.1111605 L11.2422372,10.1111748 C11.7962754,10.1208456 12.2553535,9.67787006 12.2653723,9.12372302 C12.2754197,8.5692655 11.832678,8.10996115 11.2780612,8.09980754 L11.2780606,8.09980753 Z M11.1837899,13.5006068 L11.1837844,13.5006067 C11.6925027,13.5094864 12.1880467,13.4320174 12.6548921,13.2766466 L11.6860722,10.9139422 C11.5390461,10.948595 11.3852204,10.9659262 11.2273634,10.9631708 L11.2258303,10.9631441 C11.0896339,10.9606515 10.9568842,10.9430569 10.8296951,10.9126687 L9.84410418,13.2680642 C10.2724323,13.413787 10.7201583,13.4923278 11.1796403,13.5005343 L11.1837899,13.5006068 Z" id="形状" fill="#E65249" fill-rule="nonzero"></path>
        </g>
    </g>
</svg>