<?xml version="1.0" encoding="UTF-8"?>
<svg viewBox="0 0 32 32" version="1.1" xmlns="http://www.w3.org/2000/svg" xmlns:xlink="http://www.w3.org/1999/xlink">
    <g id="lookup-&amp;-reference" stroke="none" stroke-width="1" fill="none" fill-rule="evenodd">
        <g id="lookup-&amp;-reference备份" transform="translate(5.000000, 2.000000)">
            <path d="M22,21.4371021 C22,22.0204344 21.7548572,22.4217694 21.2631744,22.6403253 C21.034095,23.8069926 21.034095,25.0102131 21.2631744,26.2500003 L21.4105395,26.2500003 C21.8037453,26.2500003 22,26.4685559 22,26.9064444 L22,27.343556 C22,27.7814442 21.8037455,28 21.4105395,28 L3.14285672,28 C2.29149121,28 1.55536542,27.6538883 0.933079786,26.9608885 C0.311491476,26.2686652 0,25.4488888 0,24.5 L0,4.37500461 C0,3.17178141 0.384125841,2.14200505 1.15377708,1.28488803 C1.92342831,0.428555776 2.84812551,0 3.92857581,0 L20.8217744,0 C21.1486315,0 21.4272974,0.127555561 21.6563772,0.382667503 C21.8854566,0.637778625 22,0.948111534 22,1.31211146 L22,21.4371021 Z" id="路径" fill="#FFFFFF"></path>
            <path d="M22,21.4371021 C22,22.0204344 21.7548572,22.4217694 21.2631744,22.6403253 C21.034095,23.8069926 21.034095,25.0102131 21.2631744,26.2500003 L21.4105395,26.2500003 C21.8037453,26.2500003 22,26.4685559 22,26.9064444 L22,27.343556 C22,27.7814442 21.8037455,28 21.4105395,28 L3.14285672,28 C2.29149121,28 1.55536542,27.6538883 0.933079786,26.9608885 C0.311491476,26.2686652 0,25.4488888 0,24.5 L0,4.37500461 C0,3.17178141 0.384125841,2.14200505 1.15377708,1.28488803 C1.92342831,0.428555776 2.84812551,0 3.92857581,0 L20.8217744,0 C21.1486315,0 21.4272974,0.127555561 21.6563772,0.382667503 C21.8854566,0.637778625 22,0.948111534 22,1.31211146 L22,21.4371021 Z M19.5714289,26.2499846 C19.4103951,25.0833166 19.4103951,23.916652 19.5714289,22.7499846 L3.11983052,22.7499846 C2.70004189,22.7499846 2.33737235,22.923429 2.03113237,23.2695404 C1.72489239,23.615652 1.57142885,24.0263168 1.57142885,24.4999843 C1.57142885,24.9744283 1.72489263,25.3843165 2.03113237,25.7304282 C2.33737235,26.0765398 2.70072899,26.2499846 3.11983052,26.2499846 L19.5714289,26.2499846 Z M20.4285716,20.999985 L20.4285716,1.74998872 L3.92857385,1.74998872 C3.27416233,1.74998872 2.71752557,2.00509984 2.25936827,2.51532099 C1.80051119,3.02632089 1.57143113,3.64543249 1.57143113,4.37498821 L1.57143113,21.4923092 C2.04437214,21.1697651 2.58827787,20.9993562 3.14285949,20.9999769 L20.4285716,20.999985 Z" id="形状" fill="#666666" fill-rule="nonzero"></path>
            <path d="M9.91189332,5 C11.5411569,5 13.0307622,5.65170405 14.1014204,6.72235534 C15.1720771,7.7930121 15.8237757,9.28261883 15.8237757,10.9118824 C15.8237757,12.354935 15.311723,13.6583431 14.4738176,14.6824622 L17.8254365,18.0340811 C18.0581878,18.2668324 18.0581878,18.5926851 17.8254365,18.8254365 C17.5926851,19.0581878 17.2668324,19.0581878 17.0340811,18.8254365 L13.6824622,15.4738176 C12.6583554,16.311723 11.3549487,16.8237757 9.95843511,16.8237757 C8.32917156,16.8237757 6.8395662,16.1720716 5.76890807,15.1014204 C4.69825132,14.0307636 4,12.5411569 4,10.9118933 C4,9.28262976 4.65170405,7.7930244 5.72235534,6.72236628 C6.7930121,5.65170952 8.28261883,5 9.91188238,5 L9.91189332,5 Z M13.3100649,7.51371075 C12.4256095,6.62925535 11.2618542,6.11719718 9.91189332,6.11719718 C8.60848521,6.11719718 7.39818256,6.62924988 6.51372169,7.51371075 C5.62926629,8.39816616 5.11720812,9.56192154 5.11720812,10.9118824 C5.11720812,12.2618405 5.62926082,13.4255931 6.51372169,14.310054 C7.39817709,15.1945094 8.56193248,15.7065676 9.86534059,15.7065676 C11.1687487,15.7065676 12.3790513,15.1945149 13.2169595,14.310054 C14.1014149,13.4255986 14.6134731,12.2618432 14.6134731,10.9584351 C14.7065736,9.56192154 14.1479704,8.39817163 13.3100649,7.51371075 Z" id="形状" fill="#367FC9" fill-rule="nonzero"></path>
        </g>
    </g>
</svg>