<?xml version="1.0" standalone="no"?>
<!DOCTYPE svg PUBLIC "-//W3C//DTD SVG 20010904//EN"
 "http://www.w3.org/TR/2001/REC-SVG-20010904/DTD/svg10.dtd">
<svg version="1.0" xmlns="http://www.w3.org/2000/svg"
 width="512pt" height="512pt" viewBox="0 0 512 512"
 preserveAspectRatio="xMidYMid meet">

<g transform="translate(0,512) scale(0,-0)"
fill="#000000" stroke="none">
<path d="M2581 4694 c-23 -30 -27 -71 -8 -95 25 -32 56 -39 179 -39 l123 0
-402 -402 -403 -403 -202 201 c-112 111 -214 207 -226 214 -13 6 -36 9 -50 5
-30 -7 -1123 -1091 -1148 -1138 -30 -56 7 -117 71 -117 26 0 95 65 562 532
l533 533 213 -213 c194 -193 216 -212 247 -212 32 0 67 33 477 442 l443 442 0
-122 c0 -123 7 -154 39 -179 26 -20 70 -15 96 12 l25 24 0 249 c0 247 0 249
-23 270 -23 21 -30 22 -274 22 l-252 0 -20 -26z"/>
<path d="M3599 4112 c-54 -2 -70 -7 -88 -26 l-21 -22 -2 -1470 -3 -1469 -175
0 -175 0 0 1065 c-1 817 -4 1070 -13 1087 -7 13 -28 26 -50 31 -44 11 -1019 8
-1045 -3 -43 -18 -42 -1 -42 -1115 l-1 -1065 -174 0 -175 0 -3 744 -2 745 -22
23 -21 23 -524 0 c-323 0 -531 -4 -543 -10 -39 -21 -40 -50 -40 -801 l0 -729
-142 0 c-117 0 -150 -4 -183 -19 -59 -26 -97 -63 -125 -117 -22 -44 -25 -65
-28 -190 -3 -83 1 -163 7 -195 16 -74 66 -140 132 -173 l53 -26 2366 0 2366 0
53 26 c64 32 116 98 131 167 15 71 13 295 -4 350 -19 64 -67 121 -128 151 -49
24 -61 26 -195 26 l-143 0 0 1455 c0 1568 2 1514 -51 1530 -21 7 -858 13 -990
7z m-629 -1974 l0 -1013 -410 0 -410 0 0 1013 0 1012 410 0 410 0 0 -1012z
m-1500 -325 l0 -688 -410 0 -410 0 -2 688 -3 687 413 0 412 0 0 -687z m3442
-864 c35 -19 48 -70 48 -187 0 -122 -10 -163 -45 -186 -22 -14 -256 -16 -2355
-16 -1651 0 -2337 3 -2352 11 -35 19 -48 70 -48 189 0 117 13 169 47 189 26
15 4676 15 4705 0z"/>
</g>
</svg>
