<?xml version="1.0" encoding="UTF-8"?>
<svg width="24px" height="24px" viewBox="0 0 24 24" version="1.1" xmlns="http://www.w3.org/2000/svg" xmlns:xlink="http://www.w3.org/1999/xlink">
    <title>Insert Form Control</title>
    <g id="Insert-Form-Control" stroke="none" stroke-width="1" fill="none" fill-rule="evenodd">
        <path d="M14,2 C15.1045695,2 16,2.8954305 16,4 L16,5 L22,5 L22,9 L14,9 L14.0002435,9.12595483 C12.2748927,9.56991294 11,11.1360729 11,13 C11,14.8639271 12.2748927,16.4300871 14.0002435,16.8740452 L14,19 L0,19 L0,5 L6,5 L6,4 C6,2.8954305 6.8954305,2 8,2 L14,2 Z M14,3 L8,3 C7.44771525,3 7,3.44771525 7,4 L7,5 L15,5 L15,4 C15,3.44771525 14.5522847,3 14,3 Z" id="形状结合" fill="#666666"></path>
        <path d="M21,6 L21,9 L14,9 L13.9998796,9.53519846 C12.8043432,10.2268344 12,11.519485 12,13 C12,14.480515 12.8043432,15.7731656 13.9998796,16.4648015 L14,18 L1,18 L1,6 L21,6 Z" id="形状结合" fill="#FFFFFF"></path>
        <rect id="矩形备份-2" fill="#666666" x="0" y="11" width="12" height="1"></rect>
        <rect id="矩形备份-3" fill="#666666" x="8" y="9" width="4" height="5"></rect>
        <rect id="矩形备份-4" fill="#FFFFFF" x="9" y="10" width="2" height="3"></rect>
        <path d="M19,19 L19,18 L21,18 L21,14 L20,14 L20,10 L23,10 L23,14 L22,14 L22,18 L24,18 L24,19 L23,19 L23,23 C23,23.5522847 22.5522847,24 22,24 L21,24 C20.4477153,24 20,23.5522847 20,23 L20,19 L19,19 Z" id="形状结合" fill="#367FC9"></path>
        <path d="M17.0009007,10.1710242 C18.1656226,10.5831148 19,11.6941178 19,13 C19,14.3058822 18.1656226,15.4168852 17.0009007,15.8289758 L17,24 L15,24 L15.0000889,15.8293257 C13.8348501,15.4175144 13,14.3062521 13,13 C13,11.6937479 13.8348501,10.5824856 15.0000889,10.1706743 L15,13 L17,13 L17.0009007,10.1710242 Z" id="形状结合" fill="#367FC9"></path>
    </g>
</svg>