<?xml version="1.0" encoding="UTF-8"?>
<svg viewBox="0 0 32 32" version="1.1" xmlns="http://www.w3.org/2000/svg" xmlns:xlink="http://www.w3.org/1999/xlink">
    <g id="format-table" stroke="none" stroke-width="1" fill="none" fill-rule="evenodd">
        <g id="Format-Table" transform="translate(1.000000, 1.000000)">
            <g id="Group-6">
                <path d="M8.68331277,23 L-1.77635684e-15,23 L-1.77635684e-15,-3.55271368e-15 L28,-3.55271368e-15 L28,6.59954322 C27.813298,6.69734555 27.6208445,6.80417024 27.4220382,6.91905276 C27.2853456,6.99804217 27.1446374,7.08234858 27,7.17185652 L27,1 L1,1 L1,22 L9.22132465,22 C9.12626872,22.1813878 8.99039877,22.4422483 8.96966636,22.481643 C8.85681105,22.6960851 8.76393726,22.864572 8.68331277,23 Z M22.9315698,22 L27,22 L27,17.5406328 C27.3399301,17.1429608 27.6750299,16.7443842 28,16.3506403 L28,23 L21.9262145,23 C22.0578537,22.8680702 22.1834811,22.7429349 22.3083843,22.6193584 C22.4006338,22.528197 22.4006338,22.528197 22.4930515,22.4373297 C22.634133,22.2987272 22.7805549,22.1526809 22.9315698,22 Z" id="Combined-Shape" fill="#666666" fill-rule="nonzero"></path>
                <path d="M14.4288403,17.9832816 C13.1288358,18.0703791 11.8735473,18.6643857 10.8558232,19.6472129 C10.2392788,20.2415793 9.81061762,20.8884753 9.29343045,21.8629673 C9.276454,21.8949545 9.25085942,21.9436411 9.22132465,22 L2.66699219,22 L1,22 L1,1 L27,1 L27,7.17185652 C26.0226156,7.77670454 24.8658061,8.61907307 23.5561833,9.66333625 C21.1576455,11.5758753 18.2530436,14.1767213 16.301631,16.0953563 C15.6423036,16.74379 14.9982149,17.3934893 14.4288403,17.9832816 Z M27,17.5406328 L27,22 L22.9315698,22 C24.1240037,20.794411 25.6028044,19.175162 27,17.5406328 Z" id="Combined-Shape" fill="#FFFFFF" fill-rule="nonzero"></path>
                <path d="M22,10.9396007 C21.5896334,11.2845384 21.1740407,11.6399171 20.7593302,12 L15,12 L15,17 L15.392361,17 C14.8913002,17.5043725 14.4173027,17.9915547 14,18.4310698 L14,18 L8,18 L8,22 L7,22 L7,18 L1,18 L1,17 L7,17 L7,12 L1,12 L1,11 L7,11 L7,6 L1,6 L1,5 L7,5 L7,1 L8,1 L8,5 L14,5 L14,1 L15,1 L15,5 L21,5 L21,1 L22,1 L22,5 L27,5 L27,6 L22,6 L22,10.9396007 Z M27,17.5406328 L27,18 L26.6048553,18 C26.737086,17.8472315 26.8689022,17.6939994 27,17.5406328 Z M21,6 L15,6 L15,11 L21,11 L21,6 Z M14,17 L14,12 L8,12 L8,17 L14,17 Z M14,11 L14,6 L8,6 L8,11 L14,11 Z" id="Combined-Shape" fill="#BBBBBB" fill-rule="nonzero"></path>
                <path d="M10.6740916,20.4822307 C10.1871182,20.9156125 9.61394293,21.3802433 9.2262787,22 L8,22 L8,6 L27,6 L27,7.13687538 C26.0060713,7.74487664 24.8220561,8.60452298 23.4767985,9.67720056 C21.0782607,11.5897396 18.1736588,14.1905856 16.2222462,16.1092206 C15.1085793,17.204487 14.0383892,18.3033642 13.2982912,19.1110571 C12.3467669,19.3220768 11.4442823,19.7956266 10.6740916,20.4822307 Z M27,17.461508 L27,22 L22.8658926,22 C24.0785911,20.7729583 25.5849372,19.1212143 27,17.461508 Z" id="Shape" fill="#81BEFC"></path>
                <path d="M8,11 L14,11 L14,6 L8,6 L8,11 Z M8,12 L8,17 L14,17 L14,12 L8,12 Z M8,18 L8,22 L7,22 L7,6 L7,5 L27,5 L27,6 L22,6 L22,10.8868131 C21.5691534,11.2481418 21.1320903,11.6214285 20.6959161,12 L15,12 L15,17 L15.326752,17 C14.8521413,17.4775732 14.4015213,17.9400035 14,18.3614665 L14,18 L8,18 Z M15,6 L15,11 L21,11 L21,6 L15,6 Z M27,17.461508 L27,18 L26.5374686,18 C26.6923906,17.8209491 26.8467307,17.6412753 27,17.461508 Z" id="合并形状" fill="#367FC9"></path>
            </g>
            <g id="Group-2" transform="translate(5.000000, 8.000000)">
                <g id="Group-8" transform="translate(8.000000, 0.000000)">
                    <path d="M16.4043942,0.5 C15.1552465,-0.695018318 7.72202779,6.48979463 4.62443167,9.53536082 C3.0865236,11.0478589 1.54528726,12.6586615 1.07459785,13.2636608 C0.868898104,13.5286504 1.14114776,13.6085103 1.26093761,13.6702203 C1.87077685,13.9823999 2.29669632,14.2703795 2.84724563,14.8112488 C3.39900494,15.3521181 3.69303457,15.7707776 4.00763417,16.3709369 C4.07176409,16.4895167 4.15404399,16.7557164 4.42145366,16.5548566 C5.03855288,16.0914272 6.47451612,14.5342054 8.0124242,13.0241273 C11.1112303,9.97977113 17.653542,1.69501832 16.4043942,0.5 Z" id="Path" fill="#BBBBBB"></path>
                    <path d="M16.7797621,0.214242315 C18.1576713,1.57258173 12.6939989,8.71168127 7.63860331,13.8294796 C7.54686755,13.9224229 7.54686755,13.9224229 7.45546278,14.0155001 C7.14344356,14.3336051 6.82812086,14.6605428 6.42519363,15.0822926 C6.47885924,15.02612 5.68775839,15.8556344 5.49092623,16.0605047 C4.7904193,16.7896185 4.3885176,17.1839833 4.10520386,17.403225 C3.65975215,17.7480061 3.24499853,17.5629654 3.034567,17.1580086 C3.01840493,17.1269061 2.98601277,17.0585597 2.98243752,17.0516594 C2.68369062,16.4643882 2.42119504,16.0964607 1.94604907,15.6165095 C1.47356357,15.1381972 1.11009634,14.8722166 0.524454342,14.5632931 C0.52354065,14.5628081 0.455096927,14.5300223 0.423783622,14.5134925 C0.0219026316,14.3013461 -0.165304772,13.8673976 0.18286082,13.4052214 C0.64604621,12.7917388 2.12147268,11.1973152 3.67058047,9.62741136 C9.28874328,3.93541601 15.4331855,-1.11320956 16.7797621,0.214242315 Z M4.80128204,15.3569529 C4.99663092,15.1536264 5.78606588,14.3258588 5.73363013,14.3807441 C6.1392903,13.9561337 6.45736069,13.6263471 6.77292487,13.3046279 C6.86558383,13.2102735 6.86558383,13.2102735 6.95859315,13.1160398 C8.64797814,11.4058014 11.2026277,8.46465178 13.0727897,6.02100747 C15.1756765,3.27327346 16.3378834,1.16255106 16.1089122,0.936831782 C15.8695589,0.700877909 13.8583252,1.89848221 11.2027478,4.08045664 C8.94435494,5.93608157 6.18752749,8.4797739 4.351004,10.3404325 C3.01663056,11.6927194 1.72979516,13.0724902 1.14768977,13.7710186 C1.72056785,14.0890329 2.13191853,14.4028352 2.62576767,14.902775 C3.1260447,15.4081109 3.4385899,15.8290163 3.74930539,16.4096292 C3.98502174,16.1944138 4.32046306,15.8574072 4.80128204,15.3569529 Z" id="Path" fill="#666666" fill-rule="nonzero"></path>
                </g>
                <g id="Group-7" transform="translate(0.000000, 12.000000)" fill-rule="nonzero">
                    <path d="M7.00433435,1.97570156 C6.03504418,2.83797743 5.59686177,4.22494627 4.87743642,5.06698991 C4.19932258,5.86068096 1.72191196,6.28117641 1.04940873,6.95593273 C0.295964435,7.7119013 8.36905187,10.5043432 10.9838449,7.9363033 C13.5253157,5.4402746 13.5253157,3.59921956 11.7590589,1.97570156 C9.99280215,0.352183568 8.05090596,1.04235133 7.00433435,1.97570156 Z" id="Shape" fill="#FFFFFF"></path>
                    <path d="M5.96917625,3.67027726 C7.84717,4.11610414 8.94870274,4.58474281 9.27377446,5.07619328 C9.6043306,5.57593519 9.96685662,6.59447982 10.3613525,8.13182715 C10.4255582,8.07665778 10.4862344,8.01878677 10.5432416,7.95819458 C12.90547,5.4474135 13.0697638,3.65800803 11.3594741,1.95665108 C9.98841187,0.592749816 8.35215232,0.775254353 7.12264105,1.9619264 L7.12219342,1.9623579 C6.74292014,2.32750442 6.43669004,2.78913615 6.03444527,3.54633785 C6.01942805,3.57460686 5.99630332,3.61855779 5.96917625,3.67027726 Z M12.0637476,1.25001318 C14.1944517,3.3695887 13.9743004,5.76736594 11.2705319,8.64116544 C9.90962849,10.0876515 7.3017418,10.3096464 4.32895234,9.63558745 C3.17193821,9.37324269 2.06068691,8.9856931 1.26595454,8.57790892 C0.212873181,8.03756359 -0.340942147,7.47742037 0.227006312,6.86070607 C0.542236018,6.51840975 1.01429045,6.2753734 1.93111676,5.90783556 C2.04068114,5.86391332 2.16493905,5.81476193 2.39871085,5.72239222 C3.45889779,5.30208646 3.95800977,5.04376427 4.17616973,4.76742256 C4.37738342,4.51254659 4.56196161,4.20393247 4.8320543,3.69119899 C4.86179301,3.63474418 5.08467654,3.20706176 5.15278171,3.07885785 C5.60064796,2.23577644 5.95555594,1.70073797 6.42935872,1.24452197 C8.01758056,-0.28818211 10.2655235,-0.538818976 12.0637476,1.25001318 Z" id="Combined-Shape" fill="#367FC9"></path>
                </g>
            </g>
        </g>
    </g>
</svg>