<?xml version="1.0" encoding="UTF-8"?>
<svg viewBox="0 0 16 16" version="1.1" xmlns="http://www.w3.org/2000/svg" xmlns:xlink="http://www.w3.org/1999/xlink">
    <!-- Generator: Sketch 52.6 (67491) - http://www.bohemiancoding.com/sketch -->
    <title>callout-line call out 3-accent bar</title>
    <desc>Created with Sketch.</desc>
    <g id="callout-line-call-out-3-accent-bar" stroke="none" stroke-width="1" fill="none" fill-rule="evenodd">
        <g id="8.9" transform="translate(0.000000, 3.000000)" fill="#767676">
            <path d="M6,5.05399666 L3.12198635,5.05399666 L0.999739911,10 L0,9.59396327 L2.40027509,4 L6,4 L6,0 L7,0 L7,9 L6,9 L6,5.05399666 Z M8,0 L9,0 L9,1 L8,1 L8,0 Z M10,0 L11,0 L11,1 L10,1 L10,0 Z M12,0 L13,0 L13,1 L12,1 L12,0 Z M14,0 L15,0 L15,1 L14,1 L14,0 Z M15,1 L16,1 L16,2 L15,2 L15,1 Z M15,3 L16,3 L16,4 L15,4 L15,3 Z M15,5 L16,5 L16,6 L15,6 L15,5 Z M15,7 L16,7 L16,8 L15,8 L15,7 Z M14,8 L15,8 L15,9 L14,9 L14,8 Z M12,8 L13,8 L13,9 L12,9 L12,8 Z M10,8 L11,8 L11,9 L10,9 L10,8 Z M8,8 L9,8 L9,9 L8,9 L8,8 Z" id="合并形状"></path>
        </g>
    </g>
</svg>