<?xml version="1.0" encoding="UTF-8"?>
<svg viewBox="0 0 16 16" version="1.1" xmlns="http://www.w3.org/2000/svg" xmlns:xlink="http://www.w3.org/1999/xlink">
    <!-- Generator: Sketch 52.6 (67491) - http://www.bohemiancoding.com/sketch -->
    <title>callout-oval callout</title>
    <desc>Created with Sketch.</desc>
    <g id="callout-oval-callout" stroke="none" stroke-width="1" fill="none" fill-rule="evenodd">
        <g id="8.3" transform="translate(0.000000, 1.000000)" fill="#767676" fill-rule="nonzero">
            <path d="M4.29892272,12.6637271 L5.99584702,11.0446571 L6.46716699,11.1038891 C6.8063625,11.1465167 7.15132273,11.1681023 7.5,11.1681023 C11.1305446,11.1681023 14,8.84038053 14,6.08405115 C14,3.32772176 11.1305446,1 7.5,1 C3.86945537,1 1,3.32772176 1,6.08405115 C1,7.74001736 2.03638292,9.28996538 3.78051437,10.2483899 L4.29892272,10.5332625 L4.29892272,12.6637271 Z M6.34247521,12.0960847 L3.29892272,15 L3.29892272,11.1247856 C1.30826691,10.0308925 0,8.18140888 0,6.08405115 C0,2.72392248 3.35786438,0 7.5,0 C11.6421356,0 15,2.72392248 15,6.08405115 C15,9.44417982 11.6421356,12.1681023 7.5,12.1681023 C7.10633823,12.1681023 6.71976023,12.143499 6.34247521,12.0960847 Z" id="Combined-Shape"></path>
        </g>
    </g>
</svg>