<?xml version="1.0" encoding="UTF-8"?>
<svg viewBox="0 0 16 16" version="1.1" xmlns="http://www.w3.org/2000/svg" xmlns:xlink="http://www.w3.org/1999/xlink">
    <!-- Generator: Sketch 52.6 (67491) - http://www.bohemiancoding.com/sketch -->
    <title>callout-cloud callout</title>
    <desc>Created with Sketch.</desc>
    <g id="callout-cloud-callout" stroke="none" stroke-width="1" fill="none" fill-rule="evenodd">
        <g id="8.4" fill="#767676">
            <path d="M3,13 L4,13 L4,14 L3,14 L2,14 L2,12 L3,12 L3,13 Z M1,15 L2,15 L2,16 L1,16 L0,16 L0,14 L1,14 L1,15 Z M4.97330613,0.418120302 C6.08883523,-0.304671934 7.41782406,-0.0760360938 8.51062846,0.993015945 C10.3527351,-0.103115517 12.6776985,0.00710045726 14.3553679,1.13687653 C16.1765885,2.36332288 16.503261,4.33938104 15.0417879,5.88194957 C16.3742314,7.33766414 16.2930898,9.09002357 14.9476492,10.3334459 C13.9103404,11.2921007 12.4419029,11.6221894 11.338203,11.1104931 C10.7230015,11.6540086 9.81016316,11.98657 8.89117783,11.9995974 C7.77793351,12.0153787 6.84384799,11.5667414 6.27017542,10.7288856 C5.49552918,11.2788433 4.52422207,11.4440363 3.57616774,11.1611902 C2.16607176,10.7404969 1.3562067,9.47795645 1.64357124,8.07224329 C0.107397838,7.05732097 -0.417774343,5.42254421 0.349102651,4.00208703 C0.982131922,2.82955091 2.26150458,2.25683227 3.67254597,2.45616608 C3.81448947,1.62329286 4.2725507,0.872165453 4.97330613,0.418120302 Z M4.79315701,3.88333362 C1.4892606,2.04807454 -0.771741519,6.06240927 2.87937613,7.60179119 C1.4367198,10.1747986 5.68265811,11.6654154 6.65589737,8.50462504 C6.65589737,12.2489351 11.0981483,11.061306 11.0981483,9.56630805 C12.3452658,11.8647254 17.5136165,8.59159807 13.4830642,5.85889623 C17.7288512,3.22867426 11.7886765,-0.721754394 8.34426387,2.34852178 C6.37331201,-0.528140316 3.95794218,1.80294699 4.79315701,3.88333362 Z" id="合并形状"></path>
        </g>
    </g>
</svg>