<?xml version="1.0" encoding="UTF-8"?>
<svg viewBox="0 0 16 16" version="1.1" xmlns="http://www.w3.org/2000/svg" xmlns:xlink="http://www.w3.org/1999/xlink">
    <!-- Generator: Sketch 52.6 (67491) - http://www.bohemiancoding.com/sketch -->
    <title>callout-line call out 4-no border</title>
    <desc>Created with Sketch.</desc>
    <g id="callout-line-call-out-4-no-border" stroke="none" stroke-width="1" fill="none" fill-rule="evenodd">
        <g id="8.13" transform="translate(0.000000, 1.000000)" fill="#767676" fill-rule="nonzero">
            <path d="M5.77807718,4 L6,4 L6,5 L5.77807718,5 L5.77807718,5.00565905 L0.963012864,5.00565905 L0.963012864,10.3757615 L6,13.107522 L5.55615437,14 L0,10.9866742 L0,4 L5.77807718,4 Z M5,0 L6,0 L6,1 L5,1 L5,0 Z M5,2 L6,2 L6,3 L5,3 L5,2 Z M5,6 L6,6 L6,7 L5,7 L5,6 Z M5,8 L6,8 L6,9 L5,9 L5,8 Z M7,0 L8,0 L8,1 L7,1 L7,0 Z M9,0 L10,0 L10,1 L9,1 L9,0 Z M11,0 L12,0 L12,1 L11,1 L11,0 Z M13,0 L14,0 L14,1 L13,1 L13,0 Z M14,1 L15,1 L15,2 L14,2 L14,1 Z M14,3 L15,3 L15,4 L14,4 L14,3 Z M14,5 L15,5 L15,6 L14,6 L14,5 Z M14,7 L15,7 L15,8 L14,8 L14,7 Z M13,8 L14,8 L14,9 L13,9 L13,8 Z M11,8 L12,8 L12,9 L11,9 L11,8 Z M9,8 L10,8 L10,9 L9,9 L9,8 Z M7,8 L8,8 L8,9 L7,9 L7,8 Z" id="合并形状"></path>
        </g>
    </g>
</svg>