<?xml version="1.0" encoding="UTF-8"?>
<svg viewBox="0 0 30 30" version="1.1" xmlns="http://www.w3.org/2000/svg" xmlns:xlink="http://www.w3.org/1999/xlink">
    <title>Accounting</title>
    <g id="Accounting" stroke="none" stroke-width="1" fill="none" fill-rule="evenodd">
        <g id="编组" transform="translate(2.000000, 0.000000)">
            <path d="M11.0066176,27.1666757 C11.0334413,27.4587274 11.1109705,27.7370564 11.2342201,28.0006042 L0,28 L0,0 L19,0 L19,14 L19,14 C18.6619353,14 18.3281988,14.0093792 18.0001515,14.0278255 L18,1 L1,1 L1,27 L11,27 L11.0066176,27.1666757 Z M6,22 L6,25 L3,25 L3,22 L6,22 Z M11,22 L11,25 L8,25 L8,22 L11,22 Z M6,16 L6,19 L3,19 L3,16 L6,16 Z M11,16 L11,19 L8,19 L8,16 L11,16 Z M6,10 L6,13 L3,13 L3,10 L6,10 Z M11,10 L11,13 L8,13 L8,10 L11,10 Z M16,10 L16,13 L13,13 L13,10 L16,10 Z" id="形状结合" fill="#666666" fill-rule="nonzero"></path>
            <path d="M16,3 L16,8 L3,8 L3,3 L16,3 Z M15,4 L4,4 L4,7 L15,7 L15,4 Z" id="矩形" fill="#898989" fill-rule="nonzero"></path>
            <rect id="矩形" fill="#E5E5E5" x="4" y="4" width="11" height="3"></rect>
            <path d="M12,18 L12.0055583,17.8793416 C12.1533138,16.2784255 15.2282993,15 19,15 C22.8659932,15 26,16.3431458 26,18 L26,18 L26,27 C26,28.6568542 22.8659932,30 19,30 C15.1340068,30 12,28.6568542 12,27 L12,27 L12,18 Z" id="形状结合" fill="#FFFFFF"></path>
            <path d="M19,15 C22.7717007,15 25.8466862,16.2784255 25.9944417,17.8793416 L26,18 L26,27 C26,28.6568542 22.8659932,30 19,30 C15.2282993,30 12.1533138,28.7215745 12.0055583,27.1206584 L12,27 L12,18 L12.0055583,17.8793416 C12.1533138,16.2784255 15.2282993,15 19,15 Z M19,27 C16.4526733,27 14.2231439,26.4168635 12.9985551,25.5450804 L12.9989406,26.9539827 L13.0013262,27.0287547 C13.0833954,27.9179669 15.7039016,29 19,29 C20.7532356,29 22.3839869,28.704393 23.5558282,28.2021753 C24.4678167,27.8113231 24.9354608,27.373028 24.99376,27.0641442 L25,27 L25.0004144,25.5458138 C23.7756056,26.4171905 21.5466123,27 19,27 Z M19,24 C16.4533877,24 14.2243944,23.4171905 12.9995856,22.5458138 L12.999,24 L13,24 C13,24.3101724 13.4670412,24.7834051 14.4441718,25.2021753 C15.6160131,25.704393 17.2467644,26 19,26 C20.7532356,26 22.3839869,25.704393 23.5558282,25.2021753 C24.5329588,24.7834051 25,24.3101724 25,24 L25.001,24 L25.0014449,22.5450804 C23.7768561,23.4168635 21.5473267,24 19,24 Z M19,21 C16.454102,21 14.2256449,20.4175174 13.0006165,19.546547 L13,21 C13,21.3101724 13.4670412,21.7834051 14.4441718,22.2021753 C15.6160131,22.704393 17.2467644,23 19,23 C20.7532356,23 22.3839869,22.704393 23.5558282,22.2021753 C24.5329588,21.7834051 25,21.3101724 25,21 L25.001,21 L25.0014449,19.5450804 C23.7768561,20.4168635 21.5473267,21 19,21 Z M19,16 C15.8008456,16 13.2381273,17.0193201 13.0180088,17.8503619 L13.0044989,17.9253588 L13,18 C13,18.3101724 13.4670412,18.7834051 14.4441718,19.2021753 C15.6160131,19.704393 17.2467644,20 19,20 C20.7532356,20 22.3839869,19.704393 23.5558282,19.2021753 C24.5268517,18.7860224 24.9941421,18.3160857 24.9999453,18.0058348 L24.9986738,17.9712453 C24.9166046,17.0820331 22.2960984,16 19,16 Z" id="形状结合" fill="#EE8815" fill-rule="nonzero"></path>
            <ellipse id="椭圆形" fill="#FFD95D" cx="19" cy="18" rx="6" ry="2"></ellipse>
        </g>
    </g>
</svg>