<?xml version="1.0" encoding="UTF-8"?>
<svg width="30px" height="30px" viewBox="0 0 30 30" version="1.1" xmlns="http://www.w3.org/2000/svg" xmlns:xlink="http://www.w3.org/1999/xlink">
    <title>Currency</title>
    <g id="Currency" stroke="none" stroke-width="1" fill="none" fill-rule="evenodd">
        <g id="编组" transform="translate(0.000000, 3.000000)">
            <path d="M28,0 L28.0011069,9.81916609 C27.6857973,9.69797838 27.3512802,9.58935984 27.0003498,9.49390371 L27,1 L1,1 L1,17 L15.001,17 L15,18 L0,18 L0,0 L28,0 Z M7,2 L7,3 L4,3 C3.48716416,3 3.06449284,3.38604019 3.00672773,3.88337887 L3,4 L3,14 C3,14.5128358 3.38604019,14.9355072 3.88337887,14.9932723 L4,15 L7,15 L7,16 L4,16 C2.8954305,16 2,15.1045695 2,14 L2,4 C2,2.8954305 2.8954305,2 4,2 L7,2 Z M14,2 C16.7614237,2 19,5.13400675 19,9 C19,9.16660268 18.9958427,9.33184597 18.9876653,9.49553763 C18.6265054,9.59343756 18.2828134,9.70533113 17.9596537,9.83031676 C17.9868348,9.55957712 18,9.28239788 18,9 C18,5.62796016 16.1228856,3 14,3 C11.8771144,3 10,5.62796016 10,9 C10,12.3720398 11.8771144,15 14,15 C14.3426075,15 14.6788136,14.9315522 15.001761,14.8025756 L15.0016886,15.8594943 C14.6780553,15.9516295 14.3430625,16 14,16 C11.2385763,16 9,12.8659932 9,9 C9,5.13400675 11.2385763,2 14,2 Z M24,2 C25.1045695,2 26,2.8954305 26,4 L26.0003035,9.2658294 C25.6767717,9.20521263 25.3431153,9.15460482 25.0010784,9.11437624 L25,4 C25,3.48716416 24.6139598,3.06449284 24.1166211,3.00672773 L24,3 L21,3 L21,2 L24,2 Z" id="形状结合" fill="#666666" fill-rule="nonzero"></path>
            <path d="M16,13 L16.0055583,12.8793416 C16.1533138,11.2784255 19.2282993,10 23,10 C26.8659932,10 30,11.3431458 30,13 L30,13 L30,22 C30,23.6568542 26.8659932,25 23,25 C19.1340068,25 16,23.6568542 16,22 L16,22 L16,13 Z" id="形状结合" fill="#FFFFFF"></path>
            <path d="M23,10 C26.7717007,10 29.8466862,11.2784255 29.9944417,12.8793416 L30,13 L30,22 C30,23.6568542 26.8659932,25 23,25 C19.2282993,25 16.1533138,23.7215745 16.0055583,22.1206584 L16,22 L16,13 L16.0055583,12.8793416 C16.1533138,11.2784255 19.2282993,10 23,10 Z M23,22 C20.4526733,22 18.2231439,21.4168635 16.9985551,20.5450804 L16.9989406,21.9539827 L17.0013262,22.0287547 C17.0833954,22.9179669 19.7039016,24 23,24 C24.7532356,24 26.3839869,23.704393 27.5558282,23.2021753 C28.4678167,22.8113231 28.9354608,22.373028 28.99376,22.0641442 L29,22 L29.0004144,20.5458138 C27.7756056,21.4171905 25.5466123,22 23,22 Z M23,19 C20.4533877,19 18.2243944,18.4171905 16.9995856,17.5458138 L16.999,19 L17,19 C17,19.3101724 17.4670412,19.7834051 18.4441718,20.2021753 C19.6160131,20.704393 21.2467644,21 23,21 C24.7532356,21 26.3839869,20.704393 27.5558282,20.2021753 C28.5329588,19.7834051 29,19.3101724 29,19 L29.001,19 L29.0014449,17.5450804 C27.7768561,18.4168635 25.5473267,19 23,19 Z M23,16 C20.454102,16 18.2256449,15.4175174 17.0006165,14.546547 L17,16 C17,16.3101724 17.4670412,16.7834051 18.4441718,17.2021753 C19.6160131,17.704393 21.2467644,18 23,18 C24.7532356,18 26.3839869,17.704393 27.5558282,17.2021753 C28.5329588,16.7834051 29,16.3101724 29,16 L29.001,16 L29.0014449,14.5450804 C27.7768561,15.4168635 25.5473267,16 23,16 Z M23,11 C19.8008456,11 17.2381273,12.0193201 17.0180088,12.8503619 L17.0044989,12.9253588 L17,13 C17,13.3101724 17.4670412,13.7834051 18.4441718,14.2021753 C19.6160131,14.704393 21.2467644,15 23,15 C24.7532356,15 26.3839869,14.704393 27.5558282,14.2021753 C28.5268517,13.7860224 28.9941421,13.3160857 28.9999453,13.0058348 L28.9986738,12.9712453 C28.9166046,12.0820331 26.2960984,11 23,11 Z" id="形状结合" fill="#EE8815" fill-rule="nonzero"></path>
            <ellipse id="椭圆形" fill="#FFD95D" cx="23" cy="13" rx="6" ry="2"></ellipse>
        </g>
    </g>
</svg>