<?xml version="1.0" encoding="UTF-8"?>
<svg width="26px" height="26px" viewBox="0 0 26 26" version="1.1" xmlns="http://www.w3.org/2000/svg" xmlns:xlink="http://www.w3.org/1999/xlink">
    <title>Fraction</title>
    <g id="Fraction" stroke="none" stroke-width="1" fill="none" fill-rule="evenodd">
        <path d="M20.2,1 L5.6,24.9952525 L4.39585161,25 L19,1 L20.2,1 Z M18.7480469,12.98125 C19.8555926,12.98125 20.7358426,13.2820829 21.3826651,13.897353 C22.0223541,14.5058377 22.3415039,15.2601436 22.3415039,16.159668 C22.3415039,16.6202488 22.2469104,17.0728755 22.0585122,17.5177045 C21.8664975,17.9710725 21.5464353,18.4475041 21.1012067,18.9487196 C20.6433129,19.4641928 19.8819631,20.1710997 18.8186716,21.0699663 C17.9133575,21.829983 17.3326473,22.3459802 17.0755912,22.6170068 C16.7875332,22.9207202 16.5542664,23.226364 16.375101,23.533418 L16.2508603,23.7639648 L22.3581055,23.7639648 L22.3581055,24.8 L14.7240484,24.8 C14.7460193,24.459099 14.7955028,24.2432331 14.8763083,24.0324196 C15.0736318,23.504446 15.3905164,22.9850586 15.8250736,22.4731875 C16.2700178,21.9490815 16.9133782,21.3436223 17.7542651,20.6556238 C19.0947861,19.5562843 19.9987807,18.6840027 20.4698524,18.0418872 C20.9652965,17.3665497 21.2058594,16.7267915 21.2058594,16.1264648 C21.2058594,15.4772579 20.9735041,14.9298426 20.5094148,14.4839529 C20.0506523,14.043181 19.4538411,13.8180664 18.7148438,13.8180664 C17.9348366,13.8180664 17.3138559,14.05711 16.8468599,14.524106 C16.4706044,14.9003615 16.239707,15.3920995 16.1619227,16.0029899 L16.1399458,16.2376662 L15.024452,16.123102 C15.1961987,15.0277292 15.5470648,14.3298576 16.1155876,13.8324001 C16.769091,13.2605846 17.6484501,12.98125 18.7480469,12.98125 Z M6.13349609,0.98125 L6.13349609,13.8 L5.03935547,13.8 L5.03935547,3.02740771 C4.36094584,3.66037398 3.89736613,3.99817677 3.32273968,4.33587194 C2.86077895,4.60735596 2.43696261,4.8243194 2.05107422,4.98628863 L2.05107422,3.95814798 C3.0479257,3.44332376 3.6482315,3.0288302 4.17576228,2.55732039 C4.77980892,2.0174203 5.21747717,1.49122233 5.4923302,0.98125 L6.13349609,0.98125 Z" id="形状结合" fill="#666666" fill-rule="nonzero"></path>
    </g>
</svg>