<?xml version="1.0" encoding="UTF-8"?>
<svg width="28px" height="28px" viewBox="0 0 28 28" version="1.1" xmlns="http://www.w3.org/2000/svg" xmlns:xlink="http://www.w3.org/1999/xlink">
    <title>Text</title>
    <g id="Text" stroke="none" stroke-width="1" fill="none" fill-rule="evenodd">
        <path d="M6.37092368,9 C7.51322471,9 8.44242141,9.14051056 9.15673097,9.43027565 C9.83735291,9.7063751 10.3433256,10.0471292 10.6643589,10.4665601 C10.9848762,10.8853167 11.2060723,11.4155575 11.332921,12.0474094 C11.4024168,12.4301484 11.4382267,13.0929665 11.4441633,14.0352889 L11.4450518,14.3263702 L11.4450527,17.7146199 C11.4505458,20.2630362 11.5038868,21.651803 11.6002169,22.252028 C11.6624032,22.6395064 11.7600786,23.0176552 11.8933605,23.3864298 L12,23.6612525 L10.243461,23.6612525 C10.026269,23.0887098 9.92577171,22.6247337 9.8748583,22.1104152 C9.85218466,21.8813702 9.84107797,21.6598495 9.84447664,21.4308003 C9.6935573,21.58449 9.53425229,21.7380998 9.36659431,21.8916575 C8.52450103,22.6629297 7.71515427,23.2098964 6.93597623,23.5275776 C6.162239,23.8430405 5.33194938,24 4.4453788,24 C3.01189245,24 1.90238748,23.6369812 1.13004117,22.8800108 C0.374847643,22.1398517 0,21.1931956 0,20.0427343 C0,19.3676923 0.141432092,18.7506384 0.426652246,18.1922452 C0.712015741,17.6335714 1.08508607,17.1845054 1.54742789,16.8466052 C2.02259716,16.4993301 2.55790714,16.237256 3.1490429,16.0602933 C3.60263365,15.9311878 4.28747142,15.8077046 5.20247836,15.687916 C7.13620631,15.4394078 8.55918279,15.1405335 9.47271171,14.7964878 C9.69321911,14.4949408 9.69321911,13.9136234 9.69321911,13.8182489 C9.69321911,12.6529214 9.41670905,11.8522472 8.92065415,11.3806182 C8.27209835,10.7628058 7.31381057,10.4359854 6.03035112,10.4359854 C4.83377812,10.4359854 3.95866914,10.6789349 3.3908922,11.1289333 C2.91368591,11.5071488 2.52955278,12.1209165 2.25491357,12.9842855 L2.17582305,13.2507983 L0.484273328,13.0022494 C0.734261062,12.0266037 1.01116087,11.4071276 1.37407327,10.9129848 C1.82217666,10.3028457 2.47284876,9.83830414 3.3190733,9.50951907 C4.19706068,9.16839312 5.2146047,9 6.37092368,9 Z M16.6888655,2 L16.6888655,11.2866963 C18.091117,9.385785 19.848411,8.59637703 21.6559129,8.59637703 C22.5770258,8.59637703 23.4488844,8.77697402 24.2713485,9.13879603 C25.0861218,9.49723471 25.7572825,10.000105 26.2834957,10.6490508 C26.8192304,11.3097387 27.23726,12.107429 27.5406176,13.0405012 C27.8473134,13.9838413 28,14.9926306 28,16.0666615 C28,18.600526 27.3709094,20.5667406 26.0828985,21.9520955 C24.8160582,23.3146799 23.2970265,24 21.5222733,24 C19.4731741,24 17.6358138,23.0184938 16.6247677,21.0586433 L16.4958305,20.7974626 L16.4958305,23.6527094 L15,23.6527094 L15,2 L16.6888655,2 Z M21.8621851,10 C20.537518,10 19.387221,10.5344371 18.4197351,11.6217703 C17.4844466,12.6729176 17,14.1885719 17,16.182724 C17,18.133787 17.298272,19.5363818 17.8603979,20.4028283 C18.8156779,21.8758838 20.1127211,22.6 21.7378149,22.6 C23.062482,22.6 24.212779,22.0655629 25.1802649,20.9782297 C26.1142581,19.9285381 26.6,18.3695563 26.6,16.2853405 C26.6,14.1499686 26.1310559,12.584757 25.235437,11.5713192 C24.3054678,10.5190124 23.1788236,10 21.8621851,10 Z M9.7,16 C8.79485,16.4017369 7.06340654,16.6314402 5.16299027,16.908183 C4.0753854,17.0679891 3.30813193,17.2521363 2.85781904,17.4517141 C2.35988916,17.6723957 1.97759467,17.9970764 1.70726061,18.4214489 C1.43621366,18.8469405 1.3,19.3192612 1.3,19.8388332 C1.3,20.6324822 1.5941484,21.2941862 2.18362312,21.8234055 C2.74749209,22.3296364 3.5674331,22.6 4.65895617,22.6 C5.70077988,22.6 6.6265048,22.3651791 7.43755539,21.9007707 C8.26400583,21.4275443 8.86951949,20.7788938 9.25706666,19.957609 C9.54990792,19.3297183 9.70369573,18.4037082 9.7,17.1724191 L9.7,16 Z" id="形状结合" fill="#666666" fill-rule="nonzero"></path>
    </g>
</svg>