<?xml version="1.0" encoding="UTF-8"?>
<svg width="32px" height="32px" viewBox="0 0 32 32" version="1.1" xmlns="http://www.w3.org/2000/svg" xmlns:xlink="http://www.w3.org/1999/xlink">
    <title>Calculation Options</title>
    <g id="Calculation-Options" stroke="none" stroke-width="1" fill="none" fill-rule="evenodd">
        <polygon id="路径" fill="#666666" fill-rule="nonzero" points="25 2 25 30 6 30 6 2"></polygon>
        <polygon id="路径" fill="#FFFFFF" fill-rule="nonzero" points="24 3 7 3 7 29 24 29"></polygon>
        <rect id="矩形" fill="#666666" fill-rule="nonzero" x="9" y="12" width="3" height="3"></rect>
        <rect id="矩形备份-3" fill="#666666" fill-rule="nonzero" x="9" y="18" width="3" height="3"></rect>
        <rect id="矩形备份-5" fill="#666666" fill-rule="nonzero" x="9" y="24" width="3" height="3"></rect>
        <rect id="矩形备份" fill="#666666" fill-rule="nonzero" x="14" y="12" width="3" height="3"></rect>
        <rect id="矩形备份-4" fill="#666666" fill-rule="nonzero" x="14" y="18" width="3" height="3"></rect>
        <rect id="矩形备份-7" fill="#666666" fill-rule="nonzero" x="19" y="18" width="3" height="3"></rect>
        <rect id="矩形备份-6" fill="#666666" fill-rule="nonzero" x="14" y="24" width="3" height="3"></rect>
        <rect id="矩形备份-8" fill="#666666" fill-rule="nonzero" x="19" y="24" width="3" height="3"></rect>
        <rect id="矩形备份-2" fill="#666666" fill-rule="nonzero" x="19" y="12" width="3" height="3"></rect>
        <path d="M22,5 L22,10 L9,10 L9,5 L22,5 Z M21,6 L10,6 L10,9 L21,9 L21,6 Z" id="矩形" fill="#367FC9" fill-rule="nonzero"></path>
        <rect id="矩形" fill="#81BEFC" x="10" y="6" width="11" height="3"></rect>
    </g>
</svg>