<?xml version="1.0" encoding="UTF-8"?>
<svg viewBox="0 0 32 32" version="1.1" xmlns="http://www.w3.org/2000/svg" xmlns:xlink="http://www.w3.org/1999/xlink">
    <g id="financial" stroke="none" stroke-width="1" fill="none" fill-rule="evenodd">
        <g id="financial备份" transform="translate(5.000000, 2.000000)">
            <path d="M22,21.4371021 C22,22.0204344 21.7548572,22.4217694 21.2631744,22.6403253 C21.034095,23.8069926 21.034095,25.0102131 21.2631744,26.2500003 L21.4105395,26.2500003 C21.8037453,26.2500003 22,26.4685559 22,26.9064444 L22,27.343556 C22,27.7814442 21.8037455,28 21.4105395,28 L3.14285672,28 C2.29149121,28 1.55536542,27.6538883 0.933079786,26.9608885 C0.311491476,26.2686652 0,25.4488888 0,24.5 L0,4.37500461 C0,3.17178141 0.384125841,2.14200505 1.15377708,1.28488803 C1.92342831,0.428555776 2.84812551,0 3.92857581,0 L20.8217744,0 C21.1486315,0 21.4272974,0.127555561 21.6563772,0.382667503 C21.8854566,0.637778625 22,0.948111534 22,1.31211146 L22,21.4371021 Z" id="路径" fill="#FFFFFF"></path>
            <path d="M22,21.4371021 C22,22.0204344 21.7548572,22.4217694 21.2631744,22.6403253 C21.034095,23.8069926 21.034095,25.0102131 21.2631744,26.2500003 L21.4105395,26.2500003 C21.8037453,26.2500003 22,26.4685559 22,26.9064444 L22,27.343556 C22,27.7814442 21.8037455,28 21.4105395,28 L3.14285672,28 C2.29149121,28 1.55536542,27.6538883 0.933079786,26.9608885 C0.311491476,26.2686652 0,25.4488888 0,24.5 L0,4.37500461 C0,3.17178141 0.384125841,2.14200505 1.15377708,1.28488803 C1.92342831,0.428555776 2.84812551,0 3.92857581,0 L20.8217744,0 C21.1486315,0 21.4272974,0.127555561 21.6563772,0.382667503 C21.8854566,0.637778625 22,0.948111534 22,1.31211146 L22,21.4371021 Z M19.5714289,26.2499846 C19.4103951,25.0833166 19.4103951,23.916652 19.5714289,22.7499846 L3.11983052,22.7499846 C2.70004189,22.7499846 2.33737235,22.923429 2.03113237,23.2695404 C1.72489239,23.615652 1.57142885,24.0263168 1.57142885,24.4999843 C1.57142885,24.9744283 1.72489263,25.3843165 2.03113237,25.7304282 C2.33737235,26.0765398 2.70072899,26.2499846 3.11983052,26.2499846 L19.5714289,26.2499846 Z M20.4285716,20.999985 L20.4285716,1.74998872 L3.92857385,1.74998872 C3.27416233,1.74998872 2.71752557,2.00509984 2.25936827,2.51532099 C1.80051119,3.02632089 1.57143113,3.64543249 1.57143113,4.37498821 L1.57143113,21.4923092 C2.04437214,21.1697651 2.58827787,20.9993562 3.14285949,20.9999769 L20.4285716,20.999985 Z" id="形状" fill="#666666" fill-rule="nonzero"></path>
            <g id="编组" transform="translate(5.000000, 5.000000)">
                <ellipse id="椭圆形" fill="#74B87A" cx="6" cy="2.5" rx="6" ry="2.5"></ellipse>
                <path d="M6,-2.48689958e-14 C3.10971429,-2.48689958e-14 0,0.871285714 0,2.78571429 L0,10.9285714 C0,12.8421429 3.10971429,13.7142857 6,13.7142857 C8.88985714,13.7142857 12,12.8421429 12,10.9285714 L12,2.78571429 C12,0.871285714 8.88942857,-2.48689958e-14 6,-2.48689958e-14 Z M11.1428571,10.9285714 C11.1428571,11.9931429 8.84014286,12.8571429 6,12.8571429 C3.15942857,12.8571429 0.857142857,11.9931429 0.857142857,10.9285714 L0.857142857,9.32742857 C1.74257143,10.2398571 3.87857143,10.7142857 6,10.7142857 C8.12142857,10.7142857 10.2574286,10.2398571 11.1428571,9.32742857 L11.1428571,10.9285714 Z M11.1428571,8.35714286 L11.1411429,8.35714286 C11.1411429,8.36142857 11.1428571,8.36614286 11.1428571,8.37042857 C11.1428571,9.42857143 8.84014286,10.2857143 6,10.2857143 C3.15985714,10.2857143 0.857142857,9.42857143 0.857142857,8.37042857 C0.857142857,8.36614286 0.858857143,8.36142857 0.858857143,8.35714286 L0.857142857,8.35714286 L0.857142857,6.756 C1.74257143,7.66842857 3.87857143,8.14285714 6,8.14285714 C8.12142857,8.14285714 10.2574286,7.66842857 11.1428571,6.756 L11.1428571,8.35714286 Z M11.1428571,5.78571429 L11.1411429,5.78571429 C11.1411429,5.79 11.1428571,5.79471429 11.1428571,5.799 C11.1428571,6.85714286 8.84014286,7.71428571 6,7.71428571 C3.15985714,7.71428571 0.857142857,6.85714286 0.857142857,5.799 C0.857142857,5.79471429 0.858857143,5.79 0.858857143,5.78571429 L0.857142857,5.78571429 L0.857142857,4.31314286 C1.98042857,5.169 4.03928571,5.57142857 6,5.57142857 C7.96071429,5.57142857 10.0195714,5.169 11.1428571,4.31314286 L11.1428571,5.78571429 Z M6,4.71428571 C3.15942857,4.71428571 0.857142857,3.85028571 0.857142857,2.78571429 C0.857142857,1.72028571 3.15942857,0.857142857 6,0.857142857 C8.84014286,0.857142857 11.1428571,1.72028571 11.1428571,2.78571429 C11.1428571,3.85028571 8.84014286,4.71428571 6,4.71428571 Z" id="形状" fill="#157631" fill-rule="nonzero"></path>
            </g>
        </g>
    </g>
</svg>