<?xml version="1.0" encoding="UTF-8"?>
<svg viewBox="0 0 16 16" version="1.1" xmlns="http://www.w3.org/2000/svg" xmlns:xlink="http://www.w3.org/1999/xlink">
    <!-- Generator: Sketch 55.2 (78181) - https://sketchapp.com -->
    <title>information</title>
    <desc>Created with Sketch.</desc>
    <g id="information" stroke="none" stroke-width="1" fill="none" fill-rule="evenodd">
        <g id="information备份">
            <g id="engineering备份">
                <path d="M6.6858534,16 L1.71428548,16 C1.2499043,16 0.848381136,15.8022219 0.50895261,15.406222 C0.169904442,15.0106658 0,14.5422222 0,14 L0,2.5 C0,1.81244652 0.209523186,1.22400289 0.629332951,0.734221732 C1.04914272,0.244889015 1.55352301,0 2.14285953,0 L11.3573315,0 C11.5356172,0 11.6876167,0.072888892 11.8125694,0.218667145 C11.9375218,0.364444929 12,0.541778019 12,0.749777979 L12,5.34244653 C11.3742286,5.12071083 10.701,5 10,5 C6.69086348,5 4,7.69086348 4,11 C4,13.0849698 5.06801924,14.9243379 6.6858534,16 Z" id="形状结合" fill="#FFFFFF"></path>
                <path d="M6.6858534,16 L1.71428548,16 C1.2499043,16 0.848381136,15.8022219 0.50895261,15.406222 C0.169904442,15.0106658 0,14.5422222 0,14 L0,2.5 C0,1.81244652 0.209523186,1.22400289 0.629332951,0.734221732 C1.04914272,0.244889015 1.55352301,0 2.14285953,0 L11.3573315,0 C11.5356172,0 11.6876167,0.072888892 11.8125694,0.218667145 C11.9375218,0.364444929 12,0.541778019 12,0.749777979 L12,5.34244653 C11.7230146,5.24429958 11.4367313,5.16594559 11.1428573,5.10909173 L11.1428573,0.999993555 L2.14285846,0.999993555 C1.78590673,0.999993555 1.48228668,1.14577134 1.23238269,1.43732628 C0.982097011,1.72932622 0.857144254,2.08310428 0.857144254,2.49999355 L0.857144254,12.2813195 C1.11511208,12.0970086 1.41178793,11.9996321 1.714287,11.9999936 L4.08326495,11.9999936 C4.14118981,12.3440825 4.22848835,12.6783067 4.34248528,12.9999912 L1.70172574,12.9999912 C1.47275012,12.9999912 1.27493037,13.0991023 1.10789038,13.2968802 C0.940850396,13.4946583 0.85714301,13.7293239 0.85714301,13.9999912 C0.85714301,14.2711019 0.940850528,14.5053237 1.10789038,14.7031018 C1.27493037,14.9008799 1.47312491,14.9999912 1.70172574,14.9999912 L5.53087189,14.9999912 C5.87136203,15.3800416 6.25951695,15.7165383 6.6858534,16 Z" id="形状结合" fill="#666666" fill-rule="nonzero"></path>
            </g>
            <path d="M10,16 C7.24314823,16 5,13.7572105 5,11 C5,8.24314823 7.24314823,6 10,6 C12.7572105,6 15,8.2427895 15,11 C15,13.7572105 12.7572105,16 10,16 Z M10,6.71746305 C7.63847037,6.71746305 5.71746305,8.63847037 5.71746305,11 C5.71746305,13.3611709 7.63847037,15.2825369 10,15.2825369 C12.3611709,15.2825369 14.2825369,13.3615296 14.2825369,11 C14.2825369,8.63847037 12.3611709,6.71746305 10,6.71746305 Z" id="形状" fill="#367FC9" fill-rule="nonzero"></path>
            <g id="编组-3" transform="translate(9.461903, 8.130148)" fill="#333333">
                <g id="编组-2">
                    <path d="M2.22044605e-16,0.538097207 L2.22044605e-16,0.538097288 C2.22044605e-16,0.835280573 0.240914003,1.07619458 0.538097288,1.07619458 C0.835280573,1.07619458 1.07619458,0.835280573 1.07619458,0.538097288 L1.07619458,0.538097288 C1.07619458,0.240914003 0.835280573,3.66373598e-15 0.538097288,3.66373598e-15 C0.240914003,3.66373598e-15 2.22044605e-16,0.240914003 2.22044605e-16,0.538097288 L2.22044605e-16,0.538097207 Z" id="路径"></path>
                    <path d="M0.538097288,5.73970432 C0.340077486,5.73970432 0.179365763,5.57935133 0.179365763,5.3809728 L0.179365763,2.15238907 C0.179365763,1.95436927 0.340077486,1.79365755 0.538097288,1.79365755 C0.73611709,1.79365755 0.896828813,1.95436927 0.896828813,2.15238907 L0.896828813,5.3809728 C0.896828813,5.57935133 0.73611709,5.73970432 0.538097288,5.73970432 Z" id="路径"></path>
                </g>
            </g>
        </g>
    </g>
</svg>