<?xml version="1.0" encoding="UTF-8"?>
<svg viewBox="0 0 32 32" version="1.1" xmlns="http://www.w3.org/2000/svg" xmlns:xlink="http://www.w3.org/1999/xlink">
    <g id="more-functions" stroke="none" stroke-width="1" fill="none" fill-rule="evenodd">
        <g id="more-functions备份" transform="translate(5.000000, 2.000000)">
            <path d="M22,21.4371021 C22,22.0204344 21.7548572,22.4217694 21.2631744,22.6403253 C21.034095,23.8069926 21.034095,25.0102131 21.2631744,26.2500003 L21.4105395,26.2500003 C21.8037453,26.2500003 22,26.4685559 22,26.9064444 L22,27.343556 C22,27.7814442 21.8037455,28 21.4105395,28 L3.14285672,28 C2.29149121,28 1.55536542,27.6538883 0.933079786,26.9608885 C0.311491476,26.2686652 0,25.4488888 0,24.5 L0,4.37500461 C0,3.17178141 0.384125841,2.14200505 1.15377708,1.28488803 C1.92342831,0.428555776 2.84812551,0 3.92857581,0 L20.8217744,0 C21.1486315,0 21.4272974,0.127555561 21.6563772,0.382667503 C21.8854566,0.637778625 22,0.948111534 22,1.31211146 L22,21.4371021 Z" id="路径" fill="#FFFFFF"></path>
            <path d="M22,21.4371021 C22,22.0204344 21.7548572,22.4217694 21.2631744,22.6403253 C21.034095,23.8069926 21.034095,25.0102131 21.2631744,26.2500003 L21.4105395,26.2500003 C21.8037453,26.2500003 22,26.4685559 22,26.9064444 L22,27.343556 C22,27.7814442 21.8037455,28 21.4105395,28 L3.14285672,28 C2.29149121,28 1.55536542,27.6538883 0.933079786,26.9608885 C0.311491476,26.2686652 0,25.4488888 0,24.5 L0,4.37500461 C0,3.17178141 0.384125841,2.14200505 1.15377708,1.28488803 C1.92342831,0.428555776 2.84812551,0 3.92857581,0 L20.8217744,0 C21.1486315,0 21.4272974,0.127555561 21.6563772,0.382667503 C21.8854566,0.637778625 22,0.948111534 22,1.31211146 L22,21.4371021 Z M19.5714289,26.2499846 C19.4103951,25.0833166 19.4103951,23.916652 19.5714289,22.7499846 L3.11983052,22.7499846 C2.70004189,22.7499846 2.33737235,22.923429 2.03113237,23.2695404 C1.72489239,23.615652 1.57142885,24.0263168 1.57142885,24.4999843 C1.57142885,24.9744283 1.72489263,25.3843165 2.03113237,25.7304282 C2.33737235,26.0765398 2.70072899,26.2499846 3.11983052,26.2499846 L19.5714289,26.2499846 Z M20.4285716,20.999985 L20.4285716,1.74998872 L3.92857385,1.74998872 C3.27416233,1.74998872 2.71752557,2.00509984 2.25936827,2.51532099 C1.80051119,3.02632089 1.57143113,3.64543249 1.57143113,4.37498821 L1.57143113,21.4923092 C2.04437214,21.1697651 2.58827787,20.9993562 3.14285949,20.9999769 L20.4285716,20.999985 Z" id="形状" fill="#666666" fill-rule="nonzero"></path>
            <circle id="椭圆形" fill="#E65249" cx="6.5" cy="11.5" r="1.5"></circle>
            <circle id="椭圆形备份-3" fill="#E65249" cx="11.5" cy="11.5" r="1.5"></circle>
            <circle id="椭圆形备份-4" fill="#E65249" cx="16.5" cy="11.5" r="1.5"></circle>
        </g>
    </g>
</svg>