<?xml version="1.0" encoding="UTF-8"?>
<svg viewBox="0 0 16 16" version="1.1" xmlns="http://www.w3.org/2000/svg" xmlns:xlink="http://www.w3.org/1999/xlink">
    <g id="statistical" stroke="none" stroke-width="1" fill="none" fill-rule="evenodd">
        <g id="statistical备份" transform="translate(1.000000, 0.000000)">
            <g id="more-functions">
                <path d="M1.99131878,16 L1.71428548,16 C1.2499043,16 0.848381136,15.8022219 0.50895261,15.406222 C0.169904442,15.0106658 0,14.5422222 0,14 L0,2.5 C0,1.81244652 0.209523186,1.22400289 0.629332951,0.734221732 C1.04914272,0.244889015 1.55352301,0 2.14285953,0 L11.3573315,0 C11.5356172,0 11.6876167,0.072888892 11.8125694,0.218667145 C11.9375218,0.364444929 12,0.541778019 12,0.749777979 L12,8.63663406 L10.7693227,10.9153332 L7.3297962,6.18150992 L1.64439041,15.7808573 L1.99131878,16 Z" id="形状结合" fill="#FFFFFF"></path>
                <path d="M1.99131878,16 L1.71428548,16 C1.2499043,16 0.848381136,15.8022219 0.50895261,15.406222 C0.169904442,15.0106658 0,14.5422222 0,14 L0,2.5 C0,1.81244652 0.209523186,1.22400289 0.629332951,0.734221732 C1.04914272,0.244889015 1.55352301,0 2.14285953,0 L11.3573315,0 C11.5356172,0 11.6876167,0.072888892 11.8125694,0.218667145 C11.9375218,0.364444929 12,0.541778019 12,0.749777979 L12,8.63663406 L11.1428573,10.2237036 L11.1428573,0.999993555 L2.14285846,0.999993555 C1.78590673,0.999993555 1.48228668,1.14577134 1.23238269,1.43732628 C0.982097011,1.72932622 0.857144254,2.08310428 0.857144254,2.49999355 L0.857144254,12.2813195 C1.11511208,12.0970086 1.41178793,11.9996321 1.714287,11.9999936 L3.8836827,11.9999936 L3.29141406,12.9999912 L1.70172574,12.9999912 C1.47275012,12.9999912 1.27493037,13.0991023 1.10789038,13.2968802 C0.940850396,13.4946583 0.85714301,13.7293239 0.85714301,13.9999912 C0.85714301,14.2711019 0.940850528,14.5053237 1.10789038,14.7031018 C1.27493037,14.9008799 1.47312491,14.9999912 1.70172574,14.9999912 L2.10687399,14.9999912 L1.64439041,15.7808573 L1.99131878,16 Z" id="形状结合" fill="#666666" fill-rule="nonzero"></path>
            </g>
            <polygon id="路径-7" fill="#367FC9" fill-rule="nonzero" points="11.0195163 14.7032521 14 9.18464412 13.115661 8.67526232 10.8942124 12.7884551 7.41499127 8 3 15.4543553 3.86381899 16 7.50041241 9.85990644"></polygon>
        </g>
    </g>
</svg>