<?xml version="1.0" encoding="UTF-8"?>
<svg viewBox="0 0 16 16" version="1.1" xmlns="http://www.w3.org/2000/svg" xmlns:xlink="http://www.w3.org/1999/xlink">
    <g id="Select" stroke="none" stroke-width="1" fill="none" fill-rule="evenodd">
        <g id="编组-3" transform="translate(0.000000, 2.000000)">
            <g id="Switch-row/column">
                <rect id="Rectangle-8" fill="#FFFFFF" x="0" y="0" width="16" height="13"></rect>
                <rect id="矩形" fill="#81BEFC" x="5" y="6" width="11" height="7"></rect>
                <rect id="矩形" fill="#81BEFC" x="1" y="1" width="4" height="2"></rect>
                <path d="M10,7 L6,7 L6,9 L10,9 L10,7 Z M11,7 L11,9 L15,9 L15,7 L11,7 Z M11,10 L11,12 L10,12 L10,10 L6,10 L6,12 L5,12 L5,10 L1,10 L1,12 L15,12 L15,10 L11,10 Z M10,6 L10,4 L6,4 L6,6 L10,6 Z M11,6 L15,6 L15,4 L11,4 L11,6 Z M11,3 L15,3 L15,1 L1,1 L1,3 L5,3 L5,1 L6,1 L6,3 L10,3 L10,1 L11,1 L11,3 Z M5,7 L1,7 L1,9 L5,9 L5,7 Z M5,6 L5,4 L1,4 L1,6 L5,6 Z M0,0 L16,0 L16,13 L0,13 L0,0 Z" id="形状结合" fill="#367FC9" fill-rule="nonzero"></path>
            </g>
            <g id="编组-2" transform="translate(4.000000, 2.000000)" fill-rule="nonzero">
                <polygon id="Shape" fill="#FA7541" points="0 0 6.85714286 4.92175922e-15 4.57142857 2.28571429 7 4.71428571 4.71428571 7 2.28571429 4.57142857 0 6.85714286"></polygon>
                <path d="M0,8 L0,6.21724894e-15 L8,6.21724894e-15 L5.462416,2.537584 L7.86644295,4.94161095 L4.94161095,7.86644295 L2.537584,5.462416 L0,8 Z M0.934899369,0.934899369 L0.934899369,5.74295326 L2.537584,4.14026863 L4.94161095,6.54429558 L6.54429558,4.94161095 L4.14026863,2.537584 L5.74295326,0.934899369 L0.934899369,0.934899369 Z" id="Shape" fill="#FFFFFF"></path>
            </g>
        </g>
    </g>
</svg>