<?xml version="1.0" encoding="UTF-8"?>
<svg width="16px" height="16px" viewBox="0 0 16 16" version="1.1" xmlns="http://www.w3.org/2000/svg" xmlns:xlink="http://www.w3.org/1999/xlink">
    <title>SPJS Another-Selecting</title>
    <g id="SPJS-Another-Selecting" stroke="none" stroke-width="1" fill="none" fill-rule="evenodd">
        <g id="Switch-row/column" transform="translate(0.000000, 1.000000)">
            <rect id="Rectangle-8" fill="#D5D5D5" x="0" y="0" width="16" height="13"></rect>
            <rect id="矩形" fill="#FFFFFF" x="3" y="5" width="10" height="4"></rect>
            <path d="M3,5 L13,5 L13,9 L3,9 L3,5 Z M4,6 L4,8 L12,8 L12,6 L4,6 Z" id="矩形" fill="#666666" fill-rule="nonzero"></path>
            <path d="M0,0 L16,0 L16,13 L0,13 L0,0 Z M1,1 L1,12 L15,12 L15,1 L1,1 Z" id="矩形" fill="#666666" fill-rule="nonzero"></path>
            <g id="编组-8">
                <rect id="矩形" fill="#81BEFC" x="1" y="1" width="14" height="2"></rect>
                <path d="M16,0 L16,4 L0,4 L0,0 L16,0 Z M15,1 L1,1 L1,3 L15,3 L15,1 Z" id="形状结合" fill="#367FC9" fill-rule="nonzero"></path>
            </g>
            <g id="编组-9" transform="translate(2.587767, 6.000000)" fill-rule="nonzero">
                <polygon id="Shape" fill="#FA7541" points="5.41223285 7 2.41223285 3.99535295 4.41223285 3.99535295 4.41223285 1 6.41223285 1 6.41223285 3.99535295 8.41403998 3.99535295"></polygon>
                <path d="M10.8266402,2.99535295 L5.41201981,8.41509594 L0.000659111162,2.99535295 L3.41223285,2.99535295 L3.41223285,0 L7.41223285,0 L7.41223285,2.99535295 L10.8266402,2.99535295 Z M5.41223285,7 L8.41403998,3.99535295 L6.41223285,3.99535295 L6.41223285,1 L4.41223285,1 L4.41223285,3.99535295 L2.41223285,3.99535295 L5.41223285,7 Z" id="Shape" fill="#FFFFFF"></path>
            </g>
        </g>
    </g>
</svg>