<?xml version="1.0" encoding="UTF-8"?>
<svg viewBox="0 0 16 16" version="1.1" xmlns="http://www.w3.org/2000/svg" xmlns:xlink="http://www.w3.org/1999/xlink">
    <title>Web</title>
    <g id="Web-formula" stroke="none" stroke-width="1" fill="none" fill-rule="evenodd">
        <g id="编组-2">
            <g id="编组">
                <path d="M13,1 L13.0006859,5.34165389 C12.3749342,5.1203964 11.7015272,5 11,5 C7.6862915,5 5,7.6862915 5,11 C5,12.5371282 5.57802245,13.939252 6.52856479,15.0008689 L1,15 L1,1 L13,1 Z" id="形状结合" fill="#FFFFFF"></path>
                <path d="M14.0118103,-3.55271368e-14 L14.0118103,1.01422119 C14.0145455,2.82822035 14.0169592,4.42897302 14.0190513,5.81647919 C13.6977844,5.62626047 13.3564751,5.46738428 12.9996782,5.34129768 L12.9999695,1.01422119 L1.76662357,1.01422119 C1.40619175,1.01422119 1.00369263,1.42116025 1.00369263,1.82207433 L1.00369263,12.1499455 C1.22007863,12.0771395 1.43614736,12.0043335 1.68870346,12.0043335 L5.08376571,12.0047998 C5.14300136,12.3561279 5.23277246,12.6970845 5.35025507,13.0248458 L1.76662357,13.0245797 C1.40619175,13.0245797 1.00369263,13.6116504 1.00369263,14.0125645 C1.00369263,14.4134786 1.37002166,15.0005493 1.76662357,15.0005493 L6.52856479,15.0008689 C6.86891775,15.3809934 7.25703086,15.7174621 7.6834702,16.0008411 L1.76662357,16 C0.829056644,16 0.0723401894,15.2709778 -2.13162821e-14,14.3235377 L-2.13162821e-14,1.67646233 C0.0723401894,0.728701439 0.829056644,-3.55271368e-14 1.76662357,-3.55271368e-14 L14.0118103,-3.55271368e-14 Z" id="形状结合" fill="#666666"></path>
            </g>
            <circle id="椭圆形" fill="#FFFFFF" cx="11" cy="11" r="4"></circle>
            <path d="M11,6 C13.7614237,6 16,8.23857625 16,11 C16,13.7614237 13.7614237,16 11,16 C8.23857625,16 6,13.7614237 6,11 C6,8.23857625 8.23857625,6 11,6 Z M14.4642293,13.0011092 L12.6978132,13.0012639 C12.4916872,13.6933771 12.1813947,14.340612 11.7851184,14.9247858 C12.9286305,14.6959025 13.8977724,13.9796202 14.4642293,13.0011092 Z M9.29025495,13.0012639 L7.53577067,13.0011092 C8.09973123,13.9753079 9.06283519,14.689584 10.2014179,14.9202731 C9.80561083,14.3383946 9.49602792,13.6921916 9.29025495,13.0012639 Z M11.6462801,13.0010655 L10.3417881,13.0010655 C10.5058924,13.4650789 10.725458,13.9028844 10.9925189,14.3065159 C11.2626102,13.9028844 11.4821758,13.4650789 11.6462801,13.0010655 Z M9.0708657,10.0001619 L7.12595483,10.0002435 C7.04373079,10.3197901 7,10.6547881 7,11 C7,11.3455738 7.04382251,11.6809122 7.12621352,12.0007613 L9.07099132,12.000716 C9.0242073,11.673885 9,11.3397695 9,11 C9,10.6605348 9.02416397,10.3267133 9.0708657,10.0001619 Z M11.9051626,10.0003152 L10.0829056,10.0003152 C10.0283805,10.3254243 10,10.6593979 10,11 C10,11.3410979 10.0284631,11.6755479 10.0831438,12.0011044 L11.9049244,12.0011044 C11.9596051,11.6755479 11.9880682,11.3410979 11.9880682,11 C11.9880682,10.6593979 11.9596877,10.3254243 11.9051626,10.0003152 Z M14.8740452,10.0002435 L12.9172025,10.0001619 C12.9639042,10.3267133 12.9880682,10.6605348 12.9880682,11 C12.9880682,11.3397695 12.9638609,11.673885 12.9170769,12.000716 L14.8737865,12.0007613 C14.9561775,11.6809122 15,11.3455738 15,11 C15,10.6547881 14.9562692,10.3197901 14.8740452,10.0002435 Z M10.2001646,7.07932311 L10.0294272,7.11856327 C8.96571428,7.38369042 8.07046788,8.07463267 7.53519846,8.99987956 L9.28995236,8.99975245 C9.49559434,8.30887894 9.80502568,7.66270856 10.2001646,7.07932311 Z M10.9951213,7.69283724 L10.8930736,7.84892048 C10.6704037,8.20903319 10.4847592,8.59445855 10.3414523,8.9998842 L11.6466158,8.9998842 C11.4823877,8.53527058 11.2625578,8.09692319 10.9951213,7.69283724 Z M11.7844611,7.07689247 L11.8917872,7.23724084 C12.2375263,7.77857287 12.5108538,8.37062803 12.6981158,8.99975245 L14.4648015,8.99987956 C13.8985915,8.02114987 12.9295856,7.3045951 11.7844611,7.07689247 Z" id="形状结合" fill="#367FC9"></path>
        </g>
    </g>
</svg>