<?xml version="1.0" encoding="UTF-8"?>
<svg viewBox="0 0 32 32" width="32" height="32" version="1.1" xmlns="http://www.w3.org/2000/svg" xmlns:xlink="http://www.w3.org/1999/xlink">
    <g stroke="none" stroke-width="1" fill="none" fill-rule="evenodd">
        <g transform="translate(4.000000, 4.000000)" fill="#3D84CB" fill-rule="nonzero">
            <path d="M12.7039388,6.97146926 L12.4580444,7.8204029 L10.5427296,7.8204029 L9.08656214,13.4462404 C8.44241052,15.9198945 7.79825622,17.8392373 7.1542412,19.2040852 C6.22648029,21.1115801 5.23371387,22.4298303 4.17444463,23.1510664 C3.36764128,23.7172256 2.5596058,24 1.75157032,24 C1.21671924,24 0.769089493,23.844924 0.409915888,23.5347737 C0.136731485,23.3216719 0,23.0462546 0,22.7050466 C0,22.4296284 0.111907302,22.1893518 0.335722979,21.9840141 C0.559537584,21.782354 0.828882565,21.6816261 1.14636468,21.6816261 C1.38581339,21.6816261 1.58741057,21.75518 1.75143103,21.8988142 C1.91531489,22.0422442 1.99732539,22.2091705 1.99732539,22.4028606 C1.99732539,22.5928746 1.90502929,22.7673606 1.71892854,22.9301998 C1.57712444,23.0464557 1.50690809,23.1357418 1.50690809,23.2015317 C1.50690809,23.2750855 1.53941058,23.3335199 1.60441556,23.3760177 C1.68121469,23.4418075 1.80093904,23.4728635 1.96482397,23.4728635 C2.34607679,23.4728635 2.74419906,23.3568119 3.15932471,23.1200095 C3.57445036,22.8872934 3.94528098,22.538323 4.2731853,22.0808583 C4.5997182,21.6233936 4.91075574,20.9605912 5.20615864,20.0998096 C5.325883,19.7353096 5.65378839,18.5488465 6.18863947,16.532653 L8.48013402,7.8204045 L6.18877607,7.8204045 L6.36843118,6.97147086 C7.09966753,6.97147086 7.60983317,6.92100477 7.8986549,6.8202769 C8.18884536,6.71954904 8.45297897,6.52953501 8.69366196,6.25023482 C8.93311067,5.97502095 9.24922083,5.45156216 9.64226727,4.68374442 C10.1550391,3.66012047 10.6520397,2.86921342 11.1321709,2.30305414 C11.7763225,1.53543992 12.4580541,0.957835749 13.1790048,0.573924888 C13.8985842,0.190014826 14.5752399,0 15.2089693,0 C15.8750636,0 16.4086825,0.166721986 16.8120145,0.496284748 C17.2179528,0.825846712 17.4184523,1.18258352 17.4184523,1.56628688 C17.4184523,1.87643881 17.3169677,2.13244615 17.1164682,2.33390109 C16.9136362,2.53556114 16.6559467,2.636289 16.3383279,2.636289 C16.0651435,2.636289 15.8413273,2.56253087 15.6668847,2.40745491 C15.4925781,2.25237894 15.4039848,2.06624692 15.4039848,1.85294005 C15.4039848,1.71727412 15.4613099,1.54667013 15.5782914,1.34112807 C15.6928044,1.13946803 15.7501294,1.0076841 15.7501294,0.941689984 C15.7501294,0.82543409 15.7110442,0.736147928 15.6356165,0.670358125 C15.5261777,0.585158287 15.3622928,0.542456209 15.1436917,0.542456209 C14.5867614,0.542456209 14.0896242,0.713060202 13.653788,1.05426819 C13.0643536,1.51173287 12.5348516,2.2290861 12.065006,3.19836276 C11.8255573,3.69853031 11.3883503,4.95466366 10.7559923,6.97085711 L12.7039479,6.97085711 L12.7039388,6.97146926 Z M16.8797575,6.65334262 C17.3040732,7.09936639 17.6266285,7.54906546 17.8452323,7.99488172 C18.0092533,8.30503365 18.269548,9.11535233 18.6311886,10.425837 L19.7919531,8.73144147 C20.099013,8.31259335 20.4686088,7.92112439 20.9056771,7.54885795 C21.3428846,7.1727119 21.7307186,6.92467208 22.0690478,6.79656745 C22.2746226,6.69972159 22.5114651,6.65313751 22.7716238,6.65313751 C23.1438258,6.65313751 23.4404608,6.75406969 23.664277,6.95552542 C23.8882288,7.15718547 24,7.39746287 24,7.67287866 C24,8.00632263 23.9348579,8.22739351 23.8048479,8.34752902 C23.5627935,8.56083509 23.2842601,8.66564928 22.9693842,8.66564928 C22.7820492,8.66564928 22.5816868,8.63071121 22.3629464,8.55307107 C21.9596144,8.41740514 21.6862907,8.34752902 21.5431146,8.34752902 C21.3271171,8.34752902 21.0747771,8.46378491 20.7910312,8.69650102 C20.2446597,9.14620008 19.5965305,10.011072 18.8418408,11.2866154 L19.9245714,15.7180413 C20.0884552,16.4004573 20.2264189,16.807661 20.3409318,16.9396484 C20.4554448,17.0753143 20.567215,17.1411042 20.6765155,17.1411042 C20.861382,17.1411042 21.0798476,17.0403763 21.3323242,16.8387162 C21.8081539,16.4480938 22.2302143,15.9271626 22.5763327,15.30328 L23.0343847,15.5243501 C22.4773178,16.5363296 21.7721356,17.381584 20.9211738,18.052148 C20.4424141,18.4244121 20.033733,18.6105457 19.6954038,18.6105457 C19.203479,18.6105457 18.8105692,18.3467735 18.5164011,17.811873 C18.3290661,17.470665 17.9490486,16.0283965 17.368665,13.4770982 C16.005068,15.8034412 14.9080768,17.3000571 14.0792023,17.9706171 C13.5444878,18.3972308 13.0251348,18.6105337 12.5242931,18.6105337 C12.1741703,18.6105337 11.8528499,18.4901915 11.557447,18.2421517 C11.3506379,18.0519333 11.2464094,17.7961279 11.2464094,17.47433 C11.2464094,17.1989118 11.3426826,16.962518 11.5326223,16.772504 C11.7239344,16.5824899 11.9620111,16.4856441 12.2456204,16.4856441 C12.5292297,16.4856441 12.8286076,16.62131 13.1460897,16.9004059 C13.3751156,17.1020659 13.5494217,17.2027938 13.6691471,17.2027938 C13.7784487,17.2027938 13.9150415,17.1329177 14.0789264,16.9972517 C14.4940521,16.6676898 15.0548234,15.9581005 15.7653519,14.87645 C16.4732743,13.7945959 16.9391449,13.0153333 17.1576094,12.5345798 C16.6215235,10.4562774 16.3325678,9.35501331 16.2884067,9.22343291 C16.0802262,8.67280086 15.8147201,8.27724557 15.4868158,8.04861499 C15.1589115,7.81978089 14.6839901,7.70740701 14.0619177,7.70740701 C13.8549715,7.70740701 13.6207352,7.71128901 13.3579703,7.72293503 L13.3579703,7.25770874 L16.8797697,6.65333994 L16.8797575,6.65334262 Z"></path>
        </g>
    </g>
</svg>