<svg t="1715071955628" viewBox="0 0 1100 1100" version="1.1" xmlns="http://www.w3.org/2000/svg" p-id="5128" width="180" height="180">
	<path transform="translate(130,130)" d="M356.571429 59.428571v59.428572H118.857143v653.714286h237.714286v59.428571H118.857143a59.428571 59.428571 0 0 1-59.428572-59.428571V118.857143a59.428571 59.428571 0 0 1 59.428572-59.428572h237.714286z m178.285714 0h237.714286a59.428571 59.428571 0 0 1 59.428571 59.428572v653.714286a59.428571 59.428571 0 0 1-59.428571 59.428571H534.857143v-59.428571h237.714286V118.857143H534.857143V59.428571z" fill="#3D84CB" p-id="5129"/>
	<path transform="translate(130,130)" d="M356.571429 59.428571h59.428571v237.714286H356.571429z m118.857142 0h59.428572v594.285715H475.428571z" fill="#3D84CB" p-id="5130"/>
	<path transform="translate(130,130)" d="M475.428571 356.571429V297.142857h297.142858v59.428572z m0 237.714285V534.857143h297.142858v59.428571z" fill="#3D84CB" p-id="5131"/>
	<path transform="translate(130,130)" d="M178.285714 416h178.285715v59.428571H178.285714z" fill="#3D84CB" p-id="5132"/>
	<path transform="translate(130,130)" d="M416 445.714286L297.142857 356.571429v178.285714z" fill="#3D84CB" p-id="5133"/>
	<path transform="translate(130,130)" d="M475.428571 594.285714h59.428572v237.714286H475.428571z m-118.857142 0h59.428571v237.714286H356.571429z" fill="#3D84CB" p-id="5134"/>
</svg>