<svg viewBox="0 0 1100 1100" version="1.1"
    xmlns="http://www.w3.org/2000/svg" p-id="4681" width="180" height="180">
    <path transform="translate(160,160)" d="M260.484848 505.357576a24.242424 24.242424 0 0 1-17.333333-7.2l-0.8-0.860606a28.09697 28.09697 0 0 1-0.763636-37.721212l37.890909-39.89091h-187.878788v-54.751515h187.442424l-37.115151-39.030303a28.133333 28.133333 0 0 1-0.763637-37.684848l0.763637-0.89697a24.472727 24.472727 0 0 1 35.454545-0.909091l100.836364 106.157576-99.624243 104.727273a24.145455 24.145455 0 0 1-18.181818 8.060606m285.090909 0a24.242424 24.242424 0 0 1-17.369697-7.2l-100.739394-106.133334 99.527273-104.763636a24.472727 24.472727 0 0 1 35.454546-0.909091l0.763636 0.909091a27.878788 27.878788 0 0 1 0.8 37.418182l-37.927273 39.890909h187.527273v55.115151H526.157576l37.078788 39.078788a27.709091 27.709091 0 0 1 0.8 37.333334l-0.8 0.896969v0.412122a23.030303 23.030303 0 0 1-17.733334 7.951515M61.248485 805.418182C26.593939 802.448485 0 772.690909 0 735.406061V70.363636C0 31.078788 29.466667 0 66.981818 0h224.09697c37.575758 0 66.993939 30.921212 66.993939 70.412121v70.472727h-52.387879V70.412121a16.254545 16.254545 0 0 0-4.024242-11.030303 15.6 15.6 0 0 0-10.472727-4.727273h-224.242424a15.006061 15.006061 0 0 0-10.424243 4.630303 14.278788 14.278788 0 0 0-4.024242 10.678788v664.424243c0 9.769697 5.236364 15.260606 14.448485 15.260606h224.133333a15.115152 15.115152 0 0 0 10.436364-4.630303 14.339394 14.339394 0 0 0 4.024242-10.581818v-70.351516H357.575758v70.303031c0 39.478788-29.466667 70.412121-66.99394 70.412121H61.187879l0.109091 0.606061z m453.636363 0.4c-37.478788 0-66.945455-30.921212-66.945454-70.412121v-70.424243h52.375758v70.424243c0 9.69697 5.248485 15.260606 14.460606 15.260606h224.654545a16.690909 16.690909 0 0 0 14.460606-15.260606V70.812121c0-9.69697-5.236364-15.260606-14.460606-15.260606H514.884848a16.666667 16.666667 0 0 0-14.4 15.260606v72.59394h-52.448484V70.872727c0-39.50303 29.466667-70.424242 66.993939-70.424242h224.09697c37.575758 0 66.993939 30.921212 66.993939 70.424242v664.581818c0 39.490909-29.466667 70.412121-66.993939 70.412122h-224.242425z m0 0" fill="#3D84CB" p-id="4682"></path>
</svg>