<?xml version="1.0" encoding="UTF-8"?>
<svg viewBox="0 0 16 16" version="1.1" xmlns="http://www.w3.org/2000/svg" xmlns:xlink="http://www.w3.org/1999/xlink">
    <!-- Generator: Sketch 52.6 (67491) - http://www.bohemiancoding.com/sketch -->
    <title>basic shapes-action button sound</title>
    <desc>Created with Sketch.</desc>
    <g id="basic-shapes-action-button-sound" stroke="none" stroke-width="1" fill="none" fill-rule="evenodd">
        <g id="3.51" fill="#767676" fill-rule="nonzero">
            <path d="M0,0 L16,0 L16,16 L0,16 L0,0 Z M1,1 L1,15 L15,15 L15,1 L1,1 Z M4.96363636,7.36363636 L9,4 L9,14 L4.96363636,10.6363636 L2,10.6363636 L2,7.36363636 L4.96363636,7.36363636 Z M10,9 L10,8 L14,8 L14,9 L10,9 Z M10.5,5.8660254 L10,5 L13.4641016,3 L13.9641016,3.8660254 L10.5,5.8660254 Z M10,11.8660254 L10.5,11 L13.9641016,13 L13.4641016,13.8660254 L10,11.8660254 Z" id="合并形状"></path>
        </g>
    </g>
</svg>