<?xml version="1.0" encoding="UTF-8"?>
<svg viewBox="0 0 16 16" version="1.1" xmlns="http://www.w3.org/2000/svg" xmlns:xlink="http://www.w3.org/1999/xlink">
    <!-- Generator: Sketch 52.6 (67491) - http://www.bohemiancoding.com/sketch -->
    <title>basic shapes-action button information</title>
    <desc>Created with Sketch.</desc>
    <g id="basic-shapes-action-button-information" stroke="none" stroke-width="1" fill="none" fill-rule="evenodd">
        <g id="3.44" fill="#767676" fill-rule="nonzero">
            <path d="M0,0 L16,0 L16,16 L0,16 L0,0 Z M1,1 L1,15 L15,15 L15,1 L1,1 Z M7.54545455,6.63636364 L6.63636364,6.63636364 L6.63636364,7.54545455 L7.54545455,7.54545455 L7.54545455,10.2727273 L6.63636364,10.2727273 L6.63636364,11.1818182 L7.54545455,11.1818182 L8.45454545,11.1818182 L9.36363636,11.1818182 L9.36363636,10.2727273 L8.45454545,10.2727273 L8.45454545,6.63636364 L7.54545455,6.63636364 Z M8,13 C5.23857625,13 3,10.7614237 3,8 C3,5.23857625 5.23857625,3 8,3 C10.7614237,3 13,5.23857625 13,8 C13,10.7614237 10.7614237,13 8,13 Z M7.09090909,5.04545444 C7.09090915,5.42201173 7.39617009,5.72727273 7.77272727,5.72727273 C8.14928446,5.72727267 8.45454545,5.42201173 8.45454545,5.04545455 C8.45454545,4.66889736 8.14928558,4.36363636 7.77272727,4.36363636 C7.39617009,4.36363636 7.09090909,4.66889623 7.09090909,5.04545455 Z" id="合并形状"></path>
        </g>
    </g>
</svg>