<?xml version="1.0" encoding="UTF-8"?>
<svg viewBox="0 0 16 16" version="1.1" xmlns="http://www.w3.org/2000/svg" xmlns:xlink="http://www.w3.org/1999/xlink">
    <!-- Generator: Sketch 52.6 (67491) - http://www.bohemiancoding.com/sketch -->
    <title>basic shapes-action button movie</title>
    <desc>Created with Sketch.</desc>
    <g id="basic-shapes-action-button-movie" stroke="none" stroke-width="1" fill="none" fill-rule="evenodd">
        <g id="3.52" fill="#767676" fill-rule="nonzero">
            <path d="M0,0 L16,0 L16,16 L0,16 L0,0 Z M1,1 L1,15 L15,15 L15,1 L1,1 Z M5.21691895,5.04272461 L9.58789062,5.04272461 C10.3779528,5.77975267 10.8599678,6.25423998 11.0339355,6.46618652 C11.2079033,6.67813307 11.2621432,6.85607089 11.1966553,7 L11.7199707,7.21606445 L13.2977295,6 L14,6 L14,11 L13,11 L11.7199707,9.59875367 C11.4795736,9.47904257 11.3051351,9.47904257 11.1966553,9.59875367 C11.0881755,9.71846476 11.0881755,9.97839355 11.1966553,10.37854 L10.5102539,11 L3.44812012,11 L3.44812012,8.984375 C3.44812012,7.9954834 3.44812012,7.5010376 3.44812012,7.5010376 C3.2450765,7.5010376 3.07447627,7.6673584 2.93631943,8 L2,8 L2,4.0020752 L2.93631943,4.0020752 C3.27044234,4.58735356 3.53800709,4.9342367 3.73901367,5.04272461 C3.94002026,5.15121252 4.43265535,5.15121252 5.21691895,5.04272461 Z" id="合并形状"></path>
        </g>
    </g>
</svg>