<?xml version="1.0" encoding="UTF-8"?>
<svg viewBox="0 0 16 16" version="1.1" xmlns="http://www.w3.org/2000/svg" xmlns:xlink="http://www.w3.org/1999/xlink">
    <!-- Generator: Sketch 52.6 (67491) - http://www.bohemiancoding.com/sketch -->
    <title>basic shapes-action button begining</title>
    <desc>Created with Sketch.</desc>
    <g id="basic-shapes-action-button-begining" stroke="none" stroke-width="1" fill="none" fill-rule="evenodd">
        <g id="3.47" fill="#767676" fill-rule="nonzero">
            <path d="M0,0 L16,0 L16,16 L0,16 L0,0 Z M1,1 L1,15 L15,15 L15,1 L1,1 Z M7.11300554,8.22076456 L7.11302347,8.22076455 L7.11284769,8.22076455 C6.9623841,8.11845401 6.9623841,7.88186324 7.11284769,7.77955269 L12.629641,4.04040717 C12.7904753,3.93131632 12.9999994,4.05591852 12.9999994,4.2610131 L12.9999994,11.7393041 C13.0001026,11.7885818 12.9872103,11.836877 12.9628243,11.8785652 C12.8917426,12.0000788 12.7426977,12.0364981 12.6299219,11.9599101 L7.11300554,8.22076456 Z M4,4 L6,4 L6,12 L4,12 L4,4 Z" id="合并形状"></path>
        </g>
    </g>
</svg>