<?xml version="1.0" encoding="UTF-8"?>
<svg viewBox="0 0 16 16" version="1.1" xmlns="http://www.w3.org/2000/svg" xmlns:xlink="http://www.w3.org/1999/xlink">
    <!-- Generator: Sketch 52.6 (67491) - http://www.bohemiancoding.com/sketch -->
    <title>basic shapes-bevel</title>
    <desc>Created with Sketch.</desc>
    <g id="basic-shapes-bevel" stroke="none" stroke-width="1" fill="none" fill-rule="evenodd">
        <g id="3.23" fill="#767676" fill-rule="nonzero">
            <path d="M14.2745768,14.9947561 L13.2868459,13.9951057 L2.68809538,13.9951057 L1.70036445,14.9947561 L14.2745768,14.9947561 Z M15,14.306434 L15,1.69507684 L14,2.70714438 L14,13.2943665 L15,14.306434 Z M15.2623077,15.9944066 L0.712633529,15.9944066 L0.707106781,16 L0.701511383,15.9944066 L0,15.9944066 L0,0 L16,0 L16,15.9944066 L15.2734299,15.9944066 L15.2678345,16 L15.2623077,15.9944066 Z M1,14.2810729 L2,13.2690053 L2,2.69995184 L1,1.68788429 L1,14.2810729 Z M14.2815964,0.99965041 L1.72551039,0.99965041 L2.71324132,1.99930082 L13.2938655,1.99930082 L14.2815964,0.99965041 Z M3,2.99895123 L3,12.9954553 L13,12.9954553 L13,2.99895123 L3,2.99895123 Z" id="形状"></path>
        </g>
    </g>
</svg>