<?xml version="1.0" encoding="UTF-8"?>
<svg viewBox="0 0 16 16" version="1.1" xmlns="http://www.w3.org/2000/svg" xmlns:xlink="http://www.w3.org/1999/xlink">
    <!-- Generator: Sketch 52.6 (67491) - http://www.bohemiancoding.com/sketch -->
    <title>basic shapes-can</title>
    <desc>Created with Sketch.</desc>
    <g id="basic-shapes-can" stroke="none" stroke-width="1" fill="none" fill-rule="evenodd">
        <g id="3.21" transform="translate(3.000000, 0.000000)" fill="#767676" fill-rule="nonzero">
            <path d="M10,4.72531589 C9.00463259,5.49630085 7.36015777,6 5.5,6 C3.63984223,6 1.99536741,5.49630085 1,4.72531589 L1,13.0000001 C1,14.1045695 3.01471863,15 5.5,15 C7.98528137,15 10,14.1045695 10,13 L10,4.72531589 Z M11,3 L11,13 C11,14.6568542 8.53756612,16 5.5,16 C2.46243388,16 0,14.6568542 0,13 L0,3 C0,1.34314575 2.46243388,0 5.5,0 C8.53756612,0 11,1.34314575 11,3 Z M5.5,5 C7.98528137,5 10,4.1045695 10,3 C10,1.8954305 7.98528137,1 5.5,1 C3.01471863,1 1,1.8954305 1,3 C1,4.1045695 3.01471863,5 5.5,5 Z" id="形状"></path>
        </g>
    </g>
</svg>