<?xml version="1.0" encoding="UTF-8"?>
<svg viewBox="0 0 16 16" version="1.1" xmlns="http://www.w3.org/2000/svg" xmlns:xlink="http://www.w3.org/1999/xlink">
    <!-- Generator: Sketch 52.6 (67491) - http://www.bohemiancoding.com/sketch -->
    <title>basic shapes-chord</title>
    <desc>Created with Sketch.</desc>
    <g id="basic-shapes-chord" stroke="none" stroke-width="1" fill="none" fill-rule="evenodd">
        <g id="3.13" fill="#767676" fill-rule="nonzero">
            <path d="M10.3566199,5.56971116 L10.3452534,5.55868254 C9.70301381,4.93553477 7.44627836,2.7467115 7.02305641,2.33605223 C6.46971188,1.79913288 6.06636198,1.40743841 5.79387944,1.14224437 C2.96852173,2.10418458 1.01275547,4.78620207 1.01275547,7.87544751 C1.01275547,11.8016306 4.18673793,14.9844309 8.10204373,14.9844309 C11.2271379,14.9844309 13.9557704,12.899596 14.8694318,9.9604752 C14.1740031,9.27707919 12.6520755,7.79693995 10.3566199,5.56971116 Z M8.10204373,16 C3.62740853,16 0,12.3625139 0,7.87544751 C0,4.08008032 2.56850349,0.892550051 6.0765328,0 C6.41509597,0.342486282 15.3927885,9.02659884 16,9.65436771 C15.1759078,13.265136 11.9526791,16 8.10204373,16 Z" id="椭圆形"></path>
        </g>
    </g>
</svg>