<?xml version="1.0" encoding="UTF-8"?>
<svg viewBox="0 0 16 16" version="1.1" xmlns="http://www.w3.org/2000/svg" xmlns:xlink="http://www.w3.org/1999/xlink">
    <!-- Generator: Sketch 52.6 (67491) - http://www.bohemiancoding.com/sketch -->
    <title>basic shapes-cloud</title>
    <desc>Created with Sketch.</desc>
    <g id="basic-shapes-cloud" stroke="none" stroke-width="1" fill="none" fill-rule="evenodd">
        <g id="3.33" transform="translate(0.000000, 2.000000)" fill="#767676" fill-rule="nonzero">
            <path d="M4.57364536,2.59877407 L4.6617726,3.38091154 L3.93319149,3.12664063 C3.09757737,2.83501578 2.52894625,2.73135971 2.28882659,2.79039544 C1.7489702,2.92312433 0.973048477,3.73186173 0.973048477,4.27745384 C0.973048477,5.23837491 1.6157363,6.20916697 2.96221878,7.1860053 L3.4945207,7.57217663 L2.98064198,7.98362216 C1.9684943,8.79401502 2.1087007,9.45588269 3.61552931,10.3892781 C5.06124822,11.2848194 5.59011546,10.9725846 5.66251333,9.15035313 L6.63510315,9.17820557 C6.61594398,10.4522239 7.16137752,11.0048591 8.45012415,11.0048591 C9.7101792,11.0048591 10.1377015,10.4995957 9.94275359,9.2488818 L9.76146903,8.08582684 L10.7032205,8.7636501 C12.660799,10.1726123 13.8842965,10.1726123 14.6337593,8.91204608 C15.4068967,7.61166024 15.0444409,6.54330454 13.40707,5.50718617 L12.6447115,5.02477034 L13.4556798,4.63395881 C14.9604292,3.90880915 15.1147965,3.06371578 13.970697,1.71081164 C13.8509859,1.5692526 13.7359979,1.45848009 13.6229171,1.37338397 C13.2571708,1.09815072 12.9975862,1.06875798 11.9695445,1.1312422 C11.5988482,1.15377307 11.365098,1.16348069 11.0892589,1.16348069 C10.6313808,1.16348069 9.8444715,1.87558938 8.84951537,3.33832225 L7.96359991,4.64074919 L7.96359991,3.05417881 C7.96359991,1.61580851 7.40486793,0.995140914 6.14863644,0.995140914 C4.89534906,0.995140914 4.44603807,1.46624741 4.57364536,2.59877407 Z M6.14863644,0 C7.52533352,0 8.41920016,0.62529357 8.76941902,1.78952658 C9.6303638,0.715020874 10.3838999,0.168339781 11.0892589,0.168339781 C11.3413535,0.168339781 11.5588607,0.159306721 11.9118176,0.137854054 C13.1649198,0.061690691 13.584869,0.109241511 14.1996086,0.571848424 C14.373788,0.702922827 14.5413563,0.864347977 14.706676,1.05983947 C16.0698445,2.67179393 16.0137555,4.11404565 14.5731769,5.12683754 C16.0867885,6.34926206 16.4162452,7.82940299 15.4651767,9.42906179 C14.4926946,11.0647375 12.9239554,11.2531378 10.9391004,10.0970606 C10.8047888,11.3243173 9.93894918,12 8.45012415,12 C7.41848648,12 6.65406511,11.6804167 6.18905457,11.0716481 C5.62177199,12.0406807 4.54647356,12.1293936 3.11142114,11.2404595 C1.30011882,10.1184599 0.85285363,8.81554999 1.92127238,7.62901946 C0.654961341,6.58748604 0,5.47120739 0,4.27745384 C0,3.2213579 1.11964924,2.05435589 2.06138428,1.82282127 C2.42605951,1.73316236 2.92757348,1.78818908 3.59367854,1.97650024 C3.70921615,0.697669268 4.60720279,0 6.14863644,0 Z"></path>
        </g>
    </g>
</svg>