<?xml version="1.0" encoding="UTF-8"?>
<svg viewBox="0 0 16 16" version="1.1" xmlns="http://www.w3.org/2000/svg" xmlns:xlink="http://www.w3.org/1999/xlink">
    <!-- Generator: Sketch 52.6 (67491) - http://www.bohemiancoding.com/sketch -->
    <title>basic shapes-double brace</title>
    <desc>Created with Sketch.</desc>
    <g id="basic-shapes-double-brace" stroke="none" stroke-width="1" fill="none" fill-rule="evenodd">
        <g id="3.36" transform="translate(0.000000, 1.000000)" fill="#767676" fill-rule="nonzero">
            <path d="M4,11.3458252 C4,11.9158252 3.78393555,12.9284668 4.39880371,13.4642334 C5.01367187,14 5.86868687,14 7,14 L7,15 C5.58585859,15 4.47660196,14.5866553 3.76953125,14.1966553 C3.13316761,13.8366553 3,12.0690088 3,11.1090088 L3,10.2180176 C3,9.67801758 2.78273457,9.23283203 2.42919922,8.90283203 C2.07566387,8.57283203 1.2020202,8.1 0,8.04 L0,7.05 C1.13131313,6.99 1.67133863,6.52769043 2.09558105,6.25769043 C2.51982348,5.98769043 3,5.725 3,5.125 L3,3.51416016 C3,2.52416016 3.39404297,1.30480957 4,0.790771484 C4.60595703,0.276733398 5.58585859,2.19997035e-14 7,-7.78925227e-08 L7,1 C5.86868687,1 5.25634766,0.874023438 4.6270752,1.63024902 C3.99780273,2.38647461 4,3.51159668 4,4.17858887 L4,5.58 C4,6.3 3.24804688,6.82094727 2.83862305,7.05 C2.56567383,7.20270182 2.26147461,7.20270182 1.92602539,7.05 L1.92602539,8.04 C2.4387207,7.87042969 2.79671224,7.87042969 3,8.04 C3.30493164,8.29435547 4,9.19409668 4,9.82409668 L4,11.3458252 Z" id="Shape"></path>
            <path d="M13,11.3458252 C13,11.9158252 12.7839355,12.9284668 13.3988037,13.4642334 C14.0136719,14 14.8686869,14 16,14 L16,15 C14.5858586,15 13.476602,14.5866553 12.7695312,14.1966553 C12.1331676,13.8366553 12,12.0690088 12,11.1090088 L12,10.2180176 C12,9.67801758 11.7827346,9.23283203 11.4291992,8.90283203 C11.0756639,8.57283203 10.2020202,8.1 9,8.04 L9,7.05 C10.1313131,6.99 10.6713386,6.52769043 11.0955811,6.25769043 C11.5198235,5.98769043 12,5.725 12,5.125 L12,3.51416016 C12,2.52416016 12.394043,1.30480957 13,0.790771484 C13.605957,0.276733398 14.5858586,2.19997035e-14 16,-7.78925227e-08 L16,1 C14.8686869,1 14.2563477,0.874023438 13.6270752,1.63024902 C12.9978027,2.38647461 13,3.51159668 13,4.17858887 L13,5.58 C13,6.3 12.2480469,6.82094727 11.838623,7.05 C11.5656738,7.20270182 11.2614746,7.20270182 10.9260254,7.05 L10.9260254,8.04 C11.4387207,7.87042969 11.7967122,7.87042969 12,8.04 C12.3049316,8.29435547 13,9.19409668 13,9.82409668 L13,11.3458252 Z" id="Shape" transform="translate(12.500000, 7.500000) scale(-1, 1) translate(-12.500000, -7.500000) "></path>
        </g>
    </g>
</svg>