<?xml version="1.0" encoding="UTF-8"?>
<svg viewBox="0 0 16 16" version="1.1" xmlns="http://www.w3.org/2000/svg" xmlns:xlink="http://www.w3.org/1999/xlink">
    <!-- Generator: Sketch 52.6 (67491) - http://www.bohemiancoding.com/sketch -->
    <title>basic shapes-left circular arrow</title>
    <desc>Created with Sketch.</desc>
    <g id="basic-shapes-left-circular-arrow" stroke="none" stroke-width="1" fill="none" fill-rule="evenodd">
        <g id="3.58" transform="translate(0.000000, 4.000000)" fill="#767676">
            <path d="M13.8576281,2.61283128 C13.6519144,3.13429045 13.5450476,3.42477538 13.5370277,3.48428607 C13.3474233,4.89122654 12.3977583,9.11946494 7.82537678,9.11946494 C7.50117675,9.11946494 6.76684196,9.1273092 6.66462286,9.11946494 C1.84266742,8.74942967 0.912030307,3.36363636 0.912030307,3 L2.38677351,3 L2.71904887,4.13720643 C3.52268289,6.11603089 5.12607453,7.69582483 7.37143221,7.69582483 C11.5729627,7.67056375 12.172452,3.62365751 12.2295118,3.48428607 L11.8933131,2.61283128 L12.785363,1.74175976 L13.8576281,2.61283128 Z M12.785363,0 L9.57072608,3.48428607 L11.2455394,3.48428607 C11.2455394,3.48428607 11.0674611,6.87717582 7.37143221,6.89982368 C5.33978165,6.91114761 4.06479699,5.29190738 3.60312458,4.13720643 C3.29534297,3.36740581 3.09430145,2.65500366 3,2 L1.13686838e-13,2 C1.13697246e-13,2 0.312948361,10 7.37143221,10 C13.7948422,10 14.6980928,3.48428607 14.3926815,3.48428607 L16,3.48428607 L12.785363,0 Z" id="Fill-1"></path>
        </g>
    </g>
</svg>