<?xml version="1.0" encoding="UTF-8"?>
<svg viewBox="0 0 16 16" version="1.1" xmlns="http://www.w3.org/2000/svg" xmlns:xlink="http://www.w3.org/1999/xlink">
    <!-- Generator: Sketch 52.6 (67491) - http://www.bohemiancoding.com/sketch -->
    <title>basic shapes-left brace</title>
    <desc>Created with Sketch.</desc>
    <g id="basic-shapes-left-brace" stroke="none" stroke-width="1" fill="none" fill-rule="evenodd">
        <g id="3.39" transform="translate(5.000000, 2.000000)" fill="#767676" fill-rule="nonzero">
            <path d="M3,8.32027182 C3,8.73827182 2.98999023,9.40356445 3.30505371,9.79223633 C3.62011719,10.1809082 4.19191919,10 5,10 L5,11 C3.98989899,11 2.82499679,10.8533828 2.31994629,10.5673828 C1.86540083,10.3033828 2,8.85060646 2,8.14660646 L2,7.36975098 C2,6.97375098 1.70284264,6.76592578 1.45031738,6.52392578 C1.19779213,6.28192578 0.858585859,6.044 0,6 L0,4.99951172 C0.808080808,4.95551172 1.14728708,4.48742871 1.45031738,4.28942871 C1.75334769,4.09142871 2,4.1879248 2,3.7479248 L2,2.57705082 C2,1.85105083 2.06717355,0.769051105 2.5,0.392089844 C2.93282645,0.0151285827 3.98989899,5.71211991e-08 5,0 L5,1 C4.19191919,1 3.75453404,0.806152347 3.30505371,1.36071777 C2.85557338,1.9152832 3,2.57517094 3,3.06429854 L3,4.01782227 C3,4.54582226 2.79244559,4.83153971 2.5,4.99951172 C2.30503627,5.11149305 2.05008371,5.11149305 1.7351423,4.99951172 L1.7351423,5.89600003 C2.20783343,5.84098178 2.51678176,5.87564844 2.6619873,6 C2.87979562,6.18652734 3,6.74233759 3,7.20433758 L3,8.32027182 Z" id="Shape"></path>
        </g>
    </g>
</svg>