<?xml version="1.0" encoding="UTF-8"?>
<svg viewBox="0 0 16 16" version="1.1" xmlns="http://www.w3.org/2000/svg" xmlns:xlink="http://www.w3.org/1999/xlink">
    <!-- Generator: Sketch 52.6 (67491) - http://www.bohemiancoding.com/sketch -->
    <title>basic shapes-moon</title>
    <desc>Created with Sketch.</desc>
    <g id="basic-shapes-moon" stroke="none" stroke-width="1" fill="none" fill-rule="evenodd">
        <g id="3.32" transform="translate(2.000000, 0.000000)" fill="#767676">
            <path d="M8.76535864,0.812702608 C6.74005296,3.21158511 5.114182,5.06932407 5.057091,8.02827349 C5,10.9872229 6.95043585,13.1344234 8.76535864,15.2395552 C5.54566091,15.2395552 1.0114182,11.4127789 1.0114182,8.02827349 C1.0114182,4.64476413 4.54313213,1.48069351 8.76535864,0.812702608 Z M10,0.812702608 C10,-0.315699817 9.51845668,0.0600442134 9.1027638,0.0600442134 C4.07500393,0.0600442134 0,3.62682284 0,8.02827349 C0,12.4287281 4.07500393,15.9965028 9.1027638,15.9965028 C9.51845668,15.9965028 10,16.0955399 10,15.2395552 C10,14.3835705 6.0685092,11.4426597 6.0685092,8.02827349 C6.0685092,4.61289122 10,1.94110503 10,0.812702608 Z" id="Fill-1"></path>
        </g>
    </g>
</svg>