<?xml version="1.0" encoding="UTF-8"?>
<svg viewBox="0 0 16 16" version="1.1" xmlns="http://www.w3.org/2000/svg" xmlns:xlink="http://www.w3.org/1999/xlink">
    <!-- Generator: Sketch 52.6 (67491) - http://www.bohemiancoding.com/sketch -->
    <title>basic shapes-plaque</title>
    <desc>Created with Sketch.</desc>
    <g id="basic-shapes-plaque" stroke="none" stroke-width="1" fill="none" fill-rule="evenodd">
        <g id="3.20" transform="translate(0.000000, 1.000000)" fill="#767676" fill-rule="nonzero">
            <path d="M3,2 L3,0 L13,0 L13,2 L14,3 L16,3 L16,12 L14,12 L13,13 L13,15 L3,15 L3,13 L2,12 L0,12 L0,3 L2,3 L3,2 Z M4,2.5 L2.5,4 L1,4 L1,11 L2.5,11 L4,12.5 L4,14 L12,14 L12,12.5 L13.5,11 L15,11 L15,4 L13.5,4 L12,2.5 L12,1 L4,1 L4,2.5 Z" id="3.23"></path>
        </g>
    </g>
</svg>