<?xml version="1.0" encoding="UTF-8"?>
<svg viewBox="0 0 16 16" version="1.1" xmlns="http://www.w3.org/2000/svg" xmlns:xlink="http://www.w3.org/1999/xlink">
    <!-- Generator: Sketch 52.6 (67491) - http://www.bohemiancoding.com/sketch -->
    <title>basic shapes-smiley face</title>
    <desc>Created with Sketch.</desc>
    <g id="basic-shapes-smiley-face" stroke="none" stroke-width="1" fill="none" fill-rule="evenodd">
        <g id="3.28" fill="#767676" fill-rule="nonzero">
            <path d="M8,16 C3.581722,16 0,12.418278 0,8 C0,3.581722 3.581722,0 8,0 C12.418278,0 16,3.581722 16,8 C16,12.418278 12.418278,16 8,16 Z M8,15 C11.8659932,15 15,11.8659932 15,8 C15,4.13400675 11.8659932,1 8,1 C4.13400675,1 1,4.13400675 1,8 C1,11.8659932 4.13400675,15 8,15 Z M5.5,7 C4.67157288,7 4,6.32842712 4,5.5 C4,4.67157288 4.67157288,4 5.5,4 C6.32842712,4 7,4.67157288 7,5.5 C7,6.32842712 6.32842712,7 5.5,7 Z M5.5,5 C5.22385763,5 5,5.22385763 5,5.5 C5,5.77614237 5.22385763,6 5.5,6 C5.77614237,6 6,5.77614237 6,5.5 C6,5.22385763 5.77614237,5 5.5,5 Z M10.5,7 C9.67157288,7 9,6.32842712 9,5.5 C9,4.67157288 9.67157288,4 10.5,4 C11.3284271,4 12,4.67157288 12,5.5 C12,6.32842712 11.3284271,7 10.5,7 Z M10.5,5 C10.2238576,5 10,5.22385763 10,5.5 C10,5.77614237 10.2238576,6 10.5,6 C10.7761424,6 11,5.77614237 11,5.5 C11,5.22385763 10.7761424,5 10.5,5 Z M4,10 C5.33333333,11.4090169 6.66666667,12.1135254 8,12.1135254 C9.33333333,12.1135254 10.6666667,11.4090169 12,10 L12,11 C10.6666667,12.3740234 9.33333333,13.0610352 8,13.0610352 C6.66666667,13.0610352 5.33333333,12.3740234 4,11 L4,10 Z" id="合并形状"></path>
        </g>
    </g>
</svg>