<?xml version="1.0" encoding="UTF-8"?>
<svg viewBox="0 0 16 16" version="1.1" xmlns="http://www.w3.org/2000/svg" xmlns:xlink="http://www.w3.org/1999/xlink">
    <!-- Generator: Sketch 52.6 (67491) - http://www.bohemiancoding.com/sketch -->
    <title>basic shapes-square tabs</title>
    <desc>Created with Sketch.</desc>
    <g id="basic-shapes-square-tabs" stroke="none" stroke-width="1" fill="none" fill-rule="evenodd">
        <g id="3.68" fill="#767676" fill-rule="nonzero">
            <path d="M12,1 L12,-1.1937118e-12 L16,-1.1937118e-12 L16,1 L16,3 L16,4 L12,4 L12,3 L12,1 Z M13,1 L13,3 L15,3 L15,1 L13,1 Z M0,1 L0,-1.1937118e-12 L4,-1.1937118e-12 L4,1 L4,3 L4,4 L0,4 L0,3 L0,1 Z M1,1 L1,3 L3,3 L3,1 L1,1 Z M12,13 L12,12 L16,12 L16,13 L16,15 L16,16 L12,16 L12,15 L12,13 Z M13,13 L13,15 L15,15 L15,13 L13,13 Z M0,13 L0,12 L4,12 L4,13 L4,15 L4,16 L0,16 L0,15 L0,13 Z M1,13 L1,15 L3,15 L3,13 L1,13 Z" id="合并形状"></path>
        </g>
    </g>
</svg>