<?xml version="1.0" encoding="UTF-8"?>
<svg viewBox="0 0 16 16" version="1.1" xmlns="http://www.w3.org/2000/svg" xmlns:xlink="http://www.w3.org/1999/xlink">
    <!-- Generator: Sketch 52.6 (67491) - http://www.bohemiancoding.com/sketch -->
    <title>basic shapes-sun</title>
    <desc>Created with Sketch.</desc>
    <g id="basic-shapes-sun" stroke="none" stroke-width="1" fill="none" fill-rule="evenodd">
        <g id="3.31" transform="translate(0.000000, 1.000000)" fill="#767676" fill-rule="nonzero">
            <path d="M7.5,12 C5.01471863,12 3,9.98528137 3,7.5 C3,5.01471863 5.01471863,3 7.5,3 C9.98528137,3 12,5.01471863 12,7.5 C12,9.98528137 9.98528137,12 7.5,12 Z M7.5,11 C9.43299662,11 11,9.43299662 11,7.5 C11,5.56700338 9.43299662,4 7.5,4 C5.56700338,4 4,5.56700338 4,7.5 C4,9.43299662 5.56700338,11 7.5,11 Z M6,1 L7,1 L7,0 L8,0 L8,1 L9,1 L9,2 L6,2 L6,1 Z M14,6 L14,7 L15,7 L15,8 L14,8 L14,9 L13,9 L13,6 L14,6 Z M1,6 L2,6 L2,9 L1,9 L1,8 L-1.33907057e-16,8 L-7.26747174e-17,7 L1,7 L1,6 Z M6,14 L6,13 L9,13 L9,14 L8,14 L8,15 L7,15 L7,14 L6,14 Z M2,2 L5,2 L2,5 L2,2 Z M13,2 L13,5 L10,2 L13,2 Z M13,13 L10,13 L13,10 L13,13 Z M2,13 L2,10 L5,13 L2,13 Z" id="合并形状"></path>
        </g>
    </g>
</svg>