<?xml version="1.0" encoding="UTF-8"?>
<svg viewBox="0 0 16 16" version="1.1" xmlns="http://www.w3.org/2000/svg" xmlns:xlink="http://www.w3.org/1999/xlink">
    <!-- Generator: Sketch 52.6 (67491) - http://www.bohemiancoding.com/sketch -->
    <title>basic shapes-up down arrow callout</title>
    <desc>Created with Sketch.</desc>
    <g id="basic-shapes-up-down-arrow-callout" stroke="none" stroke-width="1" fill="none" fill-rule="evenodd">
        <g id="3.41" transform="translate(1.000000, 0.000000)" fill="#767676" fill-rule="nonzero">
            <path d="M13,10 L13,6 L8,6 L8,3 L9,3 L7,1.20251465 L5,3 L6,3 L6,6 L1,6 L1,10 L6,10 L6,13 L5,13 L7,14.7974854 L9,13 L8,13 L8,10 L13,10 Z M5,11 L0,11 L0,5 L5,5 L5,4 L3.5,4 L3.5,3 L7,1.24344979e-14 L10.5,3 L10.5,4 L9,4 L9,5 L14,5 L14,11 L9,11 L9,12 L10.5,12 L10.5,13 L7,16 L3.5,13 L3.5,12 L5,12 L5,11 Z" id="Shape"></path>
        </g>
    </g>
</svg>