<svg viewBox="0,0,64,64" xmlns="http://www.w3.org/2000/svg" version="1.1">
 <!-- Generator: Sketch 55.2 (78181) - https://sketchapp.com -->

 <title>segmented</title>
 <desc>Created with Sketch.</desc>
 <g>
  <title>Layer 1</title>
  <g stroke="null" fill-rule="evenodd" fill="none" id="segmented">
   <g stroke="null" id="segmented备份">
    <g stroke="null" fill="#367FC9" id="编组-6">
     <rect stroke="null" height="31.95833" width="23.96875" y="16.02083" x="0" id="矩形"/>
    </g>
    <path stroke="null" fill-rule="nonzero" fill="#367FC9" id="c" d="m57.50399,43.98437c-5.43152,0 -9.56649,-3.6687 -9.56649,-9.95302c0,-6.35224 4.69564,-10.02093 10.02201,-10.02093c2.41793,0 4.27515,0.91716 5.71187,2.10609l-2.45296,3.22707c-0.98116,-0.81526 -1.89225,-1.25684 -3.01359,-1.25684c-2.9786,0 -5.01103,2.34386 -5.01103,5.94461c0,3.56679 2.03243,5.8767 4.87085,5.8767c1.40165,0 2.73328,-0.6454 3.81958,-1.52861l2.03243,3.29502c-1.85722,1.59656 -4.24007,2.30991 -6.41268,2.30991z"/>
    <path stroke="null" fill-rule="nonzero" fill="#FFFFFF" id="a" d="m9.65054,43.98437c-3.40708,0 -5.65575,-2.41182 -5.65575,-5.63889c0,-4.07633 3.30485,-6.21641 10.97078,-7.03167c-0.06815,-1.86832 -0.88585,-3.29502 -3.23674,-3.29502c-1.77165,0 -3.47519,0.7813 -5.24688,1.80037l-1.80573,-3.29502c2.24867,-1.39274 4.97431,-2.51372 7.97253,-2.51372c4.83805,0 7.32521,2.8874 7.32521,8.39042l0,11.10796l-4.08847,0l-0.37479,-2.03814l-0.10223,0c-1.66946,1.4267 -3.57742,2.51372 -5.75793,2.51372zm1.63539,-3.90647c1.43097,0 2.48716,-0.67939 3.67964,-1.86832l0,-3.83852c-4.63364,0.61144 -6.20088,1.86828 -6.20088,3.56675c0,1.49465 1.05618,2.14009 2.52123,2.14009z"/>
    <path stroke="null" fill-rule="nonzero" fill="#367FC9" id="b" d="m37.04766,43.98437c-1.61641,0 -3.3621,-0.83144 -4.84916,-2.3344l-0.09699,0l-0.42025,1.8867l-3.71771,0l0,-25.51845l4.71985,0l0,6.42758l-0.09695,2.87801c1.42239,-1.27909 3.23275,-2.14253 5.01079,-2.14253c4.46122,0 7.14444,3.61353 7.14444,9.08176c0,6.17175 -3.71771,9.72133 -7.69401,9.72133zm-1.06681,-3.86936c2.19829,0 3.8793,-1.8547 3.8793,-5.75602c0,-3.42166 -1.09913,-5.30836 -3.58836,-5.30836c-1.22848,0 -2.32761,0.60757 -3.5884,1.85474l0,7.86658c1.13148,0.99131 2.32761,1.34305 3.29746,1.34305z"/>
   </g>
  </g>
 </g>
</svg>