<?xml version="1.0" encoding="UTF-8"?>
<svg viewBox="0 0 16 16" version="1.1" xmlns="http://www.w3.org/2000/svg" xmlns:xlink="http://www.w3.org/1999/xlink">
    <!-- Generator: Sketch 55.2 (78181) - https://sketchapp.com -->
    <title>calculator</title>
    <desc>Created with Sketch.</desc>
    <g id="calculator" stroke="none" stroke-width="1" fill="none" fill-rule="evenodd">
        <g id="calculator备份">
            <rect id="矩形" fill="#FFFFFF" x="0" y="0" width="15" height="15"></rect>
            <path d="M7,7 L7,1 L8,1 L8,7 L14,7 L14,8 L8,8 L8,14 L7,14 L7,8 L1,8 L1,7 L7,7 Z M0,0 L15,0 L15,15 L0,15 L0,0 Z M1,1 L1,14 L14,14 L14,1 L1,1 Z" id="形状结合" fill="#367FC9" fill-rule="nonzero"></path>
            <g id="编组-16" transform="translate(2.000000, 2.000000)" fill="#999999">
                <rect id="矩形" x="0" y="1.5" width="4" height="1"></rect>
                <path d="M7,8 L11,8 L11,9 L7,9 L7,8 Z M7,10 L11,10 L11,11 L7,11 L7,10 Z" id="形状结合"></path>
                <path d="M8.5,1.5 L8.5,0 L9.5,0 L9.5,1.5 L11,1.5 L11,2.5 L9.5,2.5 L9.5,4 L8.5,4 L8.5,2.5 L7,2.5 L7,1.5 L8.5,1.5 Z" id="形状结合" fill-rule="nonzero"></path>
                <path d="M1.2,9 L2.79554158e-13,7.8 L0.8,7 L2,8.2 L3.2,7 L4,7.8 L2.8,9 L4,10.2 L3.2,11 L2,9.8 L0.8,11 L-4.04676292e-14,10.2 L1.2,9 Z" id="形状结合" fill-rule="nonzero"></path>
            </g>
        </g>
    </g>
</svg>