<?xml version="1.0" encoding="UTF-8"?>
<svg viewBox="0 0 32 32" version="1.1" xmlns="http://www.w3.org/2000/svg" xmlns:xlink="http://www.w3.org/1999/xlink">
    <!-- Generator: Sketch 52.6 (67491) - http://www.bohemiancoding.com/sketch -->
    <title>cell styles</title>
    <desc>Created with Sketch.</desc>
    <g id="cell-styles" stroke="none" stroke-width="1" fill="none" fill-rule="evenodd">
        <g id="Cell-Styles" transform="translate(1.000000, 1.000000)">
            <g id="Group-6" fill-rule="nonzero">
                <path d="M8.68331277,23 L-3.55271368e-15,23 L-3.55271368e-15,7.10542736e-15 L28,7.10542736e-15 L28,6.59954322 C27.813298,6.69734555 27.6208445,6.80417024 27.4220382,6.91905276 C27.2853456,6.99804217 27.1446374,7.08234858 27,7.17185652 L27,1 L1,1 L1,22 L9.22132465,22 C9.12626872,22.1813878 8.99039877,22.4422483 8.96966636,22.481643 C8.85681105,22.6960851 8.76393726,22.864572 8.68331277,23 Z M22.9315698,22 L27,22 L27,17.5406328 C27.3399301,17.1429608 27.6750299,16.7443842 28,16.3506403 L28,23 L21.9262145,23 C22.0578537,22.8680702 22.1834811,22.7429349 22.3083843,22.6193584 C22.4006338,22.528197 22.4006338,22.528197 22.4930515,22.4373297 C22.634133,22.2987272 22.7805549,22.1526809 22.9315698,22 Z" id="Combined-Shape" fill="#666666"></path>
                <path d="M14.4288403,17.9832816 C13.1288358,18.0703791 11.8735473,18.6643857 10.8558232,19.6472129 C10.2392788,20.2415793 9.81061762,20.8884753 9.29343045,21.8629673 C9.276454,21.8949545 9.25085942,21.9436411 9.22132465,22 L2.66699219,22 L1,22 L1,1 L27,1 L27,7.17185652 C26.0226156,7.77670454 24.8658061,8.61907307 23.5561833,9.66333625 C21.1576455,11.5758753 18.2530436,14.1767213 16.301631,16.0953563 C15.6423036,16.74379 14.9982149,17.3934893 14.4288403,17.9832816 Z M27,17.5406328 L27,22 L22.9315698,22 C24.1240037,20.794411 25.6028044,19.175162 27,17.5406328 Z" id="Combined-Shape" fill="#FFFFFF"></path>
                <path d="M14.4127051,18 L6,18 L6,22 L5,22 L5,18 L1,18 L1,17 L5,17 L5,6 L1,6 L1,5 L5,5 L5,1 L6,1 L6,5 L22,5 L22,1 L23,1 L23,5 L27,5 L27,6 L23,6 L23,10.1116882 C22.6724883,10.3784377 22.338017,10.6554772 22,10.9396007 L22,6 L6,6 L6,17 L15.392361,17 C15.0500261,17.3445974 14.7203242,17.6811707 14.4127051,18 Z M27,17.5406328 L27,18 L26.6048553,18 C26.737086,17.8472315 26.8689022,17.6939994 27,17.5406328 Z M23,21.93068 L23,22 L22.9315698,22 C22.9542769,21.9770424 22.9770878,21.9539348 23,21.93068 Z" id="Combined-Shape" fill="#BBBBBB"></path>
                <path d="M22,6 L6,6 L6,17 L13.9894238,17 C14.4959354,16.4800719 15.045171,15.9284774 15.6005382,15.3822862 C17.3937583,13.6191866 19.8564286,11.4059968 22,9.63834301 L22,6 Z M16.301631,16.0953563 C15.6360677,16.7499228 14.9860328,17.405779 14.4127051,18 L5,18 L5,5 L23,5 L23,10.1116882 C20.7207423,11.9680818 18.104423,14.3228456 16.301631,16.0953563 Z" id="合并形状" fill="#367FC9"></path>
                <path d="M22,10.9396007 C19.9856498,12.6327825 17.8453757,14.5775417 16.301631,16.0953563 C15.9931758,16.3987151 15.6880558,16.7023509 15.392361,17 L6,17 L6,6 L22,6 L22,10.9396007 Z" id="Combined-Shape" fill="#81BEFC"></path>
            </g>
            <g id="Group-2" transform="translate(5.000000, 8.000000)">
                <g id="Group-14" transform="translate(8.000000, 0.000000)">
                    <path d="M16.647936,0.5 C15.4316943,-0.695018318 7.51860803,6.48979463 4.50261123,9.53536082 C3.00521595,11.0478589 1.50458008,12.6586615 1.04628994,13.2636608 C0.846008903,13.5286504 1.11108675,13.6085103 1.227721,13.6702203 C1.82149537,13.9823999 2.23619492,14.2703795 2.77224123,14.8112488 C3.30946566,15.3521181 3.59574973,15.7707776 3.9020619,16.3709369 C3.96450246,16.4895167 4.04461488,16.7557164 4.30498022,16.5548566 C4.90582334,16.0914272 6.3039593,14.5342054 7.80135458,13.0241273 C10.8185295,9.97977113 17.8641778,1.69501832 16.647936,0.5 Z" id="Path" fill="#BBBBBB"></path>
                    <path d="M16.783745,0.214242315 C18.1619812,1.57258173 12.697012,8.71168127 7.64041642,13.8294796 C7.54865888,13.9224229 7.54865888,13.9224229 7.45723242,14.0155001 C7.14513914,14.3336051 6.82974159,14.6605428 6.42671872,15.0822926 C6.48039707,15.02612 5.68910844,15.8556344 5.49222956,16.0605047 C4.79155636,16.7896185 4.38955927,17.1839833 4.10617828,17.403225 C3.66062083,17.7480061 3.24576877,17.5629654 3.03528729,17.1580086 C3.01912138,17.1269061 2.98672154,17.0585597 2.98314544,17.0516594 C2.68432762,16.4643882 2.42176974,16.0964607 1.94651099,15.6165095 C1.47391333,15.1381972 1.11035983,14.8722166 0.524578827,14.5632931 C0.523664918,14.5628081 0.455204949,14.5300223 0.423884211,14.5134925 C0.0219078304,14.3013461 -0.165344009,13.8673976 0.182904224,13.4052214 C0.646199556,12.7917388 2.12197623,11.1973152 3.67145172,9.62741136 C9.29094807,3.93541601 15.4368487,-1.11320956 16.783745,0.214242315 Z M4.80242168,15.3569529 C4.99781692,15.1536264 5.78743927,14.3258588 5.73499107,14.3807441 C6.14074753,13.9561337 6.45889342,13.6263471 6.7745325,13.3046279 C6.86721346,13.2102735 6.86721346,13.2102735 6.96024485,13.1160398 C8.65003084,11.4058014 11.2052868,8.46465178 13.0758926,6.02100747 C15.1792786,3.27327346 16.3417614,1.16255106 16.1127358,0.936831782 C15.8733257,0.700877909 13.8616146,1.89848221 11.2054069,4.08045664 C8.94647798,5.93608157 6.18899617,8.4797739 4.35203676,10.3404325 C3.01734659,11.6927194 1.73020575,13.0724902 1.14796219,13.7710186 C1.72097624,14.0890329 2.13242457,14.4028352 2.62639093,14.902775 C3.12678671,15.4081109 3.43940609,15.8290163 3.75019533,16.4096292 C3.98596763,16.1944138 4.32148857,15.8574072 4.80242168,15.3569529 Z" id="Path" fill="#666666" fill-rule="nonzero"></path>
                </g>
                <g id="Group-7" transform="translate(0.000000, 12.000000)" fill-rule="nonzero">
                    <path d="M7.00433435,1.97570156 C6.03504418,2.83797743 5.59686177,4.22494627 4.87743642,5.06698991 C4.19932258,5.86068096 1.72191196,6.28117641 1.04940873,6.95593273 C0.295964435,7.7119013 8.36905187,10.5043432 10.9838449,7.9363033 C13.5253157,5.4402746 13.5253157,3.59921956 11.7590589,1.97570156 C9.99280215,0.352183568 8.05090596,1.04235133 7.00433435,1.97570156 Z" id="Shape" fill="#FFFFFF"></path>
                    <path d="M5.96917625,3.67027726 C7.84717,4.11610414 8.94870274,4.58474281 9.27377446,5.07619328 C9.6043306,5.57593519 9.96685662,6.59447982 10.3613525,8.13182715 C10.4255582,8.07665778 10.4862344,8.01878677 10.5432416,7.95819458 C12.90547,5.4474135 13.0697638,3.65800803 11.3594741,1.95665108 C9.98841187,0.592749816 8.35215232,0.775254353 7.12264105,1.9619264 L7.12219342,1.9623579 C6.74292014,2.32750442 6.43669004,2.78913615 6.03444527,3.54633785 C6.01942805,3.57460686 5.99630332,3.61855779 5.96917625,3.67027726 Z M12.0637476,1.25001318 C14.1944517,3.3695887 13.9743004,5.76736594 11.2705319,8.64116544 C9.90962849,10.0876515 7.3017418,10.3096464 4.32895234,9.63558745 C3.17193821,9.37324269 2.06068691,8.9856931 1.26595454,8.57790892 C0.212873181,8.03756359 -0.340942147,7.47742037 0.227006312,6.86070607 C0.542236018,6.51840975 1.01429045,6.2753734 1.93111676,5.90783556 C2.04068114,5.86391332 2.16493905,5.81476193 2.39871085,5.72239222 C3.45889779,5.30208646 3.95800977,5.04376427 4.17616973,4.76742256 C4.37738342,4.51254659 4.56196161,4.20393247 4.8320543,3.69119899 C4.86179301,3.63474418 5.08467654,3.20706176 5.15278171,3.07885785 C5.60064796,2.23577644 5.95555594,1.70073797 6.42935872,1.24452197 C8.01758056,-0.28818211 10.2655235,-0.538818976 12.0637476,1.25001318 Z" id="Combined-Shape" fill="#367FC9"></path>
                </g>
            </g>
        </g>
    </g>
</svg>