<?xml version="1.0" encoding="UTF-8"?>
<svg viewBox="0 0 32 32" version="1.1" xmlns="http://www.w3.org/2000/svg" xmlns:xlink="http://www.w3.org/1999/xlink">
    <!-- Generator: Sketch 58 (84663) - https://sketch.com -->
    <title>Cell Dropdowns</title>
    <desc>Created with Sketch.</desc>
    <g id="Cell-Dropdowns" stroke="none" stroke-width="1" fill="none" fill-rule="evenodd">
        <g id="编组-4" transform="translate(0.000000, 2.000000)">
            <g id="编组-5">
                <g id="编组-2">
                    <g id="编组">
                        <rect id="矩形" fill="#FFFFFF" x="0" y="0" width="29" height="24"></rect>
                        <path d="M29,0 L29,15 L28,15 L28,1 L1,1 L1,23 L19,23 L19,24 L0,24 L0,0 L29,0 Z" id="形状结合" fill="#666666" fill-rule="nonzero"></path>
                    </g>
                    <path d="M5,1 L5,4 L24,4 L24,1 L25,1 L25,4 L28,4 L28,5 L25,5 L25,15 L24,15 L24,5 L5,5 L5,19 L19,19 L19,20 L5,20 L5,23 L4,23 L4,20 L1,20 L1,19 L4,19 L4,5 L1,5 L1,4 L4,4 L4,1 L5,1 Z" id="形状结合" fill="#BBBBBB"></path>
                    <g id="编组-3" transform="translate(4.000000, 4.000000)">
                        <path d="M20,1 L20,11 L15,11 L15,15 L1,15 L1,1 L20,1 Z" id="形状结合" fill="#81BEFC"></path>
                        <path d="M21,0 L21,11 L20,11 L20,1 L1,1 L1,15 L15,15 L15,16 L0,16 L0,0 L21,0 Z" id="形状结合" fill="#367FC9"></path>
                    </g>
                </g>
            </g>
 			<g id="分组" transform="translate(18.000000, 14.000000)">
                <path d="M13.5,7.68263095 L11.6739097,8.24611341 L11.1991062,9.38926453 L12.1126522,11.0857817 L11.2361689,12.1560949 L9.68253968,11.1970619 L8.27716135,11.7878586 L7.76629681,13.4833642 C7.76629681,13.4833642 6.45207274,13.5207948 6.34288796,13.4833642 C6.23270149,13.4469452 5.86808445,12.0448147 5.86808445,12.0448147 L4.4036061,11.3447611 L2.79989213,12.0448147 C2.79989213,12.0448147 1.77816305,11.2344925 1.74110032,11.0493628 C1.7050393,10.864233 2.6175836,9.46311412 2.7638311,9.46311412 C2.91007859,9.46311412 2.21590384,8.28354402 2.21590384,8.28354402 L0.5,7.54504816 L0.645245801,6.18034828 L2.25196486,5.7382624 L2.65464632,4.55768067 C2.65464632,4.55768067 1.99653259,2.7134643 1.99653259,2.67603369 C1.99653259,2.63961471 3.05632609,1.86571152 3.05632609,1.86571152 L4.4036061,2.67603369 L5.83102173,2.16009822 L6.26976422,0.5 L7.83942056,0.5 L8.24110032,2.19752884 L9.44613962,2.7134643 L10.8705502,1.86571152 L12.221837,2.82373286 L11.2361689,4.48383108 L11.8572199,5.88596158 L13.5,6.25419787 L13.5,7.68263095 Z M7.04307289,9.66341847 C8.50053937,9.66341847 9.68253968,8.46968544 9.68253968,6.99775192 C9.68253968,5.52581839 8.50053937,4.33208536 7.04307289,4.33208536 C5.58560641,4.33208536 4.4036061,5.52581839 4.4036061,6.99775192 C4.4036061,8.46968544 5.58560641,9.66341847 7.04307289,9.66341847 Z" id="Combined-Shape" fill="#81BEFC"></path>
                <path d="M7.0005,9.0005 C5.89764286,9.0005 5.0005,8.10335714 5.0005,7.0005 C5.0005,5.89764286 5.89764286,5.0005 7.0005,5.0005 C8.10335714,5.0005 9.0005,5.89764286 9.0005,7.0005 C9.0005,8.10335714 8.10335714,9.0005 7.0005,9.0005 Z M7,4.0005 C5.34573055,4.0005 4,5.34587847 4,7.0005 C4,8.65398041 5.34573055,10.0005 7,10.0005 C8.65426945,10.0005 10,8.65398041 10,7.0005 C10,5.34587847 8.65426945,4.0005 7,4.0005 Z M12.9936468,7.40258963 C12.9349048,7.4417701 12.8702887,7.46919643 12.8017564,7.48486862 L11.2137659,7.88157093 L11.065932,8.33116688 C11.0003368,8.53490535 10.9132029,8.74060285 10.8104045,8.94336181 L10.5950174,9.36651094 L11.4340482,10.7672129 C11.487895,10.8524305 11.5123708,10.9288324 11.520203,10.9748694 L10.9562804,11.5380888 C10.9053707,11.5233961 10.8564191,11.5038059 10.8113836,11.477359 L9.4005979,10.5781671 L8.96297043,10.8054139 C8.75541556,10.9121807 8.54002843,11.0032753 8.31876711,11.0747797 L7.85176866,11.2256245 L7.499317,12.8212493 C7.48267345,12.9064669 7.43665893,12.9760122 7.40532989,13.0005 L6.6348314,13.0005 C6.59567011,12.9417293 6.5682572,12.8770815 6.55259268,12.8085157 L6.15902166,11.230522 L5.70181354,11.0855543 C5.46097157,11.0091524 5.22698283,10.9112012 5.00376344,10.7926802 L4.56319887,10.5605359 L3.15339222,11.4597278 C3.10150351,11.4969493 3.0408035,11.517519 2.97814543,11.5204576 L2.41618084,10.9738899 C2.42988729,10.9053241 2.45632116,10.8396968 2.49352439,10.7809261 L3.36975838,9.32047388 L3.16122448,8.90026328 C3.06919544,8.71709456 2.99185188,8.52804877 2.92723574,8.3321464 L2.77940185,7.88157093 L1.20707583,7.48878667 C1.1336484,7.47311448 1.06315807,7.44372912 1.0005,7.40258963 L1.0005,6.60624647 L1.00147903,6.60624647 C1.01714355,6.60624647 1.08665485,6.55629136 1.14539679,6.54551673 L2.76080024,6.18701539 L2.90961316,5.71489066 C2.96933414,5.52192682 3.05157286,5.3221064 3.16122448,5.10171623 L3.36975838,4.68150563 L2.50331472,3.2357461 C2.46121633,3.17207783 2.43184535,3.10253249 2.41715987,3.02808958 L2.98010349,2.46487026 C3.03492931,2.48250147 3.09660835,2.50503024 3.12500029,2.52462048 L4.56221983,3.4414436 L5.00180538,3.20831977 C5.22404573,3.09077834 5.45705544,2.99282716 5.69691837,2.91642523 L6.15216843,2.77145747 L6.54280236,1.20815652 C6.5653201,1.10922582 6.6015443,1.03772145 6.62895721,1.0005 L7.42491054,1.0005 C7.41903635,1.00931561 7.47386216,1.08375851 7.48561055,1.14546776 L7.84491544,2.77145747 L8.31191389,2.9223023 C8.53023811,2.99380667 8.74954136,3.08490127 8.96394946,3.19656563 L9.40157694,3.42479189 L10.7829916,2.54421072 C10.8339013,2.50698927 10.8946013,2.48544 10.9582384,2.48250147 L11.520203,3.03004861 C11.5064966,3.09861444 11.4800627,3.16326222 11.4428595,3.22301245 L10.5950174,4.63448906 L10.8113836,5.0586177 C10.9278884,5.28684397 11.0160013,5.50135707 11.0835546,5.71391115 L11.2313885,6.18701539 L12.8144838,6.53866015 C12.910429,6.55629136 12.9848355,6.61212354 13.0005,6.64248841 L12.9936468,7.40258963 Z M13.1315,5.6745 L12.0085,5.4255 C11.9215,5.1455 11.8065,4.8775 11.6755,4.6205 L12.2825,3.6085 C12.5095,3.2455 12.6245,2.7125 12.2825,2.3705 L11.6635,1.7515 C11.3225,1.4105 10.7455,1.4715 10.3965,1.7135 L9.4125,2.3405 C9.1555,2.2075 8.8885,2.0945 8.6125,2.0045 L8.3605,0.8685 C8.2855,0.4515 7.9205,0.0005 7.4375,0.0005 L6.5625,0.0005 C6.0795,0.0005 5.7835,0.4585 5.6875,0.8755 L5.4065,1.9985 C5.1125,2.0925 4.8275,2.2115 4.5545,2.3565 L3.5445,1.7135 C3.1975,1.4715 2.6205,1.4105 2.2785,1.7515 L1.6595,2.3705 C1.3185,2.7125 1.4325,3.2455 1.6595,3.6075 L2.2985,4.6735 C2.1765,4.9155 2.0735,5.1675 1.9905,5.4255 L0.8685,5.6745 C0.4515,5.7495 0.0005,6.1145 0.0005,6.5975 L0.0005,7.4725 C0.0005,7.9565 0.4585,8.2525 0.8755,8.3475 L2.0115,8.6315 C2.0895,8.8725 2.1885,9.1045 2.2995,9.3285 L1.6595,10.3955 C1.4335,10.7575 1.3185,11.2905 1.6595,11.6325 L2.2785,12.2515 C2.6205,12.5935 3.1965,12.5305 3.5445,12.2905 L4.5565,11.6455 C4.8315,11.7905 5.1185,11.9115 5.4145,12.0055 L5.6945,13.1245 C5.7905,13.5415 6.0855,13.9995 6.5695,13.9995 L7.4435,13.9995 C7.9275,13.9995 8.2915,13.5485 8.3665,13.1315 L8.6195,11.9915 C8.8945,11.9025 9.1575,11.7905 9.4105,11.6595 L10.3965,12.2895 C10.7455,12.5305 11.3215,12.5925 11.6635,12.2505 L12.2825,11.6315 C12.6245,11.2895 12.5095,10.7565 12.2825,10.3945 L11.6755,9.3805 C11.7975,9.1405 11.9025,8.8905 11.9875,8.6305 L13.1255,8.3475 C13.5415,8.2505 14.0005,7.9555 14.0005,7.4715 L14.0005,6.5965 C14.0005,6.1135 13.5495,5.7485 13.1315,5.6735 L13.1315,5.6745 Z" id="Fill-3" fill="#367FC9"></path>
            </g>
        </g>
    </g>
</svg>