<svg viewBox="0,0,64,64" xmlns="http://www.w3.org/2000/svg" version="1.1">
 <!-- Generator: Sketch 55.2 (78181) - https://sketchapp.com -->

 <title>checkbox list</title>
 <desc>Created with Sketch.</desc>
 <g>
  <title>Layer 1</title>
  <g stroke="null" fill-rule="evenodd" fill="none" id="checkbox-list">
   <g stroke="null" id="checkbox-list备份">
    <path stroke="null" fill-rule="nonzero" fill="#367FC9" id="矩形" d="m-0.02792,4.06281l20.01745,0l0,20.01745l-20.01745,0l0,-20.01745zm4.00349,4.00349l0,12.01047l12.01047,0l0,-12.01047l-12.01047,0z"/>
    <rect stroke="null" height="4.00349" width="40.0349" y="12.06979" x="23.99302" fill="#999999" id="矩形备份-12"/>
    <rect stroke="null" height="4.00349" width="40.0349" y="48.1012" x="23.99302" fill="#999999" id="矩形备份-15"/>
    <path stroke="null" fill-rule="nonzero" fill="#367FC9" id="矩形备份-14" d="m-0.02792,40.09422l20.01745,0l0,20.01745l-20.01745,0l0,-20.01745zm4.00349,4.00349l0,12.01047l12.01047,0l0,-12.01047l-12.01047,0z"/>
    <polygon stroke="null" points="10.281510209317908,15.30648364445824 6.381206558562675,11.439403094601062 3.975571745436988,13.824545936210939 10.281510209317908,20.07677124098268 19.989531131940176,10.45144430355208 17.58389679714066,8.06630050528986 " fill-rule="nonzero" fill="#70B7FF" id="路径-2"/>
   </g>
  </g>
 </g>
</svg>