<svg viewBox="0,0,64,64" xmlns="http://www.w3.org/2000/svg" version="1.1">
 <!-- Generator: Sketch 55.2 (78181) - https://sketchapp.com -->
 <title>Clear</title>
 <desc>Created with Sketch.</desc>
 <defs>
  <linearGradient id="linearGradient-1" y2="100%" x2="100%" y1="0%" x1="0%">
   <stop offset="0%" stop-color="#97A6BD"/>
   <stop offset="100%" stop-color="#5B7083"/>
  </linearGradient>
  <linearGradient id="linearGradient-2" y2="99.8389992%" x2="99.8389992%" y1="0%" x1="0%">
   <stop offset="0%" stop-color="#F27456"/>
   <stop offset="62.9986028%" stop-color="#D64E36"/>
   <stop offset="100%" stop-color="#B11D0D"/>
  </linearGradient>
 </defs>
 <g>
  <title>Layer 1</title>
  <g stroke="null" fill-rule="evenodd" fill="none" id="Clear">
   <g stroke="null" id="编组-2">
    <path stroke="null" fill="#FFFFFF" id="形状结合" d="m55.99637,41.32568c-0.66752,0.28734 -1.34387,0.59164 -2.00779,0.90302c-1.84268,-1.62097 -4.07094,-3.25671 -6.68801,-4.92004c-3.59765,-1.86596 -7.10042,-1.86596 -9.28636,0.89034c-0.93186,1.18604 -1.67661,2.87181 -1.82588,4.55674c-0.25702,2.90093 1.25668,5.51664 4.30152,6.60449c0.79659,0.28458 1.53522,0.60264 2.25877,0.9781c-1.11101,1.05113 -2.34761,2.24469 -3.71316,3.58349c-0.671,0.65784 -1.22472,1.35547 -1.66677,2.07455l-37.3687,0l0,-55.99637l55.99637,0l0,41.32568z"/>
    <path stroke="null" fill="#AEBAD2" id="形状结合" d="m15.99896,15.99896l0,-11.99922l3.99974,0l0,11.99922l35.99767,0l0,3.99974l-35.99767,0l0,35.99767l-3.99974,0l0,-35.99767l-11.99922,0l0,-3.99974l11.99922,0z"/>
    <g stroke="null" id="编组-3">
     <path stroke="null" fill="url(#linearGradient-1)" id="形状结合" d="m3.99974,3.99974l0,51.99663l-3.99974,0l0,-55.99637l3.99974,0l51.99663,0l0,3.99974l-51.99663,0z"/>
     <path stroke="null" fill="#88BAEF" id="形状结合" d="m55.99637,41.32568c-0.66752,0.28734 -1.34387,0.59164 -2.00779,0.90302c-1.84268,-1.62097 -4.07094,-3.25671 -6.68801,-4.92004c-3.59765,-1.86596 -7.10042,-1.86596 -9.28636,0.89034c-0.93186,1.18604 -1.67661,2.87181 -1.82588,4.55674c-0.25702,2.90093 1.25668,5.51664 4.30152,6.60449c0.79659,0.28458 1.53522,0.60264 2.25877,0.9781c-1.11101,1.05113 -2.34761,2.24469 -3.71316,3.58349c-0.671,0.65784 -1.22472,1.35547 -1.66677,2.07455l-17.36999,0l0,-35.99767l35.99767,0l0,21.32698z"/>
     <path stroke="null" fill="#3F69BC" id="形状结合" d="m19.9987,19.9987l0,35.99767l-3.99974,0l0,-35.99767l0,-3.99974l39.99741,0l0,3.99974l-35.99767,0z"/>
     <path stroke="null" fill="#A9CAF2" id="形状结合" d="m23.99844,23.99844l0,31.99792l-3.99974,0l0,-31.99792l0,-3.99974l35.99767,0l0,3.99974l-31.99792,0z"/>
    </g>
    <path stroke="null" fill="url(#linearGradient-2)" id="Fill-9" d="m63.94649,43.71353c-0.73583,1.89168 -4.70861,3.71268 -8.3547,6.42138c1.81476,2.88825 3.82195,6.7626 7.1581,13.86094c-4.18317,-4.8944 -7.25513,-7.85545 -10.35701,-11.1184c-3.30063,3.01836 -4.86712,4.61914 -6.01785,6.7584c-1.30944,2.43432 -2.06223,5.16934 -4.53947,3.98282c-1.65149,-0.79363 -3.13976,-3.76256 0,-6.84076c3.13976,-3.0782 5.5886,-5.37841 7.34896,-6.89799c-2.39916,-1.94631 -4.5523,-3.28707 -7.34896,-4.28628c-2.79666,-0.99918 -1.40915,-3.99078 -0.68752,-4.90928c0.72639,-0.91594 2.2231,-0.91594 4.0071,0c3.49229,2.2195 6.1872,4.34536 8.09188,6.37755c4.10273,-2.1701 11.41874,-5.20102 10.69947,-3.34838z"/>
   </g>
  </g>
 </g>
</svg>