<svg viewBox="0,0,64,64" xmlns="http://www.w3.org/2000/svg" version="1.1">
 <!-- Generator: Sketch 55.2 (78181) - https://sketchapp.com -->

 <title>radio list</title>
 <desc>Created with Sketch.</desc>
 <g>
  <title>Layer 1</title>
  <g stroke="null" fill-rule="evenodd" fill="none" id="radio-list">
   <g stroke="null" id="radio-list备份">
    <g stroke="null" fill="#999999" id="编组-6备份">
     <rect stroke="null" height="4.00649" width="40.06487" y="11.96757" x="23.98703" id="矩形备份-12"/>
     <rect stroke="null" height="4.00649" width="40.06487" y="48.02595" x="23.98703" id="矩形备份-15"/>
    </g>
    <g stroke="null" fill="#367FC9" id="编组-7">
     <path stroke="null" fill-rule="nonzero" id="椭圆形" d="m9.96432,23.98703c5.5318,0 10.01622,-4.48442 10.01622,-10.01622c0,-5.5318 -4.48442,-10.01622 -10.01622,-10.01622c-5.5318,0 -10.01622,4.48442 -10.01622,10.01622c0,5.5318 4.48442,10.01622 10.01622,10.01622zm0,-4.00649c-3.31909,0 -6.00973,-2.69064 -6.00973,-6.00973c0,-3.31909 2.69064,-6.00973 6.00973,-6.00973c3.31909,0 6.00973,2.69064 6.00973,6.00973c0,3.31909 -2.69064,6.00973 -6.00973,6.00973z"/>
     <circle stroke="null" r="4.00649" cy="13.97081" cx="9.96432" id="椭圆形"/>
    </g>
    <g stroke="null" fill-rule="nonzero" fill="#367FC9" id="编组-7备份">
     <path stroke="null" id="椭圆形" d="m9.96432,60.04541c5.5318,0 10.01622,-4.48442 10.01622,-10.01622c0,-5.5318 -4.48442,-10.01622 -10.01622,-10.01622c-5.5318,0 -10.01622,4.48442 -10.01622,10.01622c0,5.5318 4.48442,10.01622 10.01622,10.01622zm0,-4.00649c-3.31909,0 -6.00973,-2.69064 -6.00973,-6.00973c0,-3.31909 2.69064,-6.00973 6.00973,-6.00973c3.31909,0 6.00973,2.69064 6.00973,6.00973c0,3.31909 -2.69064,6.00973 -6.00973,6.00973z"/>
    </g>
   </g>
  </g>
 </g>
</svg>