<?xml version="1.0" encoding="UTF-8"?>
<svg viewBox="0 0 16 16" version="1.1" xmlns="http://www.w3.org/2000/svg" xmlns:xlink="http://www.w3.org/1999/xlink">
    <!-- Generator: Sketch 55.2 (78181) - https://sketchapp.com -->
    <title>slider</title>
    <desc>Created with Sketch.</desc>
    <g id="slider" stroke="none" stroke-width="1" fill="none" fill-rule="evenodd">
        <g transform="translate(0.000000, 6.000000)">
            <rect id="矩形" fill="#367FC9" x="2" y="1.5" width="13" height="1"></rect>
            <g id="编组-12" transform="translate(0.000000, 0.500000)">
                <circle id="椭圆形" fill="#FFFFFF" cx="1.5" cy="1.5" r="1.5"></circle>
                <path d="M1.5,3 C2.32842712,3 3,2.32842712 3,1.5 C3,0.671572875 2.32842712,0 1.5,0 C0.671572875,0 0,0.671572875 0,1.5 C0,2.32842712 0.671572875,3 1.5,3 Z M1.5,2 C1.22385763,2 1,1.77614237 1,1.5 C1,1.22385763 1.22385763,1 1.5,1 C1.77614237,1 2,1.22385763 2,1.5 C2,1.77614237 1.77614237,2 1.5,2 Z" id="椭圆形" fill="#999999" fill-rule="nonzero"></path>
            </g>
            <g id="编组-9" transform="translate(13.000000, 0.500000)">
                <circle id="椭圆形备份-2" fill="#FFFFFF" cx="1.5" cy="1.5" r="1.5"></circle>
                <path d="M1.5,3 C2.32842712,3 3,2.32842712 3,1.5 C3,0.671572875 2.32842712,0 1.5,0 C0.671572875,0 0,0.671572875 0,1.5 C0,2.32842712 0.671572875,3 1.5,3 Z M1.5,2 C1.22385763,2 1,1.77614237 1,1.5 C1,1.22385763 1.22385763,1 1.5,1 C1.77614237,1 2,1.22385763 2,1.5 C2,1.77614237 1.77614237,2 1.5,2 Z" id="椭圆形备份-2" fill="#999999" fill-rule="nonzero"></path>
            </g>
            <g id="编组-13" transform="translate(6.000000, 0.000000)">
                <circle id="椭圆形备份" fill="#FFFFFF" cx="2" cy="2" r="2"></circle>
                <path d="M2,4 C3.1045695,4 4,3.1045695 4,2 C4,0.8954305 3.1045695,0 2,0 C0.8954305,0 0,0.8954305 0,2 C0,3.1045695 0.8954305,4 2,4 Z M2,3 C1.44771525,3 1,2.55228475 1,2 C1,1.44771525 1.44771525,1 2,1 C2.55228475,1 3,1.44771525 3,2 C3,2.55228475 2.55228475,3 2,3 Z" id="椭圆形备份" fill="#367FC9" fill-rule="nonzero"></path>
            </g>
        </g>
    </g>
</svg>