<?xml version="1.0" encoding="UTF-8"?>
<svg viewBox="0 0 16 16" version="1.1" xmlns="http://www.w3.org/2000/svg" xmlns:xlink="http://www.w3.org/1999/xlink">
    <!-- Generator: Sketch 52.6 (67491) - http://www.bohemiancoding.com/sketch -->
    <title>block arrows-curved left arrow</title>
    <desc>Created with Sketch.</desc>
    <g id="block-arrows-curved-left-arrow" stroke="none" stroke-width="1" fill="none" fill-rule="evenodd">
        <g id="4.15" transform="translate(3.000000, 0.000000)" fill="#767676" fill-rule="nonzero">
            <path d="M-3,12.0035076 L-3,8.45107061 C-2.50520833,5.58988533 -0.591145833,3.78455381 2.7421875,3.03507605 C3.09319243,2.95615493 4.63353114,3.03507605 5,3.03507605 C7.29475911,3.03507605 9.29475911,4.56136051 11,7.61392941 L11,9.01403042 L13,9.01403042 L13,10.0105228 L10,13 L8,13 L5,10.0105228 L5,9.01403042 L7,9.01403042 L7,8 C5.87923177,6.02762765 4.76350911,5.04144148 3.65283203,5.04144148 C2.54215495,5.04144148 1.65820312,6.17798452 1.00097656,8.45107061 L1.00097656,12.0035076 L-3,12.0035076 Z M-2,11.0070152 L0.0009765625,11.0070152 L0.0009765625,8.45107061 C0.667643229,5.58988533 1.88492839,4.15929269 3.65283203,4.15929269 C5.42073568,4.15929269 6.86979167,5.31083827 8,7.61392941 L8,10.4300986 L7,10.4300986 L9.00341797,12.0035076 L11,10.4300986 L10,10.4300986 L10,8.45107061 C9.14176432,5.58988533 7.02604167,4.15929269 3.65283203,4.15929269 C0.279622396,4.15929269 -1.60465495,5.7775386 -2,9.01403042 L-2,11.0070152 Z" id="5.14" transform="translate(5.000000, 8.000000) scale(-1, -1) rotate(-90.000000) translate(-5.000000, -8.000000) "></path>
        </g>
    </g>
</svg>