<?xml version="1.0" encoding="UTF-8"?>
<svg viewBox="0 0 16 16" version="1.1" xmlns="http://www.w3.org/2000/svg" xmlns:xlink="http://www.w3.org/1999/xlink">
    <!-- Generator: Sketch 52.6 (67491) - http://www.bohemiancoding.com/sketch -->
    <title>block arrows-left arrow callout</title>
    <desc>Created with Sketch.</desc>
    <g id="block-arrows-left-arrow-callout" stroke="none" stroke-width="1" fill="none" fill-rule="evenodd">
        <g id="4.24" transform="translate(0.000000, 1.000000)" fill="#767676" fill-rule="nonzero">
            <path d="M1.5,6.5 L1.5,14.5 L14.5,14.5 L14.5,6.5 L9.5,6.5 L9.5,2.5 L11.5,2.5 L8,0.5 L4.5,2.5 L6.5,2.5 L6.5,6.5 L1.5,6.5 Z M0.5,5.5 L5.5,5.5 L5.5,3.5 L2.5,3.5 L2.5,2.5 L7.5,-0.5 L8.5,-0.5 L13.5,2.5 L13.5,3.5 L10.5,3.5 L10.5,5.5 L15.5,5.5 L15.5,15.5 L0.5,15.5 L0.5,5.5 Z" id="5.23" transform="translate(8.000000, 7.500000) rotate(-90.000000) translate(-8.000000, -7.500000) "></path>
        </g>
    </g>
</svg>