<?xml version="1.0" encoding="UTF-8"?>
<svg viewBox="0 0 16 16" version="1.1" xmlns="http://www.w3.org/2000/svg" xmlns:xlink="http://www.w3.org/1999/xlink">
    <!-- Generator: Sketch 52.6 (67491) - http://www.bohemiancoding.com/sketch -->
    <title>block arrows-quad arrow</title>
    <desc>Created with Sketch.</desc>
    <g id="block-arrows-quad-arrow" stroke="none" stroke-width="1" fill="none" fill-rule="evenodd">
        <g id="4.8" transform="translate(7.500000, 8.500000) rotate(-270.000000) translate(-7.500000, -8.500000) translate(0.000000, 1.000000)" fill="#767676" fill-rule="nonzero">
            <path d="M12.4,7 L8,7 L8,2.6 L8.63306775,2.6 L7.5,1.43455888 L6.36693225,2.6 L7,2.6 L7,7 L2.6,7 L2.6,6.36693225 L1.43455888,7.5 L2.6,8.63306775 L2.6,8 L7,8 L7,12.4 L6.36693225,12.4 L7.5,13.5654411 L8.63306775,12.4 L8,12.4 L8,8 L12.4,8 L12.4,8.63306775 L13.5654411,7.5 L12.4,6.36693225 L12.4,7 Z M11.4,4 L15,7.5 L11.4,11 L11.4,9 L9,9 L9,11.4 L11,11.4 L7.5,15 L3.94015681,11.4 L6,11.4 L6,9 L3.6,9 L3.6,11 L0,7.5 L3.6,4 L3.6,6 L6,6 L6,3.6 L4,3.6 L7.5,-1.09690035e-13 L11,3.6 L9,3.6 L9,6 L11.4,6 L11.4,4 Z" id="Combined-Shape"></path>
        </g>
    </g>
</svg>