<?xml version="1.0" encoding="UTF-8"?>
<svg width="18px" height="18px" viewBox="0 0 18 18" version="1.1" xmlns="http://www.w3.org/2000/svg" xmlns:xlink="http://www.w3.org/1999/xlink">
    <title>Label Form Control</title>
    <g id="Label-Form-Control" stroke="none" stroke-width="1" fill="none" fill-rule="evenodd">
        <path d="M9.91516987,14 L8.40442768,14 L7.70073155,11.1015625 L3.29155186,11.1015625 L1.89661518,14 L0.385872996,14 L5.79411316,3.41113281 L7.25700378,3.41113281 L9.91516987,14 Z M7.43224977,9.90527344 L6.40431492,5.50292969 C6.37253038,5.36165365 6.34979984,5.1155599 6.33612331,4.76464844 L6.30194362,4.76464844 C6.21038772,5.08365885 6.12146461,5.3297526 6.0351743,5.50292969 L3.87756227,9.90527344 L7.43224977,9.90527344 Z M12.3666923,6.96582031 C13.1796004,6.49641927 14.0782419,6.26171875 15.0626169,6.26171875 C16.8855336,6.26171875 17.6727148,7.21875 17.4241607,9.1328125 L16.792123,14 L15.4659511,14 L15.6177467,12.8310547 L15.583567,12.8310547 C14.9428947,13.7288411 14.1121419,14.1777344 13.0913086,14.1777344 C12.3575846,14.1777344 11.7999944,13.9794922 11.4185379,13.5830078 C11.0370814,13.1865234 10.8901461,12.6510417 10.9777318,11.9765625 C11.1611884,10.5638021 12.1042706,9.74121094 13.8069782,9.50878906 L16.0899996,9.19433594 C16.2503762,7.9593099 15.8201478,7.34179688 14.7993145,7.34179688 C13.8924134,7.34179688 13.0256147,7.64713542 12.1989182,8.2578125 L12.3666923,6.96582031 Z M14.1570439,10.4453125 C13.5265999,10.5273437 13.0792327,10.6822917 12.8149424,10.9101563 C12.5506521,11.1380208 12.3918762,11.4570313 12.3386146,11.8671875 C12.2918627,12.2272135 12.3812961,12.5211589 12.6069146,12.7490234 C12.8325332,12.976888 13.1549779,13.0908203 13.5742487,13.0908203 C14.157582,13.0908203 14.6650071,12.8857422 15.0965239,12.4755859 C15.5280407,12.0654297 15.7840412,11.5504557 15.8645254,10.9306641 L15.9586209,10.2060547 L14.1570439,10.4453125 Z" id="形状结合" fill="#666666" fill-rule="nonzero"></path>
    </g>
</svg>