<svg width="32" height="32" viewBox="0 0 32 32" fill="none" xmlns="http://www.w3.org/2000/svg">
<rect width="32" height="32" fill="rgb(0,0,0,0)"/>
<path d="M19 24H1V0H12.8125L19 6.6V24Z" fill="white"/>
<path fill-rule="evenodd" clip-rule="evenodd" d="M12.3125 1V7.1H18V13H19V6.6L12.8125 0H1V24H7V23H2V1H12.3125ZM13.3125 1.99545L17.1605 6.1H13.3125V1.99545Z" fill="#666666"/>
<path d="M8 14L8 32L32 32L32 20.1875L25.4 14L8 14Z" fill="white"/>
<path d="M8 14L8 32L32 32L32 20.1875L25.4 14L8 14Z" fill="white"/>
<path fill-rule="evenodd" clip-rule="evenodd" d="M24.9 20.6875L31 20.6875L31 31L9 31L9 15L24.9 15L24.9 20.6875ZM25.4 14L8 14L8 32L32 32L32 20.1875L25.4 14ZM25.9 15.8395L30.0046 19.6875L25.9 19.6875L25.9 15.8395Z" fill="#666666"/>
</svg>
