<?xml version="1.0" encoding="UTF-8"?>
<svg viewBox="0 0 16 16" version="1.1" xmlns="http://www.w3.org/2000/svg" xmlns:xlink="http://www.w3.org/1999/xlink">
    <!-- Generator: Sketch 52.6 (67491) - http://www.bohemiancoding.com/sketch -->
    <title>flowchart-terminator</title>
    <desc>Created with Sketch.</desc>
    <g id="flowchart-terminator" stroke="none" stroke-width="1" fill="none" fill-rule="evenodd">
        <g id="6.9" transform="translate(0.000000, 5.000000)" fill="#767676" fill-rule="nonzero">
            <path d="M3.5,1 C2.11928813,1 1,2.11928813 1,3.5 C1,4.88071187 2.11928813,6 3.5,6 L12.5,6 C13.8807119,6 15,4.88071187 15,3.5 C15,2.11928813 13.8807119,1 12.5,1 L3.5,1 Z M3.5,0 L12.5,0 C14.4329966,-3.55085719e-16 16,1.56700338 16,3.5 C16,5.43299662 14.4329966,7 12.5,7 L3.5,7 C1.56700338,7 2.36723813e-16,5.43299662 0,3.5 C-2.36723813e-16,1.56700338 1.56700338,3.55085719e-16 3.5,0 Z" id="Rectangle-93"></path>
        </g>
    </g>
</svg>