<?xml version="1.0" encoding="UTF-8"?>
<svg viewBox="0 0 16 16" version="1.1" xmlns="http://www.w3.org/2000/svg" xmlns:xlink="http://www.w3.org/1999/xlink">
    <!-- Generator: Sketch 52.6 (67491) - http://www.bohemiancoding.com/sketch -->
    <title>flowchart-summing junction</title>
    <desc>Created with Sketch.</desc>
    <g id="flowchart-summing-junction" stroke="none" stroke-width="1" fill="none" fill-rule="evenodd">
        <g id="6.15" fill="#767676" fill-rule="nonzero">
            <path d="M11.7291059,12.4362127 L7.5,8.20710678 L3.27089413,12.4362127 C4.40766152,13.4110487 5.88505229,14 7.5,14 C9.11494771,14 10.5923385,13.4110487 11.7291059,12.4362127 Z M12.4362127,11.7291059 C13.4110487,10.5923385 14,9.11494771 14,7.5 C14,5.88505229 13.4110487,4.40766152 12.4362127,3.27089413 L8.20710678,7.5 L12.4362127,11.7291059 Z M11.7291059,2.56378735 C10.5923385,1.58895126 9.11494771,1 7.5,1 C5.88505229,1 4.40766152,1.58895126 3.27089413,2.56378735 L7.5,6.79289322 L11.7291059,2.56378735 Z M2.56378735,3.27089413 C1.58895126,4.40766152 1,5.88505229 1,7.5 C1,9.11494771 1.58895126,10.5923385 2.56378735,11.7291059 L6.79289322,7.5 L2.56378735,3.27089413 Z M7.5,15 C3.35786438,15 0,11.6421356 0,7.5 C0,3.35786438 3.35786438,0 7.5,0 C11.6421356,0 15,3.35786438 15,7.5 C15,11.6421356 11.6421356,15 7.5,15 Z" id="合并形状"></path>
        </g>
    </g>
</svg>