<?xml version="1.0" encoding="UTF-8"?>
<svg viewBox="0 0 16 16" version="1.1" xmlns="http://www.w3.org/2000/svg" xmlns:xlink="http://www.w3.org/1999/xlink">
    <!-- Generator: Sketch 52.6 (67491) - http://www.bohemiancoding.com/sketch -->
    <title>flowchart-or</title>
    <desc>Created with Sketch.</desc>
    <g id="flowchart-or" stroke="none" stroke-width="1" fill="none" fill-rule="evenodd">
        <g id="6.16" fill="#767676" fill-rule="nonzero">
            <path d="M8,13.9810552 C11.191203,13.7382961 13.7382961,11.191203 13.9810552,8 L8,8 L8,13.9810552 Z M13.9810552,7 C13.7382961,3.80879696 11.191203,1.2617039 8,1.01894482 L8,7 L13.9810552,7 Z M7,1.01894482 C3.80879696,1.2617039 1.2617039,3.80879696 1.01894482,7 L7,7 L7,1.01894482 Z M1.01894482,8 C1.2617039,11.191203 3.80879696,13.7382961 7,13.9810552 L7,8 L1.01894482,8 Z M7.5,15 C3.35786438,15 0,11.6421356 0,7.5 C0,3.35786438 3.35786438,0 7.5,0 C11.6421356,0 15,3.35786438 15,7.5 C15,11.6421356 11.6421356,15 7.5,15 Z" id="合并形状"></path>
        </g>
    </g>
</svg>