<svg width="32" height="32" viewBox="0 0 32 32" fill="none" xmlns="http://www.w3.org/2000/svg">
<rect width="32" height="32" fill="transparent"/>
<path fill-rule="evenodd" clip-rule="evenodd" d="M29.0087 24.6015L31.3565 23.877V22.0405L29.2444 21.567L28.4459 19.7643L29.7131 17.6299L27.9758 16.3981L26.1444 17.4881L24.5951 16.8247L24.0786 14.6422H22.0605L21.4964 16.7766L19.6611 17.44L17.9289 16.3981C17.9289 16.3981 16.5663 17.3931 16.5663 17.44C16.5663 17.4881 17.4125 19.8592 17.4125 19.8592L16.8947 21.3771L14.829 21.9455L14.6422 23.7001L16.8484 24.6496C16.8484 24.6496 17.7409 26.1662 17.5529 26.1662C17.3648 26.1662 16.1916 27.9677 16.2379 28.2057C16.2856 28.4437 17.5992 29.4855 17.5992 29.4855L19.6611 28.5855L21.544 29.4855C21.544 29.4855 22.0128 31.2883 22.1545 31.3351C22.2949 31.3832 23.9846 31.3351 23.9846 31.3351L24.6414 29.1552L26.4483 28.3956L28.4459 29.6286L29.5728 28.2525L28.3982 26.0713L29.0087 24.6015ZM26.4483 22.9965C26.4483 24.8889 24.9286 26.4237 23.0547 26.4237C21.1809 26.4237 19.6611 24.8889 19.6611 22.9965C19.6611 21.104 21.1809 19.5692 23.0547 19.5692C24.9286 19.5692 26.4483 21.104 26.4483 22.9965Z" fill="#81BEFC"/>
<path fill-rule="evenodd" clip-rule="evenodd" d="M29.4389 20.975L30.8827 21.2951V21.2939C31.4201 21.3903 32 21.8596 32 22.4806V23.6056C32 24.2279 31.4099 24.6071 30.875 24.7319L29.4119 25.0957C29.3026 25.43 29.1676 25.7514 29.0107 26.06L29.7911 27.3637C30.083 27.8291 30.2309 28.5144 29.7911 28.9541L28.9953 29.75C28.5556 30.1897 27.815 30.11 27.3663 29.8001L26.0986 28.9901C25.7733 29.1586 25.4351 29.3026 25.0816 29.417L24.7563 30.8827C24.6599 31.4189 24.1919 31.9987 23.5696 31.9987H22.4459C21.8236 31.9987 21.4443 31.4099 21.3209 30.8737L20.9609 29.435C20.5803 29.3141 20.2113 29.1586 19.8577 28.9721L18.5566 29.8014C18.1091 30.11 17.3686 30.191 16.9289 29.7513L16.133 28.9554C15.6946 28.5157 15.8424 27.8304 16.133 27.365L16.9559 25.9931C16.8131 25.7051 16.6859 25.4069 16.5856 25.097L15.125 24.7319C14.5889 24.6097 14 24.2291 14 23.6069V22.4819C14 21.8609 14.5799 21.3916 15.116 21.2951L16.5586 20.975C16.6653 20.6433 16.7977 20.3193 16.9546 20.0081L16.133 18.6376C15.8411 18.1721 15.6946 17.4869 16.133 17.0471L16.9289 16.2513C17.3686 15.8129 18.1104 15.8913 18.5566 16.2024L19.8551 17.0291C20.2061 16.8427 20.5726 16.6897 20.9506 16.5689L21.3119 15.125C21.4353 14.5889 21.8159 14 22.4369 14H23.5619C24.1829 14 24.6521 14.5799 24.7486 15.116L25.0726 16.5766C25.4274 16.6923 25.7707 16.8376 26.1011 17.0086L27.3663 16.2024C27.815 15.8913 28.5569 15.8129 28.9953 16.2513L29.7911 17.0471C30.2309 17.4869 30.083 18.1721 29.7911 18.6389L29.0107 19.94C29.1791 20.2704 29.327 20.615 29.4389 20.975ZM30.7055 23.517C30.6299 23.5673 30.5469 23.6026 30.4588 23.6228L28.4171 24.1328L28.227 24.7109C28.1426 24.9728 28.0306 25.2373 27.8984 25.498L27.6215 26.042L28.7003 27.8429C28.7695 27.9525 28.801 28.0507 28.811 28.1099L28.086 28.834C28.0205 28.8152 27.9576 28.79 27.8997 28.756L26.0858 27.5999L25.5232 27.892C25.2563 28.0293 24.9794 28.1464 24.6949 28.2384L24.0945 28.4323L23.6413 30.4838C23.6199 30.5934 23.5608 30.6828 23.5205 30.7143H22.5299C22.4795 30.6387 22.4443 30.5556 22.4241 30.4674L21.9181 28.4386L21.3303 28.2522C21.0206 28.154 20.7198 28.028 20.4328 27.8757L19.8663 27.5772L18.0537 28.7333C17.987 28.7811 17.909 28.8076 17.8284 28.8114L17.1059 28.1086C17.1235 28.0205 17.1575 27.9361 17.2053 27.8605L18.3319 25.9828L18.0638 25.4426C17.9455 25.207 17.846 24.964 17.7629 24.7121L17.5729 24.1328L15.5513 23.6278C15.4569 23.6076 15.3663 23.5699 15.2857 23.517V22.4931H15.287C15.2948 22.4931 15.3132 22.4834 15.3371 22.4706C15.3746 22.4507 15.4259 22.4235 15.472 22.415L17.549 21.9541L17.7403 21.3471C17.8171 21.099 17.9228 20.8421 18.0638 20.5587L18.3319 20.0184L17.2179 18.1596C17.1638 18.0777 17.126 17.9883 17.1071 17.8926L17.8309 17.1685C17.9014 17.1911 17.9807 17.2201 18.0172 17.2453L19.8651 18.4241L20.4303 18.1243C20.716 17.9732 21.0156 17.8473 21.324 17.749L21.9093 17.5627L22.4115 15.5527C22.4405 15.4255 22.4871 15.3336 22.5223 15.2857H23.5457C23.5425 15.2904 23.5528 15.3095 23.5669 15.336C23.587 15.3734 23.6149 15.4256 23.6237 15.4721L24.0857 17.5627L24.6861 17.7566C24.9668 17.8485 25.2488 17.9657 25.5244 18.1092L26.0871 18.4027L27.8632 17.2705C27.9287 17.2226 28.0067 17.1949 28.0885 17.1911L28.811 17.8951C28.7934 17.9833 28.7594 18.0664 28.7116 18.1432L27.6215 19.958L27.8997 20.5033C28.0495 20.7967 28.1628 21.0725 28.2496 21.3458L28.4397 21.9541L30.4751 22.4062C30.5985 22.4289 30.6941 22.5007 30.7143 22.5397L30.7055 23.517ZM19.1422 23C19.1422 20.8726 20.8724 19.1429 22.9994 19.1429C25.1263 19.1429 26.8565 20.8726 26.8565 23C26.8565 25.1259 25.1263 26.8571 22.9994 26.8571C20.8724 26.8571 19.1422 25.1259 19.1422 23ZM20.4286 23C20.4286 24.418 21.582 25.5714 23 25.5714C24.418 25.5714 25.5714 24.418 25.5714 23C25.5714 21.582 24.418 20.4286 23 20.4286C21.582 20.4286 20.4286 21.582 20.4286 23Z" fill="#367FC9"/>
<path fill-rule="evenodd" clip-rule="evenodd" d="M21 3.28571C21 5.10056 16.3002 6.57143 10.5 6.57143C4.69976 6.57143 0 5.10056 0 3.28571C0 1.47087 4.69976 0 10.5 0C16.3002 0 21 1.47087 21 3.28571ZM0 13.1429C0 14.9577 4.69976 16.4286 10.5 16.4286C12.4262 16.4286 14.2311 16.2664 15.7827 15.9832L15.3361 16.4298L15.3351 16.4309C14.8686 16.8987 14.7391 17.4856 14.7714 17.9868C14.8023 18.4656 14.978 18.908 15.1901 19.2492L15.7365 20.1608L15.7175 20.2072L14.8264 20.4049C14.366 20.4927 13.9154 20.7274 13.5685 21.0661C13.2102 21.416 12.9102 21.9333 12.9102 22.5716V22.9131C12.1363 22.9699 11.3294 23 10.5 23C4.69976 23 0 21.5291 0 19.7143V13.1429ZM21 13.6331V13.1429C21 13.9368 20.1006 14.6649 18.6031 15.2328C18.7501 15.2947 18.8899 15.3703 19.019 15.4583L19.8339 15.9771C19.8956 15.9504 19.9576 15.9245 20.0199 15.8994L20.2499 14.9802C20.3414 14.5895 20.5298 14.152 20.8467 13.7912C20.8942 13.7372 20.9453 13.6842 21 13.6331ZM10.5 8.21429C4.69976 8.21429 0 6.74342 0 4.92857V11.5C0 13.3148 4.69976 14.7857 10.5 14.7857C16.3002 14.7857 21 13.3148 21 11.5V4.92857C21 6.74342 16.3002 8.21429 10.5 8.21429Z" fill="#367FCA"/>
</svg>
