<?xml version="1.0" encoding="UTF-8"?>
<svg viewBox="0 0 16 16" version="1.1" xmlns="http://www.w3.org/2000/svg" xmlns:xlink="http://www.w3.org/1999/xlink">
    <g id="sort-z-to-a" stroke="none" stroke-width="1" fill="none" fill-rule="evenodd">
        <g id="Sort-A-to-Z-Copy" transform="translate(1.000000, 1.000000)">
            <polygon id="Shape" fill="#666666" fill-rule="nonzero" points="11 13.9939004 14 11 12 11 12 0 10 0 10 11 8 11"></polygon>
            <g id="Group">
                <polygon id="Z" fill="#FA7541" points="0.805602716 0 6.25551783 0 6.25551783 0.781512605 2.05857385 5.15966387 6.5 5.15966387 6.5 6 0.5 6 0.5 5.22689076 4.70713073 0.840336134 0.805602716 0.840336134"></polygon>
                <path d="M2.81443299,7 L4.18556701,7 L7,14 L5.71134021,14 L5.04123711,12.245098 L1.95876289,12.245098 L1.28865979,14 L0,14 L2.81443299,7 Z M2.31958763,11.3039216 L4.68041237,11.3039216 L3.5257732,8.23529412 L3.48453608,8.23529412 L2.31958763,11.3039216 Z" id="A" fill="#367FC9"></path>
            </g>
        </g>
    </g>
</svg>