<?xml version="1.0" encoding="UTF-8"?>
<svg viewBox="0 0 16 16" version="1.1" xmlns="http://www.w3.org/2000/svg" xmlns:xlink="http://www.w3.org/1999/xlink">
    <!-- Generator: Sketch 52.6 (67491) - http://www.bohemiancoding.com/sketch -->
    <title>stars and banners-explosion1</title>
    <desc>Created with Sketch.</desc>
    <g id="stars-and-banners-explosion1" stroke="none" stroke-width="1" fill="none" fill-rule="evenodd">
        <g id="7.1" transform="translate(0.000000, 0.000000)" fill="#767676" fill-rule="nonzero">
            <path d="M4.94917328,6.32397457 L2.28088789,6.74997358 L4.28564595,8.42637393 L2.89093969,9.4425365 L5.3402302,9.26848512 L4.8602947,10.9419383 L6.40383168,10.0263332 L6.6490717,12.2484208 L7.66090385,9.31686844 L9.24490278,11.9034093 L9.72291853,9.15986708 L11.7228546,10.9350713 L11.211267,8.60431011 L13.073472,8.73953585 L11.4288859,7.56690393 L13.1366737,6.4100318 L10.9534206,5.96140015 L11.7304857,4.63548384 L9.55829754,5.03624845 L9.67976384,2.95384068 L7.93547815,5.52135762 L6.60932307,3.76198409 L6.04778935,5.73176693 L3.25537773,4.2103247 L4.94917328,6.32397457 Z M0,1.48063763 L5.53825065,4.49814708 L6.27065369,1.92897824 L7.90079018,4.09163556 L10.6805114,0 L10.4462843,4.01556975 L13.3736941,3.47546815 L12.2631385,5.37042367 L15.2574218,5.98571205 L12.8969038,7.58475 L16,9.79733695 L12.2609779,9.52582439 L13.0801091,13.257735 L10.2816633,10.7737492 L9.68285643,14.2105645 L7.87017196,11.2505989 L6.23090505,16 L5.72380077,11.4051949 L3.48493874,12.7332574 L4.2132475,10.1937689 L0.0294221475,10.4910798 L2.92649813,8.3803126 L0.32891322,6.20818405 L3.39606015,5.71850571 L0,1.48063763 Z" id="Path-18"></path>
        </g>
    </g>
</svg>