<?xml version="1.0" encoding="UTF-8"?>
<svg viewBox="0 0 16 16" version="1.1" xmlns="http://www.w3.org/2000/svg" xmlns:xlink="http://www.w3.org/1999/xlink">
    <!-- Generator: Sketch 52.6 (67491) - http://www.bohemiancoding.com/sketch -->
    <title>stars and banners-horizontal scroll</title>
    <desc>Created with Sketch.</desc>
    <g id="stars-and-banners-horizontal-scroll" stroke="none" stroke-width="1" fill="none" fill-rule="evenodd">
        <g id="7.18" transform="translate(8.000000, 8.500000) scale(1, -1) rotate(-90.000000) translate(-8.000000, -8.500000) translate(0.500000, 0.500000)" fill="#767676" fill-rule="nonzero">
            <path d="M3,3.73243561 L3,15 L10,15 C10.5522847,15 11,14.5522847 11,14 L11,4 L4,4 C3.63571286,4 3.29417337,3.90260571 3,3.73243561 Z M2,2 C2,0.8954305 2.8954305,0 4,0 L13,0 C14.1045695,0 15,0.8954305 15,2 C15,3.1045695 14.1045695,4 13,4 L12,4 L12,14 C12,15.1045695 11.1045695,16 10,16 L2,16 C0.8954305,16 -4.47506202e-17,15.1045695 2.28847549e-17,14 C9.052013e-17,12.8954305 1,12 2,12 L2,2 Z M5.73243561,1 C5.90260571,1.29417337 6,1.63571286 6,2 C6,2.36428714 5.90260571,2.70582663 5.73243561,3 L13,3 C13.5522847,3 14,2.55228475 14,2 C14,1.44771525 13.5522847,1 13,1 L5.73243561,1 Z M2,13 C1.50838665,13 1,13.4906661 1,14 C1,14.5522847 1.44771525,15 2,15 L2,14.1353759 L2,13 Z M4,3 C4.55228475,3 5,2.55228475 5,2 C5,1.44771525 4.55228475,1 4,1 C3.44771525,1 3,1.44771525 3,2 C3,2.55228475 3.44771525,3 4,3 Z" id="合并形状"></path>
        </g>
    </g>
</svg>