<?xml version="1.0" encoding="UTF-8"?>
<svg viewBox="0 0 16 16" version="1.1" xmlns="http://www.w3.org/2000/svg" xmlns:xlink="http://www.w3.org/1999/xlink">
    <!-- Generator: Sketch 52.6 (67491) - http://www.bohemiancoding.com/sketch -->
    <title>stars and banners-8 point star</title>
    <desc>Created with Sketch.</desc>
    <g id="stars-and-banners-8-point-star" stroke="none" stroke-width="1" fill="none" fill-rule="evenodd">
        <g id="7.7">
            <path d="M8.09970124,1.94427617 L6.73065644,4.1949425 L3.59138126,4.1949425 L3.59138126,7.19783747 L1.78615176,8.44528068 L3.59138126,9.63756668 L3.59138126,12.6916593 L6.63376929,12.6916593 L8.10095478,14.43433 L9.52698827,12.6916593 L10.0008228,12.6916593 L12.5166101,12.6916593 L12.5166101,9.65022253 L14.2646026,8.44553614 L12.5166101,7.18511887 L12.5166101,4.1949425 L9.43034671,4.1949425 L8.09970124,1.94427617 Z M6.16846652,3.1949425 L8.11189962,0 L10.0008228,3.1949425 L13.5166101,3.1949425 L13.5166101,6.67332779 L16,8.46401478 L13.5166101,10.1755244 L13.5166101,13.6916593 L10.0008228,13.6916593 L8.11189962,16 L6.16846652,13.6916593 L2.59138126,13.6916593 L2.59138126,10.1755244 L0,8.46401478 L2.59138126,6.67332779 L2.59138126,3.1949425 L6.16846652,3.1949425 Z M9,7 L8,7 L8,8 L9,8 L9,7 Z M10,7 L10,10 L10,11 L7,11 L7,10 L7,7 L7,6 L10,6 L10,7 Z M9,10 L9,9 L8,9 L8,10 L9,10 Z" id="合并形状" fill="#727272" fill-rule="nonzero"></path>
            <g id="Group-10" transform="translate(7.000000, 6.000000)"></g>
        </g>
    </g>
</svg>