<?xml version="1.0" encoding="UTF-8"?>
<svg viewBox="0 0 16 16" version="1.1" xmlns="http://www.w3.org/2000/svg" xmlns:xlink="http://www.w3.org/1999/xlink">
    <!-- Generator: Sketch 52.6 (67491) - http://www.bohemiancoding.com/sketch -->
    <title>stars and banners-10 point star</title>
    <desc>Created with Sketch.</desc>
    <g id="stars-and-banners-10-point-star" stroke="none" stroke-width="1" fill="none" fill-rule="evenodd">
        <g id="7.8" transform="translate(0.000000, 0.000000)">
            <path d="M9.42634737,12.1032249 L11.8541051,13.0021384 L11.7046157,10.5152177 L14.1851045,9.8950881 L12.5557984,8 L14.1851045,6.1049119 L11.7046157,5.48478234 L11.8541051,2.99786164 L9.42634737,3.89677508 L8,1.78602647 L6.57365263,3.89677508 L4.14589495,2.99786164 L4.29538428,5.48478234 L1.81489552,6.1049119 L3.4442016,8 L1.81489552,9.8950881 L4.29538428,10.5152177 L4.14589495,13.0021384 L6.57365263,12.1032249 L8,14.2139735 L9.42634737,12.1032249 Z M9.81534375,13.3136037 L8,16 L6.18465625,13.3136037 L3.05572809,14.472136 L3.24736836,11.2839877 L0,10.472136 L2.12542422,8 L0,5.52786405 L3.24736836,4.71601231 L3.05572809,1.52786405 L6.18465625,2.68639629 L8,0 L9.81534375,2.68639629 L12.9442719,1.52786405 L12.7526316,4.71601231 L16,5.52786405 L13.8745758,8 L16,10.472136 L12.7526316,11.2839877 L12.9442719,14.472136 L9.81534375,13.3136037 Z M6,8 L5,8 L5,7 L6,7 L6,6 L7,6 L7,11 L6,11 L6,8 Z M9,11 L8,11 L8,6 L9,6 L10,6 L11,6 L11,11 L10,11 L9,11 Z M9,10 L10,10 L10,7 L9,7 L9,10 Z" id="合并形状" fill="#727272" fill-rule="nonzero"></path>
            <g id="Group-13" transform="translate(5.000000, 6.000000)"></g>
        </g>
    </g>
</svg>