<?xml version="1.0" encoding="UTF-8"?>
<svg viewBox="0 0 32 32" version="1.1" xmlns="http://www.w3.org/2000/svg" xmlns:xlink="http://www.w3.org/1999/xlink">
    <!-- Generator: Sketch 58 (84663) - https://sketch.com -->
    <title>Cell Dropdowns</title>
    <desc>Created with Sketch.</desc>
    <g id="Cell-Dropdowns" stroke="none" stroke-width="1" fill="none" fill-rule="evenodd">
        <g id="编组-4" transform="translate(0.000000, 2.000000)">
            <g id="编组-5">
                <g id="编组-2">
                    <g id="编组">
                        <rect id="矩形" fill="#FFFFFF" x="0" y="0" width="29" height="24"></rect>
                        <path d="M29,0 L29,15 L28,15 L28,1 L1,1 L1,23 L19,23 L19,24 L0,24 L0,0 L29,0 Z" id="形状结合" fill="#666666" fill-rule="nonzero"></path>
                    </g>
                    <path d="M5,1 L5,4 L24,4 L24,1 L25,1 L25,4 L28,4 L28,5 L25,5 L25,15 L24,15 L24,5 L5,5 L5,19 L19,19 L19,20 L5,20 L5,23 L4,23 L4,20 L1,20 L1,19 L4,19 L4,5 L1,5 L1,4 L4,4 L4,1 L5,1 Z" id="形状结合" fill="#BBBBBB"></path>
                    <g id="编组-3" transform="translate(4.000000, 4.000000)">
                        <path d="M20,1 L20,11 L15,11 L15,15 L1,15 L1,1 L20,1 Z" id="形状结合" fill="#81BEFC"></path>
                        <path d="M21,0 L21,11 L20,11 L20,1 L1,1 L1,15 L15,15 L15,16 L0,16 L0,0 L21,0 Z" id="形状结合" fill="#367FC9"></path>
                    </g>
                </g>
            </g>
            <g id="编组-6" transform="translate(20.000000, 16.000000)">
                <rect id="矩形" fill="#FFFFFF" x="0" y="0" width="12" height="12"></rect>
                <path d="M0,0 L12,0 L12,12 L0,12 L0,0 Z M1,1 L1,11 L11,11 L11,1 L1,1 Z" id="矩形" fill="#666666" fill-rule="nonzero"></path>
                <polygon id="路径-4" fill="#666666" points="3 5 9 5 6 8"></polygon>
            </g>
        </g>
    </g>
</svg>