<?xml version="1.0" encoding="UTF-8"?>
<svg viewBox="0 0 16 16" version="1.1" xmlns="http://www.w3.org/2000/svg" xmlns:xlink="http://www.w3.org/1999/xlink">
    <!-- Generator: Sketch 55.2 (78181) - https://sketchapp.com -->
    <title>color picker</title>
    <desc>Created with Sketch.</desc>
    <g id="color-picker" stroke="none" stroke-width="1" fill="none" fill-rule="evenodd">
        <g id="color-picker备份">
            <path d="M10,6.36360182 C13.0305996,5.58764035 14.9285092,6.05366154 15.6937288,7.76166539 C16.330786,9.18360514 15.8365969,10.0399781 15.3760806,11.109288 C15.0068533,11.9666266 14.7668158,12.7264973 14.7668158,14 C13.8911903,13.0159537 13.1971986,12.6250985 13.1971986,10.4224414 C13.1971986,9.83503952 13.3492234,9.40090672 13,8.77777778 C12.536148,8.38521265 11.536148,7.58048733 10,6.36360182 Z" id="路径-4" fill="#70B7FF"></path>
            <g id="编组-11" transform="translate(-0.000000, 3.000000)">
                <polygon id="矩形" fill="#FFFFFF" points="7.22222222 0 13 5.77777778 5.77777778 13 0 7.22222222"></polygon>
                <path d="M7.22222222,0 L13,5.77777778 L5.77777778,13 L0,7.22222222 L7.22222222,0 Z M1.44444444,7.22222222 L5.77777778,11.5555556 L11.5555556,5.77777778 L7.22222222,1.44444444 L1.44444444,7.22222222 Z" id="形状" fill="#367FC9" fill-rule="nonzero"></path>
            </g>
            <g id="编组-10" transform="translate(5.000000, 0.000000)" fill="#367FC9">
                <path d="M3,7.5 L3,1.63060739 C3,-0.543535796 0,-0.543535796 0,1.63060739 L0,5.06530369 C0,5.34144607 0.223857625,5.56530369 0.5,5.56530369 C0.776142375,5.56530369 1,5.34144607 1,5.06530369 L1,1.63060739 C1,0.789797537 2,0.789797537 2,1.63060739 L2,7.5 C2,7.77614237 2.22385763,8 2.5,8 C2.77614237,8 3,7.77614237 3,7.5 Z" id="路径-3" fill-rule="nonzero"></path>
                <polygon id="矩形" points="2.5 7 4 8.5 2.5 10 1 8.5"></polygon>
            </g>
        </g>
    </g>
</svg>