<svg viewBox="0,0,64,64" xmlns="http://www.w3.org/2000/svg" version="1.1">
 <!-- Generator: Sketch 52.6 (67491) - http://www.bohemiancoding.com/sketch -->

 <title>comboBox celltype</title>
 <desc>Created with Sketch.</desc>
 <g>
  <title>Layer 1</title>
  <g stroke="null" fill-rule="evenodd" fill="none" id="comboBox-celltype">
   <g stroke="null" id="ComboBox-CellType">
    <rect stroke="null" height="54.85715" width="54.85715" y="4.57143" x="4.57143" fill="#FFFFFF" id="矩形"/>
    <path stroke="null" fill-rule="nonzero" fill="#367FC9" id="Rectangle-Copy-42" d="m4.57143,27.42857l0,32l54.85715,0l0,-32l-54.85715,0zm-4.57143,-4.57143l64,0l0,41.14286l-64,0l0,-41.14286z"/>
    <path stroke="null" fill-rule="nonzero" fill="#666666" id="Rectangle" d="m4.57143,4.57143l0,18.28572l54.85715,0l0,-18.28572l-54.85715,0zm-4.57143,-4.57143l64,0l0,27.42857l-64,0l0,-27.42857z"/>
    <rect stroke="null" height="9.14286" width="4.57143" y="9.14286" x="9.14286" fill="#666666" id="Rectangle"/>
    <rect stroke="null" height="4.57143" width="22.85714" y="32" x="9.14286" fill="#666666" id="Rectangle-Copy-45"/>
    <rect stroke="null" height="4.57143" width="22.85714" y="41.14286" x="9.14286" fill="#666666" id="Rectangle-Copy-46"/>
    <rect stroke="null" height="4.57143" width="22.85714" y="50.28572" x="9.14286" fill="#666666" id="Rectangle-Copy-47"/>
    <rect stroke="null" height="9.14286" width="4.57143" y="9.14286" x="18.28572" fill="#666666" id="Rectangle-Copy-43"/>
    <rect stroke="null" height="9.14286" width="4.57143" y="9.14286" x="27.42857" fill="#666666" id="Rectangle-Copy-44"/>
    <polygon stroke="null" points="52.24123507113518,9.142857551574707 54.85714530944824,11.667587801855234 48.00000214576721,18.285715103149414 41.14285898208618,11.667587801855234 43.758769220399245,9.142857551574707 48.00000214576721,13.23625460258836 " fill-rule="nonzero" fill="#666666" id="Path-2"/>
    <polygon stroke="null" points="43.75876486074503,41.14285898208618 41.14285898208618,38.61813091163276 48.00000214576721,32.000001430511475 54.85714530944824,38.61813091163276 52.241230711480966,41.14285898208618 48.00000214576721,37.04946629072674 " fill-rule="nonzero" fill="#666666" id="Path-2"/>
    <polygon stroke="null" points="52.24123507113518,45.714287757873535 54.85714530944824,48.239015828326956 48.00000214576721,54.85714530944824 41.14285898208618,48.239015828326956 43.758769220399245,45.714287757873535 48.00000214576721,49.80768480888719 " fill-rule="nonzero" fill="#666666" id="Path-2"/>
   </g>
  </g>
 </g>
</svg>