<?xml version="1.0" encoding="UTF-8"?>
<svg viewBox="0 0 16 16" version="1.1" xmlns="http://www.w3.org/2000/svg" xmlns:xlink="http://www.w3.org/1999/xlink">
    <!-- Generator: Sketch 55.2 (78181) - https://sketchapp.com -->
    <title>datetime picker</title>
    <desc>Created with Sketch.</desc>
    <g id="datetime-picker" stroke="none" stroke-width="1" fill="none" fill-rule="evenodd">
        <g id="datetime-picker备份" transform="translate(1.000000, 1.000000)">
            <g id="编组-5">
                <rect id="矩形" fill="#FFFFFF" x="0" y="1" width="14" height="11"></rect>
                <g id="编组-8">
                    <path d="M10,1 L14,1 L14,13 L0,13 L0,1 L4,1 L4,0 L5,0 L5,1 L9,1 L9,0 L10,0 L10,1 Z M10,2 L10,3 L9,3 L9,2 L5,2 L5,3 L4,3 L4,2 L1,2 L1,12 L13,12 L13,2 L10,2 Z M1,4 L13,4 L13,5 L1,5 L1,4 Z" id="形状结合" fill="#367FC9" fill-rule="nonzero"></path>
                    <rect id="矩形备份-19" fill="#999999" x="3" y="6" width="2" height="2"></rect>
                    <rect id="矩形备份-20" fill="#999999" x="6" y="6" width="2" height="2"></rect>
                    <rect id="矩形备份-21" fill="#999999" x="9" y="6" width="2" height="2"></rect>
                    <rect id="矩形备份-23" fill="#999999" x="3" y="9" width="2" height="2"></rect>
                    <rect id="矩形备份-24" fill="#999999" x="6" y="9" width="2" height="2"></rect>
                    <rect id="矩形备份-25" fill="#999999" x="9" y="9" width="2" height="2"></rect>
                </g>
            </g>
        </g>
    </g>
</svg>