<?xml version="1.0" encoding="UTF-8"?>
<svg viewBox="0 0 16 16" version="1.1" xmlns="http://www.w3.org/2000/svg" xmlns:xlink="http://www.w3.org/1999/xlink">
    <title>Multiple Column Picker</title>
    <g id="Multiple-Column-Picker" stroke="none" stroke-width="1" fill="none" fill-rule="evenodd">
        <g id="编组" transform="translate(0.000000, 2.000000)">
            <path d="M16,1 L1,1 L1,13 L0,13 L0,0 L16,0 L16,1 Z" id="形状结合" fill="#367FC9"></path>
            <rect id="矩形" fill="#FFFFFF" x="1" y="1" width="15" height="12"></rect>
            <rect id="矩形" fill="#70B7FF" x="1" y="1" width="15" height="3"></rect>
            <rect id="矩形" fill="#367FC9" x="1" y="4" width="15" height="1"></rect>
            <rect id="矩形备份" fill="#BBBBBB" x="1" y="7" width="15" height="1"></rect>
            <rect id="矩形备份-2" fill="#BBBBBB" x="1" y="10" width="15" height="1"></rect>
            <rect id="矩形" fill="#367FC9" x="4" y="1" width="1" height="12"></rect>
            <rect id="矩形备份-3" fill="#367FC9" x="9" y="1" width="1" height="12"></rect>
            <rect id="矩形备份-4" fill="#367FC9" x="14" y="1" width="1" height="12"></rect>
            <rect id="矩形" fill="#999999" x="2" y="2" width="1" height="1"></rect>
            <rect id="矩形备份-5" fill="#999999" x="6" y="2" width="2" height="1"></rect>
            <rect id="矩形备份-6" fill="#999999" x="11" y="2" width="2" height="1"></rect>
        </g>
    </g>
</svg>