<svg viewBox="0,0,64,64" xmlns="http://www.w3.org/2000/svg" version="1.1">
 <!-- Generator: Sketch 52.6 (67491) - http://www.bohemiancoding.com/sketch -->

 <title>button celltype</title>
 <desc>Created with Sketch.</desc>
 <g>
  <title>Layer 1</title>
  <g stroke="null" fill-rule="evenodd" fill="none" id="button-celltype">
   <g stroke="null" id="Button-CellType">
    <rect stroke="null" height="45.80603" width="54.96724" y="9.09698" x="4.51638" fill="#FFFFFF" id="矩形"/>
    <path stroke="null" fill-rule="nonzero" fill="#367FC9" id="Rectangle" d="m4.51638,9.09698l0,45.80603l54.96724,0l0,-45.80603l-54.96724,0zm-4.5806,-4.5806l64.12845,0l0,54.96724l-64.12845,0l0,-54.96724z"/>
    <path stroke="null" fill="#367FC9" id="a" d="m24.98861,44.83393c-1.4051,1.16924 -2.75752,1.99458 -4.05722,2.476c-1.2997,0.48147 -2.69427,0.72218 -4.18365,0.72218c-2.45896,0 -4.34878,-0.58806 -5.66955,-1.76417c-1.32082,-1.17607 -1.9812,-2.67887 -1.9812,-4.50837c0,-1.07291 0.24941,-2.05303 0.7482,-2.94024c0.49883,-0.88726 1.1522,-1.59909 1.96013,-2.13557c0.80793,-0.53648 1.71773,-0.94223 2.7294,-1.21734c0.74467,-0.19261 1.86875,-0.37831 3.37219,-0.55709c3.06314,-0.35765 5.31826,-0.78411 6.76555,-1.27927c0.01402,-0.509 0.02107,-0.83225 0.02107,-0.96981c0,-1.51311 -0.35829,-2.57915 -1.07488,-3.19813c-0.96953,-0.83912 -2.40976,-1.25866 -4.3207,-1.25866c-1.78447,0 -3.10171,0.30608 -3.95182,0.91818c-0.85007,0.61215 -1.47885,1.69537 -1.88634,3.24975l-3.70942,-0.49521c0.33722,-1.55438 0.89221,-2.80956 1.665,-3.76558c0.77284,-0.95602 1.88987,-1.69194 3.35117,-2.20776c1.4613,-0.51582 3.15443,-0.77376 5.07943,-0.77376c1.91094,0 3.46353,0.2201 4.65788,0.66025c1.1943,0.4402 2.07249,0.99385 2.63453,1.66102c0.56204,0.66712 0.95547,1.50968 1.18028,2.52758c0.12647,0.63276 0.18968,1.77443 0.18968,3.42515l0,4.952c0,3.45263 0.0808,5.63634 0.24236,6.55109c0.1616,0.91475 0.48124,1.79166 0.959,2.63073l-3.96236,0c-0.39343,-0.77032 -0.64632,-1.67128 -0.75873,-2.70297zm-0.31615,-8.2946c-1.37702,0.55022 -3.44246,1.0179 -6.19646,1.40308c-1.5597,0.2201 -2.66266,0.46768 -3.30903,0.74279c-0.64632,0.27511 -1.14515,0.67747 -1.49639,1.20703c-0.35129,0.52961 -0.52691,1.11767 -0.52691,1.76417c0,0.99042 0.38285,1.81571 1.14863,2.476c0.76579,0.66025 1.88634,0.99037 3.3617,0.99037c1.4613,0 2.761,-0.3129 3.89915,-0.93879c1.1381,-0.62589 1.97415,-1.48215 2.50806,-2.56885c0.40749,-0.83907 0.61124,-2.07707 0.61124,-3.714l0,-1.36181z"/>
    <path stroke="null" fill="#367FC9" id="b" d="m38.02789,47.51565l-3.73759,0l0,-31.54776l4.02855,0l0,11.25477c1.70096,-2.05156 3.87185,-3.07734 6.51279,-3.07734c1.46222,0 2.84611,0.28336 4.15163,0.85007c1.30556,0.56667 2.37985,1.36287 3.22287,2.38865c0.84301,1.02578 1.50322,2.26314 1.9807,3.71212c0.47744,1.44903 0.71618,2.99842 0.71618,4.64826c0,3.9166 -1.00714,6.94364 -3.02141,9.08127c-2.01427,2.13763 -4.43137,3.20642 -7.25137,3.20642c-2.80507,0 -5.00582,-1.12619 -6.60234,-3.37856l0,2.8621zm-0.04475,-11.5991c0,2.74021 0.38793,4.71999 1.16379,5.93944c1.26823,1.99417 2.98408,2.99123 5.14759,2.99123c1.76065,0 3.28251,-0.73523 4.56567,-2.20579c1.28316,-1.47051 1.92477,-3.66187 1.92477,-6.57422c0,-2.98408 -0.6155,-5.1862 -1.84644,-6.60651c-1.23095,-1.42031 -2.71923,-2.13044 -4.46494,-2.13044c-1.76065,0 -3.28251,0.73523 -4.56572,2.20574c-1.28316,1.47051 -1.92472,3.59733 -1.92472,6.38055z"/>
   </g>
  </g>
 </g>
</svg>