<?xml version="1.0" encoding="UTF-8"?>
<svg viewBox="0 0 16 16" version="1.1" xmlns="http://www.w3.org/2000/svg" xmlns:xlink="http://www.w3.org/1999/xlink">
    <!-- Generator: Sketch 55.2 (78181) - https://sketchapp.com -->
    <title>workflow list</title>
    <desc>Created with Sketch.</desc>
    <g id="workflow-list" stroke="none" stroke-width="1" fill="none" fill-rule="evenodd">
        <g id="workflow-list备份">
            <g id="编组-14" transform="translate(4.000000, 0.000000)">
                <rect id="矩形" fill="#FFFFFF" x="0" y="0" width="8" height="4"></rect>
                <rect id="矩形备份-22" fill="#FFFFFF" x="0" y="6" width="8" height="4"></rect>
                <rect id="矩形备份-26" fill="#FFFFFF" x="0" y="12" width="8" height="4"></rect>
                <path d="M0,0 L8,0 L8,4 L0,4 L0,0 Z M1,1 L1,3 L7,3 L7,1 L1,1 Z" id="矩形" fill="#367FC9" fill-rule="nonzero"></path>
                <path d="M0,6 L8,6 L8,10 L0,10 L0,6 Z M1,7 L1,9 L7,9 L7,7 L1,7 Z" id="矩形备份-22" fill="#367FC9" fill-rule="nonzero"></path>
                <path d="M0,12 L8,12 L8,16 L0,16 L0,12 Z M1,13 L1,15 L7,15 L7,13 L1,13 Z" id="矩形备份-26" fill="#367FC9" fill-rule="nonzero"></path>
            </g>
            <path d="M12,2.5 L13.1168831,2.5 C14.1789237,2.5 14.9090909,3.55417888 14.9090909,5 C14.9090909,6.44582112 14.1789237,7.5 13.1168831,7.5 L12,7.5 L12,8.5 L13.1168831,8.5 C14.9119854,8.5 16,6.92917888 16,5 C16,3.07082112 14.9119854,1.5 13.1168831,1.5 L12,1.5 L12,2.5 Z" id="路径-6" fill="#999999" fill-rule="nonzero"></path>
            <path d="M0,8.5 L1.11688312,8.5 C2.17892372,8.5 2.90909091,9.55417888 2.90909091,11 C2.90909091,12.4458211 2.17892372,13.5 1.11688312,13.5 L0,13.5 L0,14.5 L1.11688312,14.5 C2.91198537,14.5 4,12.9291789 4,11 C4,9.07082112 2.91198537,7.5 1.11688312,7.5 L0,7.5 L0,8.5 Z" id="路径-6" fill="#999999" fill-rule="nonzero" transform="translate(2.000000, 11.000000) scale(-1, 1) translate(-2.000000, -11.000000) "></path>
        </g>
    </g>
</svg>