<?xml version="1.0" encoding="UTF-8"?>
<svg viewBox="0 0 16 16" version="1.1" xmlns="http://www.w3.org/2000/svg" xmlns:xlink="http://www.w3.org/1999/xlink">
    <g id="clear-rules" stroke="none" stroke-width="1" fill="none" fill-rule="evenodd">
        <g transform="translate(0.000000, 1.000000)">
            <g id="分组-3">
                <rect id="矩形" fill="#FFFFFF" x="0" y="0" width="14" height="12"></rect>
                <path d="M7.03113814,11 C6.97873567,11.3319988 6.99247441,11.6724146 7.07235437,12 L-1.77635684e-14,12 L-1.77635684e-14,0 L14,0 L14,5.82410439 L13,4.82410439 L13,1 L1,1 L1,11 L7.03113814,11 Z" id="合并形状" fill="#666666" fill-rule="nonzero"></path>
                <path d="M10,7.34746849 L8.98364444,8.36382405 L8.34746849,9 L5,9 L5,11 L4,11 L4,9 L1,9 L1,8 L4,8 L4,4 L1,4 L1,3 L4,3 L4,1 L5,1 L5,3 L9,3 L9,1 L10,1 L10,3 L13,3 L13,4 L10,4 L10,7.34746849 Z M9,4 L5,4 L5,8 L9,8 L9,4 Z" id="合并形状" fill="#BBBBBB"></path>
            </g>
            <g id="分组-2" transform="translate(4.000000, 3.000000)">
                <rect id="矩形" fill="#FFEFB2" x="1" y="1" width="4" height="4"></rect>
                <path d="M6,4.34746849 L4.98364444,5.36382405 L4.34746849,6 L0,6 L0,0 L6,0 L6,4.34746849 Z M1,1 L1,5 L5,5 L5,1 L1,1 Z" id="合并形状" fill="#FFCA00" fill-rule="nonzero"></path>
            </g>
            <path d="M8.98364444,9.77803761 L12.2219624,13.0163556 L11.6876946,13.5506234 C11.0885257,14.1497922 10.1170811,14.1497922 9.51791225,13.5506234 L8.44937664,12.4820878 C7.85020779,11.8829189 7.85020779,10.9114743 8.44937664,10.3123054 L8.98364444,9.77803761 Z M9.5233641,9.23831795 L12.761682,6 L16,9.23831795 L12.761682,12.4766359 L9.5233641,9.23831795 Z" id="Combined-Shape" fill="#EF8F89"></path>
        </g>
    </g>
</svg>