<?xml version="1.0" encoding="UTF-8"?>
<svg viewBox="0 0 16 16" version="1.1" xmlns="http://www.w3.org/2000/svg" xmlns:xlink="http://www.w3.org/1999/xlink">
    <g id="thick-bottom-border" stroke="none" stroke-width="1" fill="none" fill-rule="evenodd">
        <g transform="translate(2.000000, 1.000000)">
            <rect id="Rectangle" fill="#367FC9" x="0" y="11" width="13" height="2"></rect>
            <path d="M0,8 L1,8 L1,9 L0,9 L0,8 Z M0,10 L1,10 L1,11 L0,11 L0,10 Z M0,6 L1,6 L1,7 L0,7 L0,6 Z M0,4 L1,4 L1,5 L0,5 L0,4 Z M0,2 L1,2 L1,3 L0,3 L0,2 Z M0,0 L1,0 L1,1 L0,1 L0,0 Z M2,0 L3,0 L3,1 L2,1 L2,0 Z M2,6 L3,6 L3,7 L2,7 L2,6 Z M4,0 L5,0 L5,1 L4,1 L4,0 Z M4,6 L5,6 L5,7 L4,7 L4,6 Z M6,0 L7,0 L7,1 L6,1 L6,0 Z M6,2 L7,2 L7,3 L6,3 L6,2 Z M6,4 L7,4 L7,5 L6,5 L6,4 Z M6,6 L7,6 L7,7 L6,7 L6,6 Z M12,2 L13,2 L13,3 L12,3 L12,2 Z M12,6 L13,6 L13,7 L12,7 L12,6 Z M12,8 L13,8 L13,9 L12,9 L12,8 Z M12,10 L13,10 L13,11 L12,11 L12,10 Z M6,8 L7,8 L7,9 L6,9 L6,8 Z M6,10 L7,10 L7,11 L6,11 L6,10 Z M8,0 L9,0 L9,1 L8,1 L8,0 Z M8,6 L9,6 L9,7 L8,7 L8,6 Z M10,0 L11,0 L11,1 L10,1 L10,0 Z M10,6 L11,6 L11,7 L10,7 L10,6 Z M12,0 L13,0 L13,1 L12,1 L12,0 Z M12,4 L13,4 L13,5 L12,5 L12,4 Z" id="合并形状" fill="#666666"></path>
        </g>
    </g>
</svg>