<?xml version="1.0" encoding="UTF-8"?>
<svg viewBox="0 0 32 32" version="1.1" xmlns="http://www.w3.org/2000/svg" xmlns:xlink="http://www.w3.org/1999/xlink">
    <!-- Generator: Sketch 56.2 (81672) - https://sketch.com -->
    <title>Inside</title>
    <desc>Created with Sketch.</desc>
    <g id="Inside" stroke="none" stroke-width="1" fill="none" fill-rule="evenodd">
        <g id="编组-2" transform="translate(2.000000, 3.000000)">
            <rect id="矩形" fill="#FFFFFF" x="0" y="0" width="27" height="27"></rect>
            <path d="M27,26 L27,27 L24,27 L24,26 L26,26 L26,24 L27,24 L27,26 Z M26,1 L24,1 L24,0 L26,0 L27,9.18485099e-17 L27,3 L26,3 L26,1 Z M1,13 L3,13 L3,14 L1,14 L1,15 L-2.22044605e-16,15 L2.22044605e-16,12 L1,12 L1,13 Z M13,26 L13,24 L14,24 L14,26 L15,26 L15,27 L12,27 L12,26 L13,26 Z M-2.22044605e-16,26 L2.22044605e-16,24 L1,24 L1,26 L3,26 L3,27 L0,27 L0,26 Z M14,13 L15,13 L15,14 L14,14 L14,15 L13,15 L13,14 L12,14 L12,13 L13,13 L13,12 L14,12 L14,13 Z M26,14 L24,14 L24,13 L26,13 L26,12 L27,12 L27,15 L26,15 L26,14 Z M14,1 L14,3 L13,3 L13,1 L12,1 L12,0 L15,0 L15,1 L14,1 Z M1,1 L1,3 L-2.22044605e-16,3 L7.40148683e-17,1 L0,0 L3,0 L3,1 L1,1 Z M4,0 L7,0 L7,1 L4,1 L4,0 Z M4,26 L7,26 L7,27 L4,27 L4,26 Z M8,0 L11,0 L11,1 L8,1 L8,0 Z M8,26 L11,26 L11,27 L8,27 L8,26 Z M16,0 L19,0 L19,1 L16,1 L16,0 Z M16,26 L19,26 L19,27 L16,27 L16,26 Z M20,0 L23,0 L23,1 L20,1 L20,0 Z M20,26 L23,26 L23,27 L20,27 L20,26 Z M27,4 L27,7 L26,7 L26,4 L27,4 Z M1,4 L1,7 L-2.22044605e-16,7 L2.22044605e-16,4 L1,4 Z M14,4 L14,7 L13,7 L13,4 L14,4 Z M23,14 L20,14 L20,13 L23,13 L23,14 Z M27,8 L27,11 L26,11 L26,8 L27,8 Z M1,8 L1,11 L-2.22044605e-16,11 L2.22044605e-16,8 L1,8 Z M14,8 L14,11 L13,11 L13,8 L14,8 Z M19,14 L16,14 L16,13 L19,13 L19,14 Z M27,16 L27,19 L26,19 L26,16 L27,16 Z M1,16 L1,19 L-2.22044605e-16,19 L2.22044605e-16,16 L1,16 Z M14,16 L14,19 L13,19 L13,16 L14,16 Z M11,14 L8,14 L8,13 L11,13 L11,14 Z M27,20 L27,23 L26,23 L26,20 L27,20 Z M1,20 L1,23 L-2.22044605e-16,23 L2.22044605e-16,20 L1,20 Z M14,20 L14,23 L13,23 L13,20 L14,20 Z M7,14 L4,14 L4,13 L7,13 L7,14 Z" id="形状结合备份-4" fill="#A8A8A8"></path>
            <rect id="矩形" fill="#367FC9" x="13" y="1" width="1" height="25"></rect>
            <rect id="矩形备份-50" fill="#367FC9" transform="translate(13.500000, 13.500000) rotate(-270.000000) translate(-13.500000, -13.500000) " x="13" y="1" width="1" height="25"></rect>
        </g>
    </g>
</svg>