<?xml version="1.0" encoding="UTF-8"?>
<svg viewBox="0 0 16 16" version="1.1" xmlns="http://www.w3.org/2000/svg" xmlns:xlink="http://www.w3.org/1999/xlink">
    <g id="slash1" stroke="none" stroke-width="1" fill="none" fill-rule="evenodd">
        <g id="编组-7" transform="translate(1.000000, 1.000000)">
            <rect id="矩形" fill="#FFFFFF" x="0" y="0" width="15" height="15"></rect>
            <path d="M1,14 L3,14 L3,15 L1,15 L-2.22044605e-16,15 L2.22044605e-16,12 L1,12 L1,14 Z M14,15 L12,15 L12,14 L14,14 L14,12 L15,12 L15,15 L14,15 Z M15,1 L15,3 L14,3 L14,1 L12,1 L12,0 L15,0 L15,1 Z M1,1 L1,3 L-2.22044605e-16,3 L7.40148683e-17,1 L0,0 L3,0 L3,1 L1,1 Z M4,0 L7,0 L7,1 L4,1 L4,0 Z M8,0 L11,0 L11,1 L8,1 L8,0 Z M1,4 L1,7 L-2.22044605e-16,7 L2.22044605e-16,4 L1,4 Z M15,4 L15,7 L14,7 L14,4 L15,4 Z M1,8 L1,11 L-2.22044605e-16,11 L2.22044605e-16,8 L1,8 Z M15,8 L15,11 L14,11 L14,8 L15,8 Z M11,15 L8,15 L8,14 L11,14 L11,15 Z M7,15 L4,15 L4,14 L7,14 L7,15 Z" id="形状结合备份-8" fill="#A8A8A8"></path>
            <rect id="矩形备份-60" fill="#367FC9" transform="translate(7.560660, 7.510408) rotate(-315.000000) translate(-7.560660, -7.510408) " x="7.06066017" y="-0.48959236" width="1" height="16"></rect>
        </g>
    </g>
</svg>