<?xml version="1.0" encoding="UTF-8"?>
<svg viewBox="0 0 16 16" version="1.1" xmlns="http://www.w3.org/2000/svg" xmlns:xlink="http://www.w3.org/1999/xlink">
    <!-- Generator: Sketch 56.2 (81672) - https://sketch.com -->
    <title>center h</title>
    <desc>Created with Sketch.</desc>
    <g id="center-h" stroke="none" stroke-width="1" fill="none" fill-rule="evenodd">
        <g id="编组-5" transform="translate(1.000000, 1.000000)">
            <rect id="矩形" fill="#FFFFFF" x="0" y="0" width="15" height="15"></rect>
            <path d="M1,14 L3,14 L3,15 L1,15 L-2.22044605e-16,15 L2.22044605e-16,12 L1,12 L1,14 Z M14,15 L12,15 L12,14 L14,14 L14,12 L15,12 L15,15 L14,15 Z M8,7 L9,7 L9,8 L8,8 L8,9 L7,9 L7,8 L6,8 L6,7 L7,7 L7,6 L8,6 L8,7 Z M15,1 L15,3 L14,3 L14,1 L12,1 L12,0 L15,0 L15,1 Z M1,1 L1,3 L-2.22044605e-16,3 L7.40148683e-17,1 L0,0 L3,0 L3,1 L1,1 Z M4,0 L7,0 L7,1 L4,1 L4,0 Z M8,0 L11,0 L11,1 L8,1 L8,0 Z M1,4 L1,7 L-2.22044605e-16,7 L2.22044605e-16,4 L1,4 Z M8,2 L8,5 L7,5 L7,2 L8,2 Z M13,8 L10,8 L10,7 L13,7 L13,8 Z M15,4 L15,7 L14,7 L14,4 L15,4 Z M1,8 L1,11 L-2.22044605e-16,11 L2.22044605e-16,8 L1,8 Z M15,8 L15,11 L14,11 L14,8 L15,8 Z M8,10 L8,13 L7,13 L7,10 L8,10 Z M5,8 L2,8 L2,7 L5,7 L5,8 Z M11,15 L8,15 L8,14 L11,14 L11,15 Z M7,15 L4,15 L4,14 L7,14 L7,15 Z" id="形状结合备份-6" fill="#A8A8A8"></path>
            <rect id="矩形备份-55" fill="#367FC9" transform="translate(7.500000, 7.500000) rotate(-270.000000) translate(-7.500000, -7.500000) " x="7" y="0" width="1" height="15"></rect>
        </g>
    </g>
</svg>