<?xml version="1.0" encoding="UTF-8"?>
<svg viewBox="0 0 32 32" version="1.1" xmlns="http://www.w3.org/2000/svg" xmlns:xlink="http://www.w3.org/1999/xlink">
    <!-- Generator: Sketch 52.6 (67491) - http://www.bohemiancoding.com/sketch -->
    <title>cells</title>
    <desc>Created with Sketch.</desc>
    <g id="cells" stroke="none" stroke-width="1" fill="none" fill-rule="evenodd">
        <g id="Format" transform="translate(5.000000, 4.000000)">
            <polygon id="Combined-Shape" fill="#FFFFFF" fill-rule="nonzero" points="8.64285714 19.6428571 8.64285714 21 1 21 1 19.6428571 0 19.6428571 0 3.14285714 22 3.14285714 22 19.6428571"></polygon>
            <path d="M9,20 L6,20 L6,19 L1,19 L1,20 L0,20 L0,3 L22,3 L22,20 L10,20 L10,21 L9,21 L9,20 Z M1,20 L2,20 L2,21 L1,21 L1,20 Z M2,21 L5,21 L5,22 L2,22 L2,21 Z M6,21 L9,21 L9,22 L6,22 L6,21 Z M5,20 L6,20 L6,21 L5,21 L5,20 Z M1,4 L1,19 L21,19 L21,4 L1,4 Z" id="Combined-Shape" fill="#666666" fill-rule="nonzero"></path>
            <path d="M6,16 L6,19 L5,19 L5,16 L1,16 L1,15 L5,15 L5,8 L1,8 L1,7 L5,7 L5,4 L6,4 L6,7 L11,7 L11,4 L12,4 L12,7 L16,7 L16,4 L17,4 L17,7 L21,7 L21,8 L17,8 L17,15 L21,15 L21,16 L17,16 L17,19 L16,19 L16,16 L12,16 L12,19 L11,19 L11,16 L6,16 Z M6,15 L11,15 L11,8 L6,8 L6,15 Z M16,15 L16,8 L12,8 L12,15 L16,15 Z" id="Combined-Shape" fill="#BBBBBB" fill-rule="nonzero"></path>
            <rect id="Rectangle" fill="#81BEFC" x="6" y="8" width="5" height="7"></rect>
            <path d="M8.5,1 L13.5,1 L13.5,-5.75095527e-14 L15,1.5 L13.5,3 L13.5,2 L8.5,2 L3.5,2 L3.5,3 L2,1.5 L3.5,-8.3366152e-14 L3.5,1 L8.5,1 Z M0,-3.33066907e-15 L1,-3.33066907e-15 L1,3 L0,3 L0,-3.33066907e-15 Z M16,-3.17523785e-14 L17,-3.17523785e-14 L17,3 L16,3 L16,-3.17523785e-14 Z" id="Combined-Shape" fill="#FA7541" fill-rule="nonzero"></path>
        </g>
    </g>
</svg>